<ttFont>
    <TTGlyph name=".notdef" xMin="193" yMin="0" xMax="1034" yMax="1462">
      <contour>
        <pt x="193" y="1462" on="1"/>
        <pt x="1034" y="1462" on="1"/>
        <pt x="1034" y="0" on="1"/>
        <pt x="193" y="0" on="1"/>
      </contour>
      <contour>
        <pt x="297" y="104" on="1"/>
        <pt x="930" y="104" on="1"/>
        <pt x="930" y="1358" on="1"/>
        <pt x="297" y="1358" on="1"/>
      </contour>
    </TTGlyph>
    <TTGlyph name="A" xMin="-123" yMin="0" xMax="1163" yMax="1468">
      <contour>
        <pt x="842" y="348" on="1"/>
        <pt x="369" y="348" on="1"/>
        <pt x="197" y="0" on="1"/>
        <pt x="-123" y="0" on="1"/>
        <pt x="643" y="1468" on="1"/>
        <pt x="1016" y="1468" on="1"/>
        <pt x="1163" y="0" on="1"/>
        <pt x="866" y="0" on="1"/>
      </contour>
      <contour>
        <pt x="827" y="608" on="1"/>
        <pt x="801" y="958" on="1"/>
        <pt x="796" y="1091" on="1"/>
        <pt x="793" y="1247" on="1"/>
        <pt x="788" y="1247" on="1"/>
        <pt x="734" y="1100" on="0"/>
        <pt x="682" y="993" on="1"/>
        <pt x="494" y="608" on="1"/>
      </contour>
    </TTGlyph>
    <TTGlyph name="AE" xMin="-123" yMin="0" xMax="1903" yMax="1462">
      <contour>
        <pt x="1593" y="0" on="1"/>
        <pt x="776" y="0" on="1"/>
        <pt x="850" y="348" on="1"/>
        <pt x="424" y="348" on="1"/>
        <pt x="205" y="0" on="1"/>
        <pt x="-123" y="0" on="1"/>
        <pt x="799" y="1462" on="1"/>
        <pt x="1903" y="1462" on="1"/>
        <pt x="1849" y="1208" on="1"/>
        <pt x="1337" y="1208" on="1"/>
        <pt x="1270" y="887" on="1"/>
        <pt x="1747" y="887" on="1"/>
        <pt x="1692" y="633" on="1"/>
        <pt x="1214" y="633" on="1"/>
        <pt x="1135" y="256" on="1"/>
        <pt x="1647" y="256" on="1"/>
      </contour>
      <contour>
        <pt x="905" y="608" on="1"/>
        <pt x="1032" y="1208" on="1"/>
        <pt x="952" y="1208" on="1"/>
        <pt x="588" y="608" on="1"/>
      </contour>
    </TTGlyph>
    <TTGlyph name="AEacute" xMin="-123" yMin="0" xMax="1903" yMax="1907">
      <component glyphName="AE" x="0" y="0" flags="0x204"/>
      <component glyphName="acute" x="645" y="338" flags="0x4"/>
    </TTGlyph>
    <TTGlyph name="Aacute" xMin="-123" yMin="0" xMax="1292" yMax="1907">
      <component glyphName="A" x="0" y="0" flags="0x204"/>
      <component glyphName="acute" x="252" y="338" flags="0x4"/>
    </TTGlyph>
    <TTGlyph name="Abreve" xMin="-123" yMin="0" xMax="1239" yMax="1917">
      <component glyphName="A" x="0" y="0" flags="0x204"/>
      <component glyphName="breve" x="92" y="338" flags="0x4"/>
    </TTGlyph>
    <TTGlyph name="Acircumflex" xMin="-123" yMin="0" xMax="1235" yMax="1907">
      <component glyphName="A" x="0" y="0" flags="0x204"/>
      <component glyphName="circumflex" x="115" y="338" flags="0x4"/>
    </TTGlyph>
    <TTGlyph name="Adieresis" xMin="-123" yMin="0" xMax="1194" yMax="1878">
      <component glyphName="A" x="0" y="0" flags="0x204"/>
      <component glyphName="dieresis" x="119" y="338" flags="0x4"/>
    </TTGlyph>
    <TTGlyph name="Agrave" xMin="-123" yMin="0" xMax="1163" yMax="1907">
      <component glyphName="A" x="0" y="0" flags="0x204"/>
      <component glyphName="grave" x="31" y="338" flags="0x4"/>
    </TTGlyph>
    <TTGlyph name="Alpha" xMin="-123" yMin="0" xMax="1163" yMax="1468">
      <component glyphName="A" x="0" y="0" flags="0x204"/>
    </TTGlyph>
    <TTGlyph name="Alphatonos" xMin="-123" yMin="0" xMax="1163" yMax="1525">
      <component glyphName="A" x="0" y="0" flags="0x204"/>
      <component glyphName="tonos" x="-491" y="-105" flags="0x4"/>
    </TTGlyph>
    <TTGlyph name="Amacron" xMin="-123" yMin="0" xMax="1196" yMax="1790">
      <component glyphName="A" x="0" y="0" flags="0x204"/>
      <component glyphName="uni02C9" x="147" y="338" flags="0x4"/>
    </TTGlyph>
    <TTGlyph name="Aogonek" xMin="-123" yMin="-492" xMax="1163" yMax="1468">
      <component glyphName="A" x="0" y="0" flags="0x204"/>
      <component glyphName="ogonek" x="823" y="0" flags="0x4"/>
    </TTGlyph>
    <TTGlyph name="Aring" xMin="-123" yMin="0" xMax="1163" yMax="1806">
      <contour>
        <pt x="1087" y="1571" on="1"/>
        <pt x="1087" y="1468" on="0"/>
        <pt x="1022" y="1403" on="1"/>
        <pt x="1163" y="0" on="1"/>
        <pt x="866" y="0" on="1"/>
        <pt x="842" y="348" on="1"/>
        <pt x="369" y="348" on="1"/>
        <pt x="197" y="0" on="1"/>
        <pt x="-123" y="0" on="1"/>
        <pt x="623" y="1432" on="1"/>
        <pt x="586" y="1485" on="0"/>
        <pt x="586" y="1569" on="1"/>
        <pt x="586" y="1677" on="0"/>
        <pt x="721" y="1806" on="0"/>
        <pt x="834" y="1806" on="1"/>
        <pt x="943" y="1806" on="0"/>
        <pt x="1087" y="1677" on="0"/>
      </contour>
      <contour>
        <pt x="827" y="608" on="1"/>
        <pt x="801" y="958" on="1"/>
        <pt x="796" y="1093" on="1"/>
        <pt x="793" y="1247" on="1"/>
        <pt x="788" y="1247" on="1"/>
        <pt x="734" y="1100" on="0"/>
        <pt x="682" y="993" on="1"/>
        <pt x="494" y="608" on="1"/>
      </contour>
      <contour>
        <pt x="930" y="1569" on="1"/>
        <pt x="930" y="1614" on="0"/>
        <pt x="876" y="1665" on="0"/>
        <pt x="834" y="1665" on="1"/>
        <pt x="792" y="1665" on="0"/>
        <pt x="737" y="1614" on="0"/>
        <pt x="737" y="1569" on="1"/>
        <pt x="737" y="1524" on="0"/>
        <pt x="786" y="1473" on="0"/>
        <pt x="834" y="1473" on="1"/>
        <pt x="876" y="1473" on="0"/>
        <pt x="930" y="1524" on="0"/>
      </contour>
    </TTGlyph>
    <TTGlyph name="Aringacute" xMin="-123" yMin="0" xMax="1321" yMax="1962">
      <contour>
        <pt x="1085" y="1462" on="1"/>
        <pt x="1085" y="1350" on="0"/>
        <pt x="1008" y="1282" on="1"/>
        <pt x="1163" y="0" on="1"/>
        <pt x="866" y="0" on="1"/>
        <pt x="836" y="330" on="1"/>
        <pt x="367" y="330" on="1"/>
        <pt x="197" y="0" on="1"/>
        <pt x="-123" y="0" on="1"/>
        <pt x="608" y="1346" on="1"/>
        <pt x="584" y="1394" on="0"/>
        <pt x="584" y="1460" on="1"/>
        <pt x="584" y="1570" on="0"/>
        <pt x="720" y="1698" on="0"/>
        <pt x="831" y="1698" on="1"/>
        <pt x="941" y="1698" on="0"/>
        <pt x="1085" y="1568" on="0"/>
      </contour>
      <contour>
        <pt x="768" y="1767" on="1"/>
        <pt x="804" y="1794" on="0"/>
        <pt x="937" y="1915" on="0"/>
        <pt x="979" y="1962" on="1"/>
        <pt x="1321" y="1962" on="1"/>
        <pt x="1321" y="1952" on="1"/>
        <pt x="1263" y="1903" on="0"/>
        <pt x="1067" y="1791" on="0"/>
        <pt x="983" y="1753" on="1"/>
        <pt x="768" y="1753" on="1"/>
      </contour>
      <contour>
        <pt x="928" y="1460" on="1"/>
        <pt x="928" y="1505" on="0"/>
        <pt x="873" y="1556" on="0"/>
        <pt x="831" y="1556" on="1"/>
        <pt x="789" y="1556" on="0"/>
        <pt x="735" y="1505" on="0"/>
        <pt x="735" y="1460" on="1"/>
        <pt x="735" y="1415" on="0"/>
        <pt x="783" y="1364" on="0"/>
        <pt x="831" y="1364" on="1"/>
        <pt x="873" y="1364" on="0"/>
        <pt x="928" y="1415" on="0"/>
      </contour>
      <contour>
        <pt x="768" y="1149" on="1"/>
        <pt x="725" y="1038" on="0"/>
        <pt x="672" y="932" on="1"/>
        <pt x="498" y="590" on="1"/>
        <pt x="821" y="590" on="1"/>
        <pt x="795" y="899" on="1"/>
        <pt x="785" y="984" on="0"/>
        <pt x="780" y="1149" on="1"/>
      </contour>
      <contour>
        <pt x="491" y="1462" on="1"/>
      </contour>
    </TTGlyph>
    <TTGlyph name="Atilde" xMin="-123" yMin="0" xMax="1286" yMax="1888">
      <component glyphName="A" x="0" y="0" flags="0x204"/>
      <component glyphName="tilde" x="133" y="338" flags="0x4"/>
    </TTGlyph>
    <TTGlyph name="B" xMin="53" yMin="0" xMax="1251" yMax="1462">
      <contour>
        <pt x="788" y="1462" on="1"/>
        <pt x="1017" y="1462" on="0"/>
        <pt x="1251" y="1299" on="0"/>
        <pt x="1251" y="1137" on="1"/>
        <pt x="1251" y="987" on="0"/>
        <pt x="1085" y="794" on="0"/>
        <pt x="932" y="762" on="1"/>
        <pt x="932" y="754" on="1"/>
        <pt x="1032" y="728" on="0"/>
        <pt x="1151" y="587" on="0"/>
        <pt x="1151" y="477" on="1"/>
        <pt x="1151" y="248" on="0"/>
        <pt x="845" y="0" on="0"/>
        <pt x="575" y="0" on="1"/>
        <pt x="53" y="0" on="1"/>
        <pt x="362" y="1462" on="1"/>
      </contour>
      <contour>
        <pt x="545" y="883" on="1"/>
        <pt x="694" y="883" on="1"/>
        <pt x="815" y="883" on="0"/>
        <pt x="936" y="980" on="0"/>
        <pt x="936" y="1071" on="1"/>
        <pt x="936" y="1208" on="0"/>
        <pt x="766" y="1208" on="1"/>
        <pt x="614" y="1208" on="1"/>
      </contour>
      <contour>
        <pt x="412" y="256" on="1"/>
        <pt x="592" y="256" on="1"/>
        <pt x="709" y="256" on="0"/>
        <pt x="842" y="372" on="0"/>
        <pt x="842" y="475" on="1"/>
        <pt x="842" y="637" on="0"/>
        <pt x="659" y="637" on="1"/>
        <pt x="494" y="637" on="1"/>
      </contour>
    </TTGlyph>
    <TTGlyph name="Beta" xMin="53" yMin="0" xMax="1251" yMax="1462">
      <component glyphName="B" x="0" y="0" flags="0x204"/>
    </TTGlyph>
    <TTGlyph name="C" xMin="123" yMin="-20" xMax="1335" yMax="1485">
      <contour>
        <pt x="905" y="1227" on="1"/>
        <pt x="773" y="1227" on="0"/>
        <pt x="562" y="1065" on="0"/>
        <pt x="434" y="749" on="0"/>
        <pt x="434" y="569" on="1"/>
        <pt x="434" y="402" on="0"/>
        <pt x="571" y="240" on="0"/>
        <pt x="721" y="240" on="1"/>
        <pt x="867" y="240" on="0"/>
        <pt x="1059" y="317" on="1"/>
        <pt x="1059" y="57" on="1"/>
        <pt x="860" y="-20" on="0"/>
        <pt x="659" y="-20" on="1"/>
        <pt x="405" y="-20" on="0"/>
        <pt x="123" y="279" on="0"/>
        <pt x="123" y="553" on="1"/>
        <pt x="123" y="815" on="0"/>
        <pt x="331" y="1256" on="0"/>
        <pt x="679" y="1485" on="0"/>
        <pt x="905" y="1485" on="1"/>
        <pt x="1030" y="1485" on="0"/>
        <pt x="1224" y="1440" on="0"/>
        <pt x="1335" y="1380" on="1"/>
        <pt x="1217" y="1130" on="1"/>
        <pt x="1111" y="1189" on="0"/>
        <pt x="973" y="1227" on="0"/>
      </contour>
    </TTGlyph>
    <TTGlyph name="Cacute" xMin="123" yMin="-20" xMax="1335" yMax="1907">
      <component glyphName="C" x="0" y="0" flags="0x204"/>
      <component glyphName="acute" x="252" y="338" flags="0x4"/>
    </TTGlyph>
    <TTGlyph name="Ccaron" xMin="123" yMin="-20" xMax="1335" yMax="1907">
      <component glyphName="C" x="0" y="0" flags="0x204"/>
      <component glyphName="caron" x="137" y="338" flags="0x4"/>
    </TTGlyph>
    <TTGlyph name="Ccedilla" xMin="123" yMin="-492" xMax="1335" yMax="1485">
      <component glyphName="C" x="0" y="0" flags="0x204"/>
      <component glyphName="cedilla" x="563" y="0" flags="0x4"/>
    </TTGlyph>
    <TTGlyph name="Ccircumflex" xMin="123" yMin="-20" xMax="1335" yMax="1907">
      <component glyphName="C" x="0" y="0" flags="0x204"/>
      <component glyphName="circumflex" x="172" y="338" flags="0x4"/>
    </TTGlyph>
    <TTGlyph name="Cdotaccent" xMin="123" yMin="-20" xMax="1335" yMax="1894">
      <component glyphName="C" x="0" y="0" flags="0x204"/>
      <component glyphName="dotaccent" x="453" y="338" flags="0x4"/>
    </TTGlyph>
    <TTGlyph name="Chi" xMin="-117" yMin="0" xMax="1401" yMax="1462">
      <component glyphName="X" x="0" y="0" flags="0x204"/>
    </TTGlyph>
    <TTGlyph name="D" xMin="53" yMin="0" xMax="1323" yMax="1462">
      <contour>
        <pt x="1323" y="909" on="1"/>
        <pt x="1323" y="629" on="0"/>
        <pt x="1127" y="216" on="0"/>
        <pt x="756" y="0" on="0"/>
        <pt x="504" y="0" on="1"/>
        <pt x="53" y="0" on="1"/>
        <pt x="362" y="1462" on="1"/>
        <pt x="758" y="1462" on="1"/>
        <pt x="1028" y="1462" on="0"/>
        <pt x="1323" y="1176" on="0"/>
      </contour>
      <contour>
        <pt x="518" y="256" on="1"/>
        <pt x="666" y="256" on="0"/>
        <pt x="886" y="408" on="0"/>
        <pt x="1010" y="703" on="0"/>
        <pt x="1010" y="893" on="1"/>
        <pt x="1010" y="1047" on="0"/>
        <pt x="865" y="1208" on="0"/>
        <pt x="729" y="1208" on="1"/>
        <pt x="614" y="1208" on="1"/>
        <pt x="412" y="256" on="1"/>
      </contour>
    </TTGlyph>
    <TTGlyph name="Dcaron" xMin="53" yMin="0" xMax="1323" yMax="1907">
      <component glyphName="D" x="0" y="0" flags="0x204"/>
      <component glyphName="caron" x="92" y="338" flags="0x4"/>
    </TTGlyph>
    <TTGlyph name="Dcroat" xMin="37" yMin="0" xMax="1323" yMax="1462">
      <component glyphName="Eth" x="0" y="0" flags="0x204"/>
    </TTGlyph>
    <TTGlyph name="Delta" xMin="-53" yMin="0" xMax="1122" yMax="1468">
      <component glyphName="uni2206" x="0" y="0" flags="0x204"/>
    </TTGlyph>
    <TTGlyph name="E" xMin="53" yMin="0" xMax="1180" yMax="1462">
      <contour>
        <pt x="870" y="0" on="1"/>
        <pt x="53" y="0" on="1"/>
        <pt x="362" y="1462" on="1"/>
        <pt x="1180" y="1462" on="1"/>
        <pt x="1126" y="1208" on="1"/>
        <pt x="614" y="1208" on="1"/>
        <pt x="547" y="887" on="1"/>
        <pt x="1024" y="887" on="1"/>
        <pt x="969" y="633" on="1"/>
        <pt x="492" y="633" on="1"/>
        <pt x="412" y="256" on="1"/>
        <pt x="924" y="256" on="1"/>
      </contour>
    </TTGlyph>
    <TTGlyph name="Eacute" xMin="53" yMin="0" xMax="1180" yMax="1907">
      <component glyphName="E" x="0" y="0" flags="0x204"/>
      <component glyphName="acute" x="125" y="338" flags="0x4"/>
    </TTGlyph>
    <TTGlyph name="Ebreve" xMin="53" yMin="0" xMax="1180" yMax="1917">
      <component glyphName="E" x="0" y="0" flags="0x204"/>
      <component glyphName="breve" x="31" y="338" flags="0x4"/>
    </TTGlyph>
    <TTGlyph name="Ecaron" xMin="53" yMin="0" xMax="1231" yMax="1907">
      <component glyphName="E" x="0" y="0" flags="0x204"/>
      <component glyphName="caron" x="45" y="338" flags="0x4"/>
    </TTGlyph>
    <TTGlyph name="Ecircumflex" xMin="53" yMin="0" xMax="1180" yMax="1907">
      <component glyphName="E" x="0" y="0" flags="0x204"/>
      <component glyphName="circumflex" x="57" y="338" flags="0x4"/>
    </TTGlyph>
    <TTGlyph name="Edieresis" xMin="53" yMin="0" xMax="1180" yMax="1878">
      <component glyphName="E" x="0" y="0" flags="0x204"/>
      <component glyphName="dieresis" x="41" y="338" flags="0x4"/>
    </TTGlyph>
    <TTGlyph name="Edotaccent" xMin="53" yMin="0" xMax="1180" yMax="1865">
      <component glyphName="E" x="0" y="0" flags="0x204"/>
      <component glyphName="dotaccent" x="301" y="309" flags="0x4"/>
    </TTGlyph>
    <TTGlyph name="Egrave" xMin="53" yMin="0" xMax="1180" yMax="1907">
      <component glyphName="E" x="0" y="0" flags="0x204"/>
      <component glyphName="grave" x="-28" y="338" flags="0x4"/>
    </TTGlyph>
    <TTGlyph name="Emacron" xMin="53" yMin="0" xMax="1180" yMax="1790">
      <component glyphName="E" x="0" y="0" flags="0x204"/>
      <component glyphName="uni02C9" x="86" y="338" flags="0x4"/>
    </TTGlyph>
    <TTGlyph name="Eng" xMin="53" yMin="-430" xMax="1556" yMax="1462">
      <contour>
        <pt x="727" y="-430" on="1"/>
        <pt x="607" y="-430" on="0"/>
        <pt x="537" y="-406" on="1"/>
        <pt x="537" y="-164" on="1"/>
        <pt x="627" y="-186" on="0"/>
        <pt x="698" y="-186" on="1"/>
        <pt x="809" y="-186" on="0"/>
        <pt x="935" y="-100" on="0"/>
        <pt x="967" y="0" on="1"/>
        <pt x="549" y="1106" on="1"/>
        <pt x="541" y="1106" on="1"/>
        <pt x="533" y="1047" on="1"/>
        <pt x="501" y="823" on="0"/>
        <pt x="473" y="688" on="1"/>
        <pt x="328" y="0" on="1"/>
        <pt x="53" y="0" on="1"/>
        <pt x="362" y="1462" on="1"/>
        <pt x="692" y="1462" on="1"/>
        <pt x="1073" y="477" on="1"/>
        <pt x="1083" y="477" on="1"/>
        <pt x="1095" y="557" on="1"/>
        <pt x="1124" y="757" on="0"/>
        <pt x="1151" y="874" on="1"/>
        <pt x="1282" y="1462" on="1"/>
        <pt x="1556" y="1462" on="1"/>
        <pt x="1247" y="0" on="1"/>
        <pt x="1201" y="-215" on="0"/>
        <pt x="936" y="-430" on="0"/>
      </contour>
    </TTGlyph>
    <TTGlyph name="Eogonek" xMin="53" yMin="-492" xMax="1180" yMax="1462">
      <component glyphName="E" x="0" y="0" flags="0x204"/>
      <component glyphName="ogonek" x="530" y="0" flags="0x4"/>
    </TTGlyph>
    <TTGlyph name="Epsilon" xMin="53" yMin="0" xMax="1180" yMax="1462">
      <component glyphName="E" x="0" y="0" flags="0x204"/>
    </TTGlyph>
    <TTGlyph name="Epsilontonos" xMin="34" yMin="0" xMax="1327" yMax="1525">
      <component glyphName="E" x="147" y="0" flags="0x4"/>
      <component glyphName="tonos" x="-531" y="-105" flags="0x4"/>
    </TTGlyph>
    <TTGlyph name="Eta" xMin="53" yMin="0" xMax="1444" yMax="1462">
      <component glyphName="H" x="0" y="0" flags="0x204"/>
    </TTGlyph>
    <TTGlyph name="Etatonos" xMin="34" yMin="0" xMax="1591" yMax="1525">
      <component glyphName="H" x="147" y="0" flags="0x4"/>
      <component glyphName="tonos" x="-531" y="-105" flags="0x4"/>
    </TTGlyph>
    <TTGlyph name="Eth" xMin="37" yMin="0" xMax="1323" yMax="1462">
      <contour>
        <pt x="1323" y="909" on="1"/>
        <pt x="1323" y="629" on="0"/>
        <pt x="1127" y="216" on="0"/>
        <pt x="756" y="0" on="0"/>
        <pt x="504" y="0" on="1"/>
        <pt x="53" y="0" on="1"/>
        <pt x="178" y="596" on="1"/>
        <pt x="37" y="596" on="1"/>
        <pt x="92" y="850" on="1"/>
        <pt x="231" y="850" on="1"/>
        <pt x="362" y="1462" on="1"/>
        <pt x="758" y="1462" on="1"/>
        <pt x="1028" y="1462" on="0"/>
        <pt x="1323" y="1176" on="0"/>
      </contour>
      <contour>
        <pt x="518" y="256" on="1"/>
        <pt x="666" y="256" on="0"/>
        <pt x="886" y="408" on="0"/>
        <pt x="1010" y="703" on="0"/>
        <pt x="1010" y="893" on="1"/>
        <pt x="1010" y="1047" on="0"/>
        <pt x="865" y="1208" on="0"/>
        <pt x="729" y="1208" on="1"/>
        <pt x="614" y="1208" on="1"/>
        <pt x="539" y="850" on="1"/>
        <pt x="776" y="850" on="1"/>
        <pt x="721" y="596" on="1"/>
        <pt x="483" y="596" on="1"/>
        <pt x="412" y="256" on="1"/>
      </contour>
    </TTGlyph>
    <TTGlyph name="Euro" xMin="41" yMin="-20" xMax="1245" yMax="1485">
      <contour>
        <pt x="899" y="1237" on="1"/>
        <pt x="802" y="1237" on="0"/>
        <pt x="644" y="1088" on="0"/>
        <pt x="588" y="950" on="1"/>
        <pt x="936" y="950" on="1"/>
        <pt x="897" y="774" on="1"/>
        <pt x="537" y="774" on="1"/>
        <pt x="526" y="740" on="0"/>
        <pt x="512" y="659" on="1"/>
        <pt x="811" y="659" on="1"/>
        <pt x="774" y="481" on="1"/>
        <pt x="494" y="481" on="1"/>
        <pt x="494" y="361" on="0"/>
        <pt x="583" y="238" on="0"/>
        <pt x="686" y="238" on="1"/>
        <pt x="819" y="238" on="0"/>
        <pt x="969" y="301" on="1"/>
        <pt x="969" y="43" on="1"/>
        <pt x="843" y="-20" on="0"/>
        <pt x="639" y="-20" on="1"/>
        <pt x="193" y="-20" on="0"/>
        <pt x="193" y="481" on="1"/>
        <pt x="41" y="481" on="1"/>
        <pt x="78" y="659" on="1"/>
        <pt x="205" y="659" on="1"/>
        <pt x="214" y="726" on="0"/>
        <pt x="227" y="774" on="1"/>
        <pt x="102" y="774" on="1"/>
        <pt x="141" y="950" on="1"/>
        <pt x="276" y="950" on="1"/>
        <pt x="363" y="1202" on="0"/>
        <pt x="690" y="1485" on="0"/>
        <pt x="901" y="1485" on="1"/>
        <pt x="1001" y="1485" on="0"/>
        <pt x="1159" y="1439" on="0"/>
        <pt x="1245" y="1382" on="1"/>
        <pt x="1120" y="1159" on="1"/>
        <pt x="1033" y="1208" on="0"/>
        <pt x="945" y="1237" on="0"/>
      </contour>
    </TTGlyph>
    <TTGlyph name="F" xMin="53" yMin="0" xMax="1176" yMax="1462">
      <contour>
        <pt x="358" y="0" on="1"/>
        <pt x="53" y="0" on="1"/>
        <pt x="362" y="1462" on="1"/>
        <pt x="1176" y="1462" on="1"/>
        <pt x="1122" y="1208" on="1"/>
        <pt x="614" y="1208" on="1"/>
        <pt x="535" y="831" on="1"/>
        <pt x="1008" y="831" on="1"/>
        <pt x="952" y="578" on="1"/>
        <pt x="479" y="578" on="1"/>
      </contour>
    </TTGlyph>
    <TTGlyph name="G" xMin="123" yMin="-20" xMax="1389" yMax="1485">
      <contour>
        <pt x="754" y="821" on="1"/>
        <pt x="1317" y="821" on="1"/>
        <pt x="1155" y="59" on="1"/>
        <pt x="1021" y="13" on="0"/>
        <pt x="792" y="-20" on="0"/>
        <pt x="664" y="-20" on="1"/>
        <pt x="405" y="-20" on="0"/>
        <pt x="123" y="274" on="0"/>
        <pt x="123" y="549" on="1"/>
        <pt x="123" y="815" on="0"/>
        <pt x="334" y="1247" on="0"/>
        <pt x="720" y="1485" on="0"/>
        <pt x="979" y="1485" on="1"/>
        <pt x="1197" y="1485" on="0"/>
        <pt x="1389" y="1386" on="1"/>
        <pt x="1274" y="1135" on="1"/>
        <pt x="1200" y="1175" on="0"/>
        <pt x="1052" y="1223" on="0"/>
        <pt x="965" y="1223" on="1"/>
        <pt x="812" y="1223" on="0"/>
        <pt x="571" y="1057" on="0"/>
        <pt x="434" y="750" on="0"/>
        <pt x="434" y="573" on="1"/>
        <pt x="434" y="401" on="0"/>
        <pt x="579" y="240" on="0"/>
        <pt x="729" y="240" on="1"/>
        <pt x="805" y="240" on="0"/>
        <pt x="899" y="264" on="1"/>
        <pt x="965" y="563" on="1"/>
        <pt x="698" y="563" on="1"/>
      </contour>
    </TTGlyph>
    <TTGlyph name="Gamma" xMin="53" yMin="0" xMax="1176" yMax="1462">
      <contour>
        <pt x="354" y="0" on="1"/>
        <pt x="53" y="0" on="1"/>
        <pt x="362" y="1462" on="1"/>
        <pt x="1176" y="1462" on="1"/>
        <pt x="1122" y="1208" on="1"/>
        <pt x="610" y="1208" on="1"/>
      </contour>
    </TTGlyph>
    <TTGlyph name="Gbreve" xMin="123" yMin="-20" xMax="1389" yMax="1917">
      <component glyphName="G" x="0" y="0" flags="0x204"/>
      <component glyphName="breve" x="156" y="338" flags="0x4"/>
    </TTGlyph>
    <TTGlyph name="Gcaron" xMin="123" yMin="-20" xMax="1389" yMax="1907">
      <component glyphName="G" x="0" y="0" flags="0x204"/>
      <component glyphName="caron" x="176" y="338" flags="0x4"/>
    </TTGlyph>
    <TTGlyph name="Gcircumflex" xMin="123" yMin="-20" xMax="1389" yMax="1907">
      <component glyphName="G" x="0" y="0" flags="0x204"/>
      <component glyphName="circumflex" x="188" y="338" flags="0x4"/>
    </TTGlyph>
    <TTGlyph name="Gcommaaccent" xMin="123" yMin="-453" xMax="1389" yMax="1485">
      <component glyphName="G" x="0" y="0" flags="0x204"/>
      <component glyphName="glyph00569" x="281" y="0" flags="0x4"/>
    </TTGlyph>
    <TTGlyph name="Gdotaccent" xMin="123" yMin="-20" xMax="1389" yMax="1894">
      <component glyphName="G" x="0" y="0" flags="0x204"/>
      <component glyphName="dotaccent" x="455" y="338" flags="0x4"/>
    </TTGlyph>
    <TTGlyph name="H" xMin="53" yMin="0" xMax="1444" yMax="1462">
      <contour>
        <pt x="1135" y="0" on="1"/>
        <pt x="829" y="0" on="1"/>
        <pt x="963" y="631" on="1"/>
        <pt x="492" y="631" on="1"/>
        <pt x="358" y="0" on="1"/>
        <pt x="53" y="0" on="1"/>
        <pt x="362" y="1462" on="1"/>
        <pt x="668" y="1462" on="1"/>
        <pt x="547" y="889" on="1"/>
        <pt x="1018" y="889" on="1"/>
        <pt x="1139" y="1462" on="1"/>
        <pt x="1444" y="1462" on="1"/>
      </contour>
    </TTGlyph>
    <TTGlyph name="H18533" xMin="178" yMin="137" xMax="1059" yMax="1018">
      <contour>
        <pt x="618" y="1018" on="1"/>
        <pt x="727" y="1018" on="0"/>
        <pt x="944" y="901" on="0"/>
        <pt x="1059" y="684" on="0"/>
        <pt x="1059" y="578" on="1"/>
        <pt x="1059" y="395" on="0"/>
        <pt x="801" y="137" on="0"/>
        <pt x="618" y="137" on="1"/>
        <pt x="436" y="137" on="0"/>
        <pt x="178" y="395" on="0"/>
        <pt x="178" y="578" on="1"/>
        <pt x="178" y="686" on="0"/>
        <pt x="289" y="899" on="0"/>
        <pt x="504" y="1018" on="0"/>
      </contour>
    </TTGlyph>
    <TTGlyph name="H18543" xMin="109" yMin="383" xMax="616" yMax="891">
      <contour>
        <pt x="616" y="383" on="1"/>
        <pt x="109" y="383" on="1"/>
        <pt x="109" y="891" on="1"/>
        <pt x="616" y="891" on="1"/>
      </contour>
    </TTGlyph>
    <TTGlyph name="H18551" xMin="109" yMin="383" xMax="616" yMax="891">
      <contour>
        <pt x="616" y="383" on="1"/>
        <pt x="109" y="383" on="1"/>
        <pt x="109" y="891" on="1"/>
        <pt x="616" y="891" on="1"/>
      </contour>
      <contour>
        <pt x="541" y="459" on="1"/>
        <pt x="541" y="813" on="1"/>
        <pt x="184" y="813" on="1"/>
        <pt x="184" y="459" on="1"/>
      </contour>
    </TTGlyph>
    <TTGlyph name="H22073" xMin="6" yMin="0" xMax="1231" yMax="1225">
      <contour>
        <pt x="6" y="1225" on="1"/>
        <pt x="1231" y="1225" on="1"/>
        <pt x="1231" y="0" on="1"/>
        <pt x="6" y="0" on="1"/>
      </contour>
      <contour>
        <pt x="82" y="1149" on="1"/>
        <pt x="82" y="76" on="1"/>
        <pt x="1155" y="76" on="1"/>
        <pt x="1155" y="1149" on="1"/>
      </contour>
    </TTGlyph>
    <TTGlyph name="Hbar" xMin="53" yMin="0" xMax="1581" yMax="1462">
      <contour>
        <pt x="1403" y="1268" on="1"/>
        <pt x="1581" y="1268" on="1"/>
        <pt x="1540" y="1069" on="1"/>
        <pt x="1360" y="1069" on="1"/>
        <pt x="1135" y="0" on="1"/>
        <pt x="829" y="0" on="1"/>
        <pt x="963" y="631" on="1"/>
        <pt x="492" y="631" on="1"/>
        <pt x="358" y="0" on="1"/>
        <pt x="53" y="0" on="1"/>
        <pt x="279" y="1069" on="1"/>
        <pt x="102" y="1069" on="1"/>
        <pt x="143" y="1268" on="1"/>
        <pt x="322" y="1268" on="1"/>
        <pt x="362" y="1462" on="1"/>
        <pt x="668" y="1462" on="1"/>
        <pt x="627" y="1268" on="1"/>
        <pt x="1098" y="1268" on="1"/>
        <pt x="1139" y="1462" on="1"/>
        <pt x="1444" y="1462" on="1"/>
      </contour>
      <contour>
        <pt x="1018" y="889" on="1"/>
        <pt x="1055" y="1069" on="1"/>
        <pt x="584" y="1069" on="1"/>
        <pt x="547" y="889" on="1"/>
      </contour>
    </TTGlyph>
    <TTGlyph name="Hcircumflex" xMin="53" yMin="0" xMax="1444" yMax="1907">
      <component glyphName="H" x="0" y="0" flags="0x204"/>
      <component glyphName="circumflex" x="184" y="338" flags="0x4"/>
    </TTGlyph>
    <TTGlyph name="I" xMin="-59" yMin="0" xMax="897" yMax="1462">
      <contour>
        <pt x="588" y="0" on="1"/>
        <pt x="-59" y="0" on="1"/>
        <pt x="-23" y="176" on="1"/>
        <pt x="164" y="258" on="1"/>
        <pt x="365" y="1204" on="1"/>
        <pt x="213" y="1286" on="1"/>
        <pt x="250" y="1462" on="1"/>
        <pt x="897" y="1462" on="1"/>
        <pt x="860" y="1286" on="1"/>
        <pt x="670" y="1204" on="1"/>
        <pt x="469" y="258" on="1"/>
        <pt x="625" y="176" on="1"/>
      </contour>
    </TTGlyph>
    <TTGlyph name="IJ" xMin="-59" yMin="-430" xMax="1474" yMax="1462">
      <component glyphName="I" x="0" y="0" flags="0x4"/>
      <component glyphName="J" x="784" y="0" flags="0x4"/>
    </TTGlyph>
    <TTGlyph name="Iacute" xMin="-59" yMin="0" xMax="1012" yMax="1907">
      <component glyphName="I" x="0" y="0" flags="0x204"/>
      <component glyphName="acute" x="-28" y="338" flags="0x4"/>
    </TTGlyph>
    <TTGlyph name="Ibreve" xMin="-59" yMin="0" xMax="984" yMax="1917">
      <component glyphName="I" x="0" y="0" flags="0x204"/>
      <component glyphName="breve" x="-163" y="338" flags="0x4"/>
    </TTGlyph>
    <TTGlyph name="Icircumflex" xMin="-59" yMin="0" xMax="978" yMax="1907">
      <component glyphName="I" x="0" y="0" flags="0x204"/>
      <component glyphName="circumflex" x="-142" y="338" flags="0x4"/>
    </TTGlyph>
    <TTGlyph name="Idieresis" xMin="-59" yMin="0" xMax="941" yMax="1878">
      <component glyphName="I" x="0" y="0" flags="0x204"/>
      <component glyphName="dieresis" x="-134" y="338" flags="0x4"/>
    </TTGlyph>
    <TTGlyph name="Idotaccent" xMin="-59" yMin="0" xMax="897" yMax="1894">
      <component glyphName="I" x="0" y="0" flags="0x204"/>
      <component glyphName="dotaccent" x="115" y="338" flags="0x4"/>
    </TTGlyph>
    <TTGlyph name="Igrave" xMin="-59" yMin="0" xMax="897" yMax="1907">
      <component glyphName="I" x="0" y="0" flags="0x204"/>
      <component glyphName="grave" x="-226" y="338" flags="0x4"/>
    </TTGlyph>
    <TTGlyph name="Imacron" xMin="-59" yMin="0" xMax="946" yMax="1790">
      <component glyphName="I" x="0" y="0" flags="0x204"/>
      <component glyphName="uni02C9" x="-103" y="338" flags="0x4"/>
    </TTGlyph>
    <TTGlyph name="Iogonek" xMin="-59" yMin="-492" xMax="897" yMax="1462">
      <component glyphName="I" x="0" y="0" flags="0x204"/>
      <component glyphName="ogonek" x="168" y="0" flags="0x4"/>
    </TTGlyph>
    <TTGlyph name="Iota" xMin="-59" yMin="0" xMax="897" yMax="1462">
      <component glyphName="I" x="0" y="0" flags="0x204"/>
    </TTGlyph>
    <TTGlyph name="Iotadieresis" xMin="-59" yMin="0" xMax="941" yMax="1878">
      <component glyphName="I" x="0" y="0" flags="0x204"/>
      <component glyphName="dieresis" x="-134" y="338" flags="0x4"/>
    </TTGlyph>
    <TTGlyph name="Iotatonos" xMin="34" yMin="0" xMax="1155" yMax="1525">
      <component glyphName="I" x="258" y="0" flags="0x4"/>
      <component glyphName="tonos" x="-531" y="-105" flags="0x4"/>
    </TTGlyph>
    <TTGlyph name="Itilde" xMin="-59" yMin="0" xMax="1041" yMax="1888">
      <component glyphName="I" x="0" y="0" flags="0x204"/>
      <component glyphName="tilde" x="-112" y="338" flags="0x4"/>
    </TTGlyph>
    <TTGlyph name="J" xMin="-322" yMin="-430" xMax="690" yMax="1462">
      <contour>
        <pt x="-135" y="-430" on="1"/>
        <pt x="-229" y="-430" on="0"/>
        <pt x="-322" y="-403" on="1"/>
        <pt x="-322" y="-150" on="1"/>
        <pt x="-234" y="-170" on="0"/>
        <pt x="-158" y="-170" on="1"/>
        <pt x="-59" y="-170" on="0"/>
        <pt x="64" y="-49" on="0"/>
        <pt x="92" y="82" on="1"/>
        <pt x="385" y="1462" on="1"/>
        <pt x="690" y="1462" on="1"/>
        <pt x="387" y="39" on="1"/>
        <pt x="335" y="-206" on="0"/>
        <pt x="88" y="-430" on="0"/>
      </contour>
    </TTGlyph>
    <TTGlyph name="Jcircumflex" xMin="-322" yMin="-430" xMax="949" yMax="1907">
      <component glyphName="J" x="0" y="0" flags="0x204"/>
      <component glyphName="circumflex" x="-171" y="338" flags="0x4"/>
    </TTGlyph>
    <TTGlyph name="K" xMin="53" yMin="0" xMax="1444" yMax="1462">
      <contour>
        <pt x="1141" y="0" on="1"/>
        <pt x="803" y="0" on="1"/>
        <pt x="592" y="592" on="1"/>
        <pt x="467" y="522" on="1"/>
        <pt x="358" y="0" on="1"/>
        <pt x="53" y="0" on="1"/>
        <pt x="362" y="1462" on="1"/>
        <pt x="668" y="1462" on="1"/>
        <pt x="514" y="756" on="1"/>
        <pt x="670" y="965" on="1"/>
        <pt x="1083" y="1462" on="1"/>
        <pt x="1444" y="1462" on="1"/>
        <pt x="850" y="762" on="1"/>
      </contour>
    </TTGlyph>
    <TTGlyph name="Kappa" xMin="53" yMin="0" xMax="1444" yMax="1462">
      <component glyphName="K" x="0" y="0" flags="0x204"/>
    </TTGlyph>
    <TTGlyph name="Kcommaaccent" xMin="53" yMin="-453" xMax="1444" yMax="1462">
      <component glyphName="K" x="0" y="0" flags="0x204"/>
      <component glyphName="glyph00569" x="180" y="0" flags="0x4"/>
    </TTGlyph>
    <TTGlyph name="L" xMin="53" yMin="0" xMax="924" yMax="1462">
      <contour>
        <pt x="53" y="0" on="1"/>
        <pt x="362" y="1462" on="1"/>
        <pt x="668" y="1462" on="1"/>
        <pt x="412" y="256" on="1"/>
        <pt x="924" y="256" on="1"/>
        <pt x="870" y="0" on="1"/>
      </contour>
    </TTGlyph>
    <TTGlyph name="Lacute" xMin="53" yMin="0" xMax="941" yMax="1907">
      <component glyphName="L" x="0" y="0" flags="0x204"/>
      <component glyphName="acute" x="-99" y="338" flags="0x4"/>
    </TTGlyph>
    <TTGlyph name="Lambda" xMin="-123" yMin="0" xMax="1106" yMax="1468">
      <contour>
        <pt x="-123" y="0" on="1"/>
        <pt x="625" y="1468" on="1"/>
        <pt x="967" y="1468" on="1"/>
        <pt x="1106" y="0" on="1"/>
        <pt x="811" y="0" on="1"/>
        <pt x="752" y="836" on="1"/>
        <pt x="743" y="949" on="0"/>
        <pt x="743" y="1174" on="1"/>
        <pt x="714" y="1095" on="1"/>
        <pt x="667" y="968" on="0"/>
        <pt x="625" y="881" on="1"/>
        <pt x="197" y="0" on="1"/>
      </contour>
    </TTGlyph>
    <TTGlyph name="Lcaron" xMin="53" yMin="0" xMax="1190" yMax="1463">
      <component glyphName="L" x="0" y="0" flags="0x204"/>
      <component glyphName="glyph00568" x="289" y="-93" flags="0x4"/>
    </TTGlyph>
    <TTGlyph name="Lcommaaccent" xMin="53" yMin="-453" xMax="924" yMax="1462">
      <component glyphName="L" x="0" y="0" flags="0x204"/>
      <component glyphName="glyph00569" x="66" y="0" flags="0x4"/>
    </TTGlyph>
    <TTGlyph name="Ldot" xMin="53" yMin="0" xMax="1026" yMax="1462">
      <component glyphName="L" x="0" y="0" flags="0x204"/>
      <component glyphName="dotaccent" x="373" y="-656" flags="0x4"/>
    </TTGlyph>
    <TTGlyph name="Lslash" xMin="-2" yMin="0" xMax="924" yMax="1462">
      <contour>
        <pt x="55" y="0" on="1"/>
        <pt x="158" y="481" on="1"/>
        <pt x="100" y="451" on="1"/>
        <pt x="-2" y="653" on="1"/>
        <pt x="219" y="772" on="1"/>
        <pt x="365" y="1462" on="1"/>
        <pt x="668" y="1462" on="1"/>
        <pt x="561" y="956" on="1"/>
        <pt x="702" y="1034" on="1"/>
        <pt x="809" y="831" on="1"/>
        <pt x="498" y="664" on="1"/>
        <pt x="412" y="256" on="1"/>
        <pt x="924" y="256" on="1"/>
        <pt x="870" y="0" on="1"/>
      </contour>
    </TTGlyph>
    <TTGlyph name="M" xMin="53" yMin="0" xMax="1812" yMax="1462">
      <contour>
        <pt x="840" y="369" on="1"/>
        <pt x="1389" y="1462" on="1"/>
        <pt x="1812" y="1462" on="1"/>
        <pt x="1503" y="0" on="1"/>
        <pt x="1223" y="0" on="1"/>
        <pt x="1368" y="692" on="1"/>
        <pt x="1404" y="861" on="0"/>
        <pt x="1477" y="1133" on="1"/>
        <pt x="1468" y="1133" on="1"/>
        <pt x="899" y="0" on="1"/>
        <pt x="618" y="0" on="1"/>
        <pt x="557" y="1133" on="1"/>
        <pt x="549" y="1133" on="1"/>
        <pt x="527" y="951" on="0"/>
        <pt x="471" y="680" on="1"/>
        <pt x="328" y="0" on="1"/>
        <pt x="53" y="0" on="1"/>
        <pt x="362" y="1462" on="1"/>
        <pt x="766" y="1462" on="1"/>
        <pt x="831" y="369" on="1"/>
      </contour>
    </TTGlyph>
    <TTGlyph name="Mu" xMin="53" yMin="0" xMax="1812" yMax="1462">
      <component glyphName="M" x="0" y="0" flags="0x204"/>
    </TTGlyph>
    <TTGlyph name="N" xMin="53" yMin="0" xMax="1556" yMax="1462">
      <contour>
        <pt x="1247" y="0" on="1"/>
        <pt x="905" y="0" on="1"/>
        <pt x="549" y="1106" on="1"/>
        <pt x="539" y="1106" on="1"/>
        <pt x="531" y="1047" on="1"/>
        <pt x="504" y="833" on="0"/>
        <pt x="473" y="688" on="1"/>
        <pt x="328" y="0" on="1"/>
        <pt x="53" y="0" on="1"/>
        <pt x="362" y="1462" on="1"/>
        <pt x="719" y="1462" on="1"/>
        <pt x="1059" y="385" on="1"/>
        <pt x="1067" y="385" on="1"/>
        <pt x="1102" y="608" on="0"/>
        <pt x="1135" y="770" on="1"/>
        <pt x="1282" y="1462" on="1"/>
        <pt x="1556" y="1462" on="1"/>
      </contour>
    </TTGlyph>
    <TTGlyph name="Nacute" xMin="53" yMin="0" xMax="1556" yMax="1907">
      <component glyphName="N" x="0" y="0" flags="0x204"/>
      <component glyphName="acute" x="373" y="338" flags="0x4"/>
    </TTGlyph>
    <TTGlyph name="Ncaron" xMin="53" yMin="0" xMax="1556" yMax="1907">
      <component glyphName="N" x="0" y="0" flags="0x204"/>
      <component glyphName="caron" x="244" y="338" flags="0x4"/>
    </TTGlyph>
    <TTGlyph name="Ncommaaccent" xMin="53" yMin="-453" xMax="1556" yMax="1462">
      <component glyphName="N" x="0" y="0" flags="0x204"/>
      <component glyphName="glyph00569" x="258" y="0" flags="0x4"/>
    </TTGlyph>
    <TTGlyph name="Ntilde" xMin="53" yMin="0" xMax="1556" yMax="1888">
      <component glyphName="N" x="0" y="0" flags="0x204"/>
      <component glyphName="tilde" x="248" y="338" flags="0x4"/>
    </TTGlyph>
    <TTGlyph name="Nu" xMin="53" yMin="0" xMax="1556" yMax="1462">
      <component glyphName="N" x="0" y="0" flags="0x204"/>
    </TTGlyph>
    <TTGlyph name="O" xMin="123" yMin="-20" xMax="1432" yMax="1485">
      <contour>
        <pt x="1432" y="938" on="1"/>
        <pt x="1432" y="655" on="0"/>
        <pt x="1234" y="208" on="0"/>
        <pt x="890" y="-20" on="0"/>
        <pt x="666" y="-20" on="1"/>
        <pt x="410" y="-20" on="0"/>
        <pt x="123" y="275" on="0"/>
        <pt x="123" y="537" on="1"/>
        <pt x="123" y="802" on="0"/>
        <pt x="321" y="1247" on="0"/>
        <pt x="669" y="1485" on="0"/>
        <pt x="897" y="1485" on="1"/>
        <pt x="1152" y="1485" on="0"/>
        <pt x="1432" y="1197" on="0"/>
      </contour>
      <contour>
        <pt x="872" y="1227" on="1"/>
        <pt x="751" y="1227" on="0"/>
        <pt x="549" y="1044" on="0"/>
        <pt x="434" y="724" on="0"/>
        <pt x="434" y="537" on="1"/>
        <pt x="434" y="390" on="0"/>
        <pt x="567" y="240" on="0"/>
        <pt x="688" y="240" on="1"/>
        <pt x="809" y="240" on="0"/>
        <pt x="1008" y="414" on="0"/>
        <pt x="1120" y="732" on="0"/>
        <pt x="1120" y="930" on="1"/>
        <pt x="1120" y="1072" on="0"/>
        <pt x="990" y="1227" on="0"/>
      </contour>
    </TTGlyph>
    <TTGlyph name="OE" xMin="123" yMin="-20" xMax="1915" yMax="1485">
      <contour>
        <pt x="1606" y="0" on="1"/>
        <pt x="846" y="0" on="1"/>
        <pt x="753" y="-20" on="0"/>
        <pt x="666" y="-20" on="1"/>
        <pt x="410" y="-20" on="0"/>
        <pt x="123" y="275" on="0"/>
        <pt x="123" y="537" on="1"/>
        <pt x="123" y="802" on="0"/>
        <pt x="321" y="1247" on="0"/>
        <pt x="669" y="1485" on="0"/>
        <pt x="897" y="1485" on="1"/>
        <pt x="1037" y="1485" on="0"/>
        <pt x="1106" y="1462" on="1"/>
        <pt x="1915" y="1462" on="1"/>
        <pt x="1862" y="1208" on="1"/>
        <pt x="1350" y="1208" on="1"/>
        <pt x="1282" y="887" on="1"/>
        <pt x="1759" y="887" on="1"/>
        <pt x="1704" y="633" on="1"/>
        <pt x="1227" y="633" on="1"/>
        <pt x="1147" y="256" on="1"/>
        <pt x="1659" y="256" on="1"/>
      </contour>
      <contour>
        <pt x="688" y="240" on="1"/>
        <pt x="776" y="240" on="0"/>
        <pt x="846" y="272" on="1"/>
        <pt x="1040" y="1188" on="1"/>
        <pt x="978" y="1227" on="0"/>
        <pt x="872" y="1227" on="1"/>
        <pt x="751" y="1227" on="0"/>
        <pt x="549" y="1044" on="0"/>
        <pt x="434" y="724" on="0"/>
        <pt x="434" y="537" on="1"/>
        <pt x="434" y="390" on="0"/>
        <pt x="567" y="240" on="0"/>
      </contour>
    </TTGlyph>
    <TTGlyph name="Oacute" xMin="123" yMin="-20" xMax="1432" yMax="1907">
      <component glyphName="O" x="0" y="0" flags="0x204"/>
      <component glyphName="acute" x="270" y="338" flags="0x4"/>
    </TTGlyph>
    <TTGlyph name="Obreve" xMin="123" yMin="-20" xMax="1432" yMax="1917">
      <component glyphName="O" x="0" y="0" flags="0x204"/>
      <component glyphName="breve" x="176" y="338" flags="0x4"/>
    </TTGlyph>
    <TTGlyph name="Ocircumflex" xMin="123" yMin="-20" xMax="1432" yMax="1907">
      <component glyphName="O" x="0" y="0" flags="0x204"/>
      <component glyphName="circumflex" x="188" y="338" flags="0x4"/>
    </TTGlyph>
    <TTGlyph name="Odieresis" xMin="123" yMin="-20" xMax="1432" yMax="1878">
      <component glyphName="O" x="0" y="0" flags="0x204"/>
      <component glyphName="dieresis" x="188" y="338" flags="0x4"/>
    </TTGlyph>
    <TTGlyph name="Ograve" xMin="123" yMin="-20" xMax="1432" yMax="1907">
      <component glyphName="O" x="0" y="0" flags="0x204"/>
      <component glyphName="grave" x="119" y="338" flags="0x4"/>
    </TTGlyph>
    <TTGlyph name="Ohorn" xMin="123" yMin="-20" xMax="1798" yMax="1556">
      <contour>
        <pt x="1432" y="938" on="1"/>
        <pt x="1432" y="655" on="0"/>
        <pt x="1234" y="208" on="0"/>
        <pt x="890" y="-20" on="0"/>
        <pt x="666" y="-20" on="1"/>
        <pt x="410" y="-20" on="0"/>
        <pt x="123" y="275" on="0"/>
        <pt x="123" y="537" on="1"/>
        <pt x="123" y="802" on="0"/>
        <pt x="321" y="1247" on="0"/>
        <pt x="669" y="1485" on="0"/>
        <pt x="897" y="1485" on="1"/>
        <pt x="1203" y="1485" on="0"/>
        <pt x="1341" y="1278" on="1"/>
        <pt x="1453" y="1352" on="0"/>
        <pt x="1485" y="1556" on="1"/>
        <pt x="1788" y="1556" on="1"/>
        <pt x="1798" y="1532" on="1"/>
        <pt x="1751" y="1373" on="0"/>
        <pt x="1564" y="1164" on="0"/>
        <pt x="1413" y="1106" on="1"/>
        <pt x="1432" y="1022" on="0"/>
      </contour>
      <contour>
        <pt x="872" y="1227" on="1"/>
        <pt x="751" y="1227" on="0"/>
        <pt x="549" y="1044" on="0"/>
        <pt x="434" y="724" on="0"/>
        <pt x="434" y="537" on="1"/>
        <pt x="434" y="390" on="0"/>
        <pt x="567" y="240" on="0"/>
        <pt x="688" y="240" on="1"/>
        <pt x="809" y="240" on="0"/>
        <pt x="1008" y="414" on="0"/>
        <pt x="1120" y="732" on="0"/>
        <pt x="1120" y="930" on="1"/>
        <pt x="1120" y="1072" on="0"/>
        <pt x="990" y="1227" on="0"/>
      </contour>
    </TTGlyph>
    <TTGlyph name="Ohungarumlaut" xMin="123" yMin="-20" xMax="1534" yMax="1907">
      <component glyphName="O" x="0" y="0" flags="0x204"/>
      <component glyphName="hungarumlaut" x="322" y="338" flags="0x4"/>
    </TTGlyph>
    <TTGlyph name="Omacron" xMin="123" yMin="-20" xMax="1432" yMax="1790">
      <component glyphName="O" x="0" y="0" flags="0x204"/>
      <component glyphName="uni02C9" x="238" y="338" flags="0x4"/>
    </TTGlyph>
    <TTGlyph name="Omega" xMin="-41" yMin="0" xMax="1462" yMax="1485">
      <contour>
        <pt x="872" y="1227" on="1"/>
        <pt x="757" y="1227" on="0"/>
        <pt x="570" y="1094" on="0"/>
        <pt x="453" y="845" on="0"/>
        <pt x="453" y="711" on="1"/>
        <pt x="453" y="551" on="0"/>
        <pt x="524" y="345" on="0"/>
        <pt x="598" y="276" on="1"/>
        <pt x="539" y="0" on="1"/>
        <pt x="-41" y="0" on="1"/>
        <pt x="12" y="260" on="1"/>
        <pt x="375" y="260" on="1"/>
        <pt x="268" y="327" on="0"/>
        <pt x="145" y="570" on="0"/>
        <pt x="145" y="719" on="1"/>
        <pt x="145" y="938" on="0"/>
        <pt x="341" y="1297" on="0"/>
        <pt x="678" y="1485" on="0"/>
        <pt x="895" y="1485" on="1"/>
        <pt x="1068" y="1485" on="0"/>
        <pt x="1326" y="1356" on="0"/>
        <pt x="1462" y="1119" on="0"/>
        <pt x="1462" y="965" on="1"/>
        <pt x="1462" y="725" on="0"/>
        <pt x="1247" y="358" on="0"/>
        <pt x="1044" y="260" on="1"/>
        <pt x="1409" y="260" on="1"/>
        <pt x="1354" y="0" on="1"/>
        <pt x="725" y="0" on="1"/>
        <pt x="784" y="276" on="1"/>
        <pt x="1151" y="491" on="0"/>
        <pt x="1151" y="928" on="1"/>
        <pt x="1151" y="1068" on="0"/>
        <pt x="1001" y="1227" on="0"/>
      </contour>
    </TTGlyph>
    <TTGlyph name="Omegatonos" xMin="62" yMin="0" xMax="1595" yMax="1525">
      <component glyphName="Omega" x="133" y="0" flags="0x4"/>
      <component glyphName="tonos" x="-503" y="-105" flags="0x4"/>
    </TTGlyph>
    <TTGlyph name="Omicron" xMin="123" yMin="-20" xMax="1432" yMax="1485">
      <component glyphName="O" x="0" y="0" flags="0x204"/>
    </TTGlyph>
    <TTGlyph name="Omicrontonos" xMin="62" yMin="-20" xMax="1551" yMax="1525">
      <component glyphName="O" x="119" y="0" flags="0x4"/>
      <component glyphName="tonos" x="-503" y="-105" flags="0x4"/>
    </TTGlyph>
    <TTGlyph name="Oslash" xMin="100" yMin="-86" xMax="1458" yMax="1540">
      <contour>
        <pt x="1432" y="938" on="1"/>
        <pt x="1432" y="655" on="0"/>
        <pt x="1234" y="208" on="0"/>
        <pt x="890" y="-20" on="0"/>
        <pt x="666" y="-20" on="1"/>
        <pt x="486" y="-20" on="0"/>
        <pt x="362" y="51" on="1"/>
        <pt x="254" y="-86" on="1"/>
        <pt x="100" y="29" on="1"/>
        <pt x="221" y="180" on="1"/>
        <pt x="123" y="318" on="0"/>
        <pt x="123" y="537" on="1"/>
        <pt x="123" y="802" on="0"/>
        <pt x="321" y="1247" on="0"/>
        <pt x="669" y="1485" on="0"/>
        <pt x="897" y="1485" on="1"/>
        <pt x="1079" y="1485" on="0"/>
        <pt x="1202" y="1409" on="1"/>
        <pt x="1307" y="1540" on="1"/>
        <pt x="1458" y="1423" on="1"/>
        <pt x="1341" y="1278" on="1"/>
        <pt x="1432" y="1144" on="0"/>
      </contour>
      <contour>
        <pt x="870" y="1233" on="1"/>
        <pt x="744" y="1233" on="0"/>
        <pt x="538" y="1050" on="0"/>
        <pt x="424" y="728" on="0"/>
        <pt x="424" y="537" on="1"/>
        <pt x="424" y="505" on="0"/>
        <pt x="432" y="436" on="1"/>
        <pt x="1028" y="1190" on="1"/>
        <pt x="959" y="1233" on="0"/>
      </contour>
      <contour>
        <pt x="1133" y="930" on="1"/>
        <pt x="1128" y="1010" on="1"/>
        <pt x="539" y="270" on="1"/>
        <pt x="598" y="233" on="0"/>
        <pt x="692" y="233" on="1"/>
        <pt x="816" y="233" on="0"/>
        <pt x="1020" y="411" on="0"/>
        <pt x="1133" y="728" on="0"/>
      </contour>
    </TTGlyph>
    <TTGlyph name="Oslashacute" xMin="100" yMin="-86" xMax="1458" yMax="1907">
      <component glyphName="Oslash" x="0" y="0" flags="0x204"/>
      <component glyphName="acute" x="270" y="338" flags="0x4"/>
    </TTGlyph>
    <TTGlyph name="Otilde" xMin="123" yMin="-20" xMax="1432" yMax="1888">
      <component glyphName="O" x="0" y="0" flags="0x204"/>
      <component glyphName="tilde" x="205" y="338" flags="0x4"/>
    </TTGlyph>
    <TTGlyph name="P" xMin="53" yMin="0" xMax="1260" yMax="1462">
      <contour>
        <pt x="1260" y="1036" on="1"/>
        <pt x="1260" y="795" on="0"/>
        <pt x="921" y="520" on="0"/>
        <pt x="623" y="520" on="1"/>
        <pt x="467" y="520" on="1"/>
        <pt x="358" y="0" on="1"/>
        <pt x="53" y="0" on="1"/>
        <pt x="362" y="1462" on="1"/>
        <pt x="770" y="1462" on="1"/>
        <pt x="1012" y="1462" on="0"/>
        <pt x="1260" y="1248" on="0"/>
      </contour>
      <contour>
        <pt x="522" y="774" on="1"/>
        <pt x="647" y="774" on="1"/>
        <pt x="789" y="774" on="0"/>
        <pt x="952" y="912" on="0"/>
        <pt x="952" y="1028" on="1"/>
        <pt x="952" y="1121" on="0"/>
        <pt x="855" y="1208" on="0"/>
        <pt x="758" y="1208" on="1"/>
        <pt x="614" y="1208" on="1"/>
      </contour>
    </TTGlyph>
    <TTGlyph name="Phi" xMin="123" yMin="-20" xMax="1608" yMax="1483">
      <contour>
        <pt x="557" y="-20" on="1"/>
        <pt x="606" y="203" on="1"/>
        <pt x="459" y="214" on="0"/>
        <pt x="242" y="330" on="0"/>
        <pt x="123" y="545" on="0"/>
        <pt x="123" y="690" on="1"/>
        <pt x="123" y="971" on="0"/>
        <pt x="495" y="1290" on="0"/>
        <pt x="840" y="1303" on="1"/>
        <pt x="877" y="1483" on="1"/>
        <pt x="1161" y="1483" on="1"/>
        <pt x="1124" y="1303" on="1"/>
        <pt x="1356" y="1283" on="0"/>
        <pt x="1608" y="1032" on="0"/>
        <pt x="1608" y="821" on="1"/>
        <pt x="1608" y="534" on="0"/>
        <pt x="1229" y="209" on="0"/>
        <pt x="891" y="205" on="1"/>
        <pt x="842" y="-20" on="1"/>
      </contour>
      <contour>
        <pt x="942" y="444" on="1"/>
        <pt x="1118" y="456" on="0"/>
        <pt x="1303" y="655" on="0"/>
        <pt x="1303" y="821" on="1"/>
        <pt x="1303" y="930" on="0"/>
        <pt x="1185" y="1057" on="0"/>
        <pt x="1073" y="1061" on="1"/>
      </contour>
      <contour>
        <pt x="788" y="1061" on="1"/>
        <pt x="620" y="1051" on="0"/>
        <pt x="428" y="857" on="0"/>
        <pt x="428" y="688" on="1"/>
        <pt x="428" y="576" on="0"/>
        <pt x="546" y="448" on="0"/>
        <pt x="657" y="444" on="1"/>
      </contour>
    </TTGlyph>
    <TTGlyph name="Pi" xMin="53" yMin="0" xMax="1434" yMax="1462">
      <contour>
        <pt x="1124" y="0" on="1"/>
        <pt x="819" y="0" on="1"/>
        <pt x="1075" y="1204" on="1"/>
        <pt x="614" y="1204" on="1"/>
        <pt x="358" y="0" on="1"/>
        <pt x="53" y="0" on="1"/>
        <pt x="362" y="1462" on="1"/>
        <pt x="1434" y="1462" on="1"/>
      </contour>
    </TTGlyph>
    <TTGlyph name="Psi" xMin="178" yMin="0" xMax="1747" yMax="1462">
      <contour>
        <pt x="967" y="434" on="1"/>
        <pt x="946" y="434" on="1"/>
        <pt x="854" y="0" on="1"/>
        <pt x="569" y="0" on="1"/>
        <pt x="664" y="434" on="1"/>
        <pt x="649" y="434" on="1"/>
        <pt x="427" y="434" on="0"/>
        <pt x="178" y="641" on="0"/>
        <pt x="178" y="825" on="1"/>
        <pt x="178" y="914" on="0"/>
        <pt x="201" y="1022" on="1"/>
        <pt x="295" y="1462" on="1"/>
        <pt x="590" y="1462" on="1"/>
        <pt x="489" y="983" on="1"/>
        <pt x="475" y="915" on="0"/>
        <pt x="475" y="866" on="1"/>
        <pt x="475" y="768" on="0"/>
        <pt x="586" y="686" on="0"/>
        <pt x="698" y="686" on="1"/>
        <pt x="715" y="686" on="1"/>
        <pt x="879" y="1462" on="1"/>
        <pt x="1163" y="1462" on="1"/>
        <pt x="999" y="686" on="1"/>
        <pt x="1016" y="686" on="1"/>
        <pt x="1163" y="686" on="0"/>
        <pt x="1314" y="824" on="0"/>
        <pt x="1348" y="979" on="1"/>
        <pt x="1450" y="1462" on="1"/>
        <pt x="1747" y="1462" on="1"/>
        <pt x="1636" y="944" on="1"/>
        <pt x="1527" y="434" on="0"/>
      </contour>
    </TTGlyph>
    <TTGlyph name="Q" xMin="123" yMin="-348" xMax="1432" yMax="1485">
      <contour>
        <pt x="1432" y="938" on="1"/>
        <pt x="1432" y="622" on="0"/>
        <pt x="1187" y="143" on="0"/>
        <pt x="975" y="45" on="1"/>
        <pt x="1229" y="-348" on="1"/>
        <pt x="870" y="-348" on="1"/>
        <pt x="692" y="-20" on="1"/>
        <pt x="666" y="-20" on="1"/>
        <pt x="410" y="-20" on="0"/>
        <pt x="123" y="275" on="0"/>
        <pt x="123" y="537" on="1"/>
        <pt x="123" y="802" on="0"/>
        <pt x="321" y="1247" on="0"/>
        <pt x="669" y="1485" on="0"/>
        <pt x="897" y="1485" on="1"/>
        <pt x="1152" y="1485" on="0"/>
        <pt x="1432" y="1197" on="0"/>
      </contour>
      <contour>
        <pt x="872" y="1227" on="1"/>
        <pt x="751" y="1227" on="0"/>
        <pt x="549" y="1044" on="0"/>
        <pt x="434" y="724" on="0"/>
        <pt x="434" y="537" on="1"/>
        <pt x="434" y="390" on="0"/>
        <pt x="567" y="240" on="0"/>
        <pt x="688" y="240" on="1"/>
        <pt x="809" y="240" on="0"/>
        <pt x="1008" y="414" on="0"/>
        <pt x="1120" y="732" on="0"/>
        <pt x="1120" y="930" on="1"/>
        <pt x="1120" y="1072" on="0"/>
        <pt x="990" y="1227" on="0"/>
      </contour>
    </TTGlyph>
    <TTGlyph name="R" xMin="53" yMin="0" xMax="1196" yMax="1462">
      <contour>
        <pt x="530" y="813" on="1"/>
        <pt x="608" y="813" on="1"/>
        <pt x="739" y="813" on="0"/>
        <pt x="885" y="927" on="0"/>
        <pt x="885" y="1044" on="1"/>
        <pt x="885" y="1126" on="0"/>
        <pt x="790" y="1208" on="0"/>
        <pt x="688" y="1208" on="1"/>
        <pt x="614" y="1208" on="1"/>
      </contour>
      <contour>
        <pt x="477" y="561" on="1"/>
        <pt x="358" y="0" on="1"/>
        <pt x="53" y="0" on="1"/>
        <pt x="362" y="1462" on="1"/>
        <pt x="721" y="1462" on="1"/>
        <pt x="958" y="1462" on="0"/>
        <pt x="1196" y="1258" on="0"/>
        <pt x="1196" y="1061" on="1"/>
        <pt x="1196" y="903" on="0"/>
        <pt x="1030" y="676" on="0"/>
        <pt x="874" y="621" on="1"/>
        <pt x="1135" y="0" on="1"/>
        <pt x="803" y="0" on="1"/>
        <pt x="596" y="561" on="1"/>
      </contour>
    </TTGlyph>
    <TTGlyph name="Racute" xMin="53" yMin="0" xMax="1202" yMax="1907">
      <component glyphName="R" x="0" y="0" flags="0x204"/>
      <component glyphName="acute" x="162" y="338" flags="0x4"/>
    </TTGlyph>
    <TTGlyph name="Rcaron" xMin="53" yMin="0" xMax="1252" yMax="1907">
      <component glyphName="R" x="0" y="0" flags="0x204"/>
      <component glyphName="caron" x="66" y="338" flags="0x4"/>
    </TTGlyph>
    <TTGlyph name="Rcommaaccent" xMin="53" yMin="-453" xMax="1196" yMax="1462">
      <component glyphName="R" x="0" y="0" flags="0x204"/>
      <component glyphName="glyph00569" x="176" y="0" flags="0x4"/>
    </TTGlyph>
    <TTGlyph name="Rho" xMin="53" yMin="0" xMax="1260" yMax="1462">
      <component glyphName="P" x="0" y="0" flags="0x204"/>
    </TTGlyph>
    <TTGlyph name="S" xMin="41" yMin="-20" xMax="1110" yMax="1483">
      <contour>
        <pt x="946" y="432" on="1"/>
        <pt x="946" y="223" on="0"/>
        <pt x="650" y="-20" on="0"/>
        <pt x="397" y="-20" on="1"/>
        <pt x="176" y="-20" on="0"/>
        <pt x="41" y="70" on="1"/>
        <pt x="41" y="344" on="1"/>
        <pt x="234" y="236" on="0"/>
        <pt x="399" y="236" on="1"/>
        <pt x="511" y="236" on="0"/>
        <pt x="637" y="321" on="0"/>
        <pt x="637" y="395" on="1"/>
        <pt x="637" y="438" on="0"/>
        <pt x="610" y="503" on="0"/>
        <pt x="560" y="559" on="0"/>
        <pt x="461" y="633" on="1"/>
        <pt x="323" y="732" on="0"/>
        <pt x="211" y="926" on="0"/>
        <pt x="211" y="1038" on="1"/>
        <pt x="211" y="1167" on="0"/>
        <pt x="335" y="1370" on="0"/>
        <pt x="564" y="1483" on="0"/>
        <pt x="713" y="1483" on="1"/>
        <pt x="930" y="1483" on="0"/>
        <pt x="1110" y="1384" on="1"/>
        <pt x="1001" y="1151" on="1"/>
        <pt x="845" y="1225" on="0"/>
        <pt x="713" y="1225" on="1"/>
        <pt x="630" y="1225" on="0"/>
        <pt x="524" y="1135" on="0"/>
        <pt x="524" y="1061" on="1"/>
        <pt x="524" y="1000" on="0"/>
        <pt x="590" y="909" on="0"/>
        <pt x="705" y="834" on="1"/>
        <pt x="826" y="754" on="0"/>
        <pt x="946" y="561" on="0"/>
      </contour>
    </TTGlyph>
    <TTGlyph name="SF010000" xMin="653" yMin="-492" xMax="1460" yMax="823">
      <contour>
        <pt x="653" y="823" on="1"/>
        <pt x="1460" y="823" on="1"/>
        <pt x="1460" y="678" on="1"/>
        <pt x="799" y="678" on="1"/>
        <pt x="799" y="-492" on="1"/>
        <pt x="653" y="-492" on="1"/>
      </contour>
    </TTGlyph>
    <TTGlyph name="SF020000" xMin="653" yMin="678" xMax="1460" yMax="1993">
      <contour>
        <pt x="653" y="1993" on="1"/>
        <pt x="799" y="1993" on="1"/>
        <pt x="799" y="823" on="1"/>
        <pt x="1460" y="823" on="1"/>
        <pt x="1460" y="678" on="1"/>
        <pt x="653" y="678" on="1"/>
      </contour>
    </TTGlyph>
    <TTGlyph name="SF030000" xMin="-10" yMin="-492" xMax="799" yMax="823">
      <contour>
        <pt x="-10" y="678" on="1"/>
        <pt x="-10" y="823" on="1"/>
        <pt x="799" y="823" on="1"/>
        <pt x="799" y="-492" on="1"/>
        <pt x="653" y="-492" on="1"/>
        <pt x="653" y="678" on="1"/>
      </contour>
    </TTGlyph>
    <TTGlyph name="SF040000" xMin="-10" yMin="678" xMax="799" yMax="1993">
      <contour>
        <pt x="-10" y="678" on="1"/>
        <pt x="-10" y="823" on="1"/>
        <pt x="653" y="823" on="1"/>
        <pt x="653" y="1993" on="1"/>
        <pt x="799" y="1993" on="1"/>
        <pt x="799" y="678" on="1"/>
      </contour>
    </TTGlyph>
    <TTGlyph name="SF050000" xMin="-10" yMin="-492" xMax="1460" yMax="1993">
      <contour>
        <pt x="-10" y="678" on="1"/>
        <pt x="-10" y="823" on="1"/>
        <pt x="653" y="823" on="1"/>
        <pt x="653" y="1993" on="1"/>
        <pt x="799" y="1993" on="1"/>
        <pt x="799" y="823" on="1"/>
        <pt x="1460" y="823" on="1"/>
        <pt x="1460" y="678" on="1"/>
        <pt x="799" y="678" on="1"/>
        <pt x="799" y="-492" on="1"/>
        <pt x="653" y="-492" on="1"/>
        <pt x="653" y="678" on="1"/>
      </contour>
    </TTGlyph>
    <TTGlyph name="SF060000" xMin="-10" yMin="-492" xMax="1460" yMax="823">
      <contour>
        <pt x="-10" y="678" on="1"/>
        <pt x="-10" y="823" on="1"/>
        <pt x="1460" y="823" on="1"/>
        <pt x="1460" y="678" on="1"/>
        <pt x="799" y="678" on="1"/>
        <pt x="799" y="-492" on="1"/>
        <pt x="653" y="-492" on="1"/>
        <pt x="653" y="678" on="1"/>
      </contour>
    </TTGlyph>
    <TTGlyph name="SF070000" xMin="-10" yMin="678" xMax="1460" yMax="1993">
      <contour>
        <pt x="-10" y="678" on="1"/>
        <pt x="-10" y="823" on="1"/>
        <pt x="653" y="823" on="1"/>
        <pt x="653" y="1993" on="1"/>
        <pt x="799" y="1993" on="1"/>
        <pt x="799" y="823" on="1"/>
        <pt x="1460" y="823" on="1"/>
        <pt x="1460" y="678" on="1"/>
      </contour>
    </TTGlyph>
    <TTGlyph name="SF080000" xMin="653" yMin="-492" xMax="1460" yMax="1993">
      <contour>
        <pt x="653" y="1993" on="1"/>
        <pt x="799" y="1993" on="1"/>
        <pt x="799" y="823" on="1"/>
        <pt x="1460" y="823" on="1"/>
        <pt x="1460" y="678" on="1"/>
        <pt x="799" y="678" on="1"/>
        <pt x="799" y="-492" on="1"/>
        <pt x="653" y="-492" on="1"/>
      </contour>
    </TTGlyph>
    <TTGlyph name="SF090000" xMin="-10" yMin="-492" xMax="799" yMax="1993">
      <contour>
        <pt x="-10" y="678" on="1"/>
        <pt x="-10" y="823" on="1"/>
        <pt x="653" y="823" on="1"/>
        <pt x="653" y="1993" on="1"/>
        <pt x="799" y="1993" on="1"/>
        <pt x="799" y="-492" on="1"/>
        <pt x="653" y="-492" on="1"/>
        <pt x="653" y="678" on="1"/>
      </contour>
    </TTGlyph>
    <TTGlyph name="SF100000" xMin="-10" yMin="678" xMax="1460" yMax="823">
      <contour>
        <pt x="-10" y="678" on="1"/>
        <pt x="-10" y="823" on="1"/>
        <pt x="1460" y="823" on="1"/>
        <pt x="1460" y="678" on="1"/>
      </contour>
    </TTGlyph>
    <TTGlyph name="SF110000" xMin="471" yMin="-492" xMax="616" yMax="1993">
      <contour>
        <pt x="471" y="1993" on="1"/>
        <pt x="616" y="1993" on="1"/>
        <pt x="616" y="-492" on="1"/>
        <pt x="471" y="-492" on="1"/>
      </contour>
    </TTGlyph>
    <TTGlyph name="SF190000" xMin="-10" yMin="-492" xMax="799" yMax="1993">
      <contour>
        <pt x="-10" y="498" on="1"/>
        <pt x="-10" y="643" on="1"/>
        <pt x="653" y="643" on="1"/>
        <pt x="653" y="858" on="1"/>
        <pt x="-10" y="858" on="1"/>
        <pt x="-10" y="1004" on="1"/>
        <pt x="653" y="1004" on="1"/>
        <pt x="653" y="1993" on="1"/>
        <pt x="799" y="1993" on="1"/>
        <pt x="799" y="-492" on="1"/>
        <pt x="653" y="-492" on="1"/>
        <pt x="653" y="498" on="1"/>
      </contour>
    </TTGlyph>
    <TTGlyph name="SF200000" xMin="-10" yMin="-492" xMax="979" yMax="1993">
      <contour>
        <pt x="-10" y="678" on="1"/>
        <pt x="-10" y="823" on="1"/>
        <pt x="473" y="823" on="1"/>
        <pt x="473" y="1993" on="1"/>
        <pt x="618" y="1993" on="1"/>
        <pt x="618" y="-492" on="1"/>
        <pt x="473" y="-492" on="1"/>
        <pt x="473" y="678" on="1"/>
      </contour>
      <contour>
        <pt x="834" y="1993" on="1"/>
        <pt x="979" y="1993" on="1"/>
        <pt x="979" y="-492" on="1"/>
        <pt x="834" y="-492" on="1"/>
      </contour>
    </TTGlyph>
    <TTGlyph name="SF210000" xMin="-10" yMin="-492" xMax="979" yMax="823">
      <contour>
        <pt x="-10" y="678" on="1"/>
        <pt x="-10" y="823" on="1"/>
        <pt x="979" y="823" on="1"/>
        <pt x="979" y="-492" on="1"/>
        <pt x="834" y="-492" on="1"/>
        <pt x="834" y="678" on="1"/>
        <pt x="618" y="678" on="1"/>
        <pt x="618" y="-492" on="1"/>
        <pt x="473" y="-492" on="1"/>
        <pt x="473" y="678" on="1"/>
      </contour>
    </TTGlyph>
    <TTGlyph name="SF220000" xMin="-10" yMin="-492" xMax="799" yMax="1004">
      <contour>
        <pt x="-10" y="498" on="1"/>
        <pt x="-10" y="643" on="1"/>
        <pt x="653" y="643" on="1"/>
        <pt x="653" y="858" on="1"/>
        <pt x="-10" y="858" on="1"/>
        <pt x="-10" y="1004" on="1"/>
        <pt x="799" y="1004" on="1"/>
        <pt x="799" y="-492" on="1"/>
        <pt x="653" y="-492" on="1"/>
        <pt x="653" y="498" on="1"/>
      </contour>
    </TTGlyph>
    <TTGlyph name="SF230000" xMin="-10" yMin="-492" xMax="979" yMax="1993">
      <contour>
        <pt x="834" y="1993" on="1"/>
        <pt x="979" y="1993" on="1"/>
        <pt x="979" y="-492" on="1"/>
        <pt x="834" y="-492" on="1"/>
      </contour>
      <contour>
        <pt x="473" y="1993" on="1"/>
        <pt x="618" y="1993" on="1"/>
        <pt x="618" y="858" on="1"/>
        <pt x="-10" y="858" on="1"/>
        <pt x="-10" y="1004" on="1"/>
        <pt x="473" y="1004" on="1"/>
      </contour>
      <contour>
        <pt x="618" y="-492" on="1"/>
        <pt x="473" y="-492" on="1"/>
        <pt x="473" y="498" on="1"/>
        <pt x="-10" y="498" on="1"/>
        <pt x="-10" y="643" on="1"/>
        <pt x="618" y="643" on="1"/>
      </contour>
    </TTGlyph>
    <TTGlyph name="SF240000" xMin="473" yMin="-492" xMax="979" yMax="1993">
      <contour>
        <pt x="473" y="1993" on="1"/>
        <pt x="618" y="1993" on="1"/>
        <pt x="618" y="-492" on="1"/>
        <pt x="473" y="-492" on="1"/>
      </contour>
      <contour>
        <pt x="834" y="1993" on="1"/>
        <pt x="979" y="1993" on="1"/>
        <pt x="979" y="-492" on="1"/>
        <pt x="834" y="-492" on="1"/>
      </contour>
    </TTGlyph>
    <TTGlyph name="SF250000" xMin="-10" yMin="-492" xMax="979" yMax="1004">
      <contour>
        <pt x="979" y="1004" on="1"/>
        <pt x="979" y="-492" on="1"/>
        <pt x="834" y="-492" on="1"/>
        <pt x="834" y="858" on="1"/>
        <pt x="-10" y="858" on="1"/>
        <pt x="-10" y="1004" on="1"/>
      </contour>
      <contour>
        <pt x="618" y="-492" on="1"/>
        <pt x="473" y="-492" on="1"/>
        <pt x="473" y="498" on="1"/>
        <pt x="-10" y="498" on="1"/>
        <pt x="-10" y="643" on="1"/>
        <pt x="618" y="643" on="1"/>
      </contour>
    </TTGlyph>
    <TTGlyph name="SF260000" xMin="-10" yMin="498" xMax="979" yMax="1993">
      <contour>
        <pt x="979" y="498" on="1"/>
        <pt x="-10" y="498" on="1"/>
        <pt x="-10" y="643" on="1"/>
        <pt x="834" y="643" on="1"/>
        <pt x="834" y="1993" on="1"/>
        <pt x="979" y="1993" on="1"/>
      </contour>
      <contour>
        <pt x="473" y="1993" on="1"/>
        <pt x="618" y="1993" on="1"/>
        <pt x="618" y="858" on="1"/>
        <pt x="-10" y="858" on="1"/>
        <pt x="-10" y="1004" on="1"/>
        <pt x="473" y="1004" on="1"/>
      </contour>
    </TTGlyph>
    <TTGlyph name="SF270000" xMin="-10" yMin="678" xMax="979" yMax="1993">
      <contour>
        <pt x="979" y="678" on="1"/>
        <pt x="-10" y="678" on="1"/>
        <pt x="-10" y="823" on="1"/>
        <pt x="473" y="823" on="1"/>
        <pt x="473" y="1993" on="1"/>
        <pt x="618" y="1993" on="1"/>
        <pt x="618" y="823" on="1"/>
        <pt x="834" y="823" on="1"/>
        <pt x="834" y="1993" on="1"/>
        <pt x="979" y="1993" on="1"/>
      </contour>
    </TTGlyph>
    <TTGlyph name="SF280000" xMin="-10" yMin="498" xMax="799" yMax="1993">
      <contour>
        <pt x="-10" y="498" on="1"/>
        <pt x="-10" y="643" on="1"/>
        <pt x="653" y="643" on="1"/>
        <pt x="653" y="858" on="1"/>
        <pt x="-10" y="858" on="1"/>
        <pt x="-10" y="1004" on="1"/>
        <pt x="653" y="1004" on="1"/>
        <pt x="653" y="1993" on="1"/>
        <pt x="799" y="1993" on="1"/>
        <pt x="799" y="498" on="1"/>
      </contour>
    </TTGlyph>
    <TTGlyph name="SF360000" xMin="653" yMin="-492" xMax="1460" yMax="1993">
      <contour>
        <pt x="653" y="1993" on="1"/>
        <pt x="799" y="1993" on="1"/>
        <pt x="799" y="1004" on="1"/>
        <pt x="1460" y="1004" on="1"/>
        <pt x="1460" y="858" on="1"/>
        <pt x="799" y="858" on="1"/>
        <pt x="799" y="643" on="1"/>
        <pt x="1460" y="643" on="1"/>
        <pt x="1460" y="498" on="1"/>
        <pt x="799" y="498" on="1"/>
        <pt x="799" y="-492" on="1"/>
        <pt x="653" y="-492" on="1"/>
      </contour>
    </TTGlyph>
    <TTGlyph name="SF370000" xMin="473" yMin="-492" xMax="1460" yMax="1993">
      <contour>
        <pt x="834" y="1993" on="1"/>
        <pt x="979" y="1993" on="1"/>
        <pt x="979" y="823" on="1"/>
        <pt x="1460" y="823" on="1"/>
        <pt x="1460" y="678" on="1"/>
        <pt x="979" y="678" on="1"/>
        <pt x="979" y="-492" on="1"/>
        <pt x="834" y="-492" on="1"/>
      </contour>
      <contour>
        <pt x="473" y="1993" on="1"/>
        <pt x="618" y="1993" on="1"/>
        <pt x="618" y="-492" on="1"/>
        <pt x="473" y="-492" on="1"/>
      </contour>
    </TTGlyph>
    <TTGlyph name="SF380000" xMin="473" yMin="498" xMax="1460" yMax="1993">
      <contour>
        <pt x="473" y="1993" on="1"/>
        <pt x="618" y="1993" on="1"/>
        <pt x="618" y="643" on="1"/>
        <pt x="1460" y="643" on="1"/>
        <pt x="1460" y="498" on="1"/>
        <pt x="473" y="498" on="1"/>
      </contour>
      <contour>
        <pt x="834" y="1993" on="1"/>
        <pt x="979" y="1993" on="1"/>
        <pt x="979" y="1004" on="1"/>
        <pt x="1460" y="1004" on="1"/>
        <pt x="1460" y="858" on="1"/>
        <pt x="834" y="858" on="1"/>
      </contour>
    </TTGlyph>
    <TTGlyph name="SF390000" xMin="473" yMin="-492" xMax="1460" yMax="1004">
      <contour>
        <pt x="473" y="1004" on="1"/>
        <pt x="1460" y="1004" on="1"/>
        <pt x="1460" y="858" on="1"/>
        <pt x="618" y="858" on="1"/>
        <pt x="618" y="-492" on="1"/>
        <pt x="473" y="-492" on="1"/>
      </contour>
      <contour>
        <pt x="834" y="643" on="1"/>
        <pt x="1460" y="643" on="1"/>
        <pt x="1460" y="498" on="1"/>
        <pt x="979" y="498" on="1"/>
        <pt x="979" y="-492" on="1"/>
        <pt x="834" y="-492" on="1"/>
      </contour>
    </TTGlyph>
    <TTGlyph name="SF400000" xMin="-10" yMin="498" xMax="1460" yMax="1993">
      <contour>
        <pt x="834" y="1993" on="1"/>
        <pt x="979" y="1993" on="1"/>
        <pt x="979" y="1004" on="1"/>
        <pt x="1460" y="1004" on="1"/>
        <pt x="1460" y="858" on="1"/>
        <pt x="834" y="858" on="1"/>
      </contour>
      <contour>
        <pt x="473" y="1993" on="1"/>
        <pt x="618" y="1993" on="1"/>
        <pt x="618" y="858" on="1"/>
        <pt x="-10" y="858" on="1"/>
        <pt x="-10" y="1004" on="1"/>
        <pt x="473" y="1004" on="1"/>
      </contour>
      <contour>
        <pt x="-10" y="498" on="1"/>
        <pt x="-10" y="643" on="1"/>
        <pt x="1460" y="643" on="1"/>
        <pt x="1460" y="498" on="1"/>
      </contour>
    </TTGlyph>
    <TTGlyph name="SF410000" xMin="-10" yMin="-492" xMax="1460" yMax="1004">
      <contour>
        <pt x="618" y="-492" on="1"/>
        <pt x="473" y="-492" on="1"/>
        <pt x="473" y="498" on="1"/>
        <pt x="-10" y="498" on="1"/>
        <pt x="-10" y="643" on="1"/>
        <pt x="618" y="643" on="1"/>
      </contour>
      <contour>
        <pt x="834" y="643" on="1"/>
        <pt x="1460" y="643" on="1"/>
        <pt x="1460" y="498" on="1"/>
        <pt x="979" y="498" on="1"/>
        <pt x="979" y="-492" on="1"/>
        <pt x="834" y="-492" on="1"/>
      </contour>
      <contour>
        <pt x="1460" y="1004" on="1"/>
        <pt x="1460" y="858" on="1"/>
        <pt x="-10" y="858" on="1"/>
        <pt x="-10" y="1004" on="1"/>
      </contour>
    </TTGlyph>
    <TTGlyph name="SF420000" xMin="473" yMin="-492" xMax="1460" yMax="1993">
      <contour>
        <pt x="618" y="-492" on="1"/>
        <pt x="473" y="-492" on="1"/>
        <pt x="473" y="1993" on="1"/>
        <pt x="618" y="1993" on="1"/>
      </contour>
      <contour>
        <pt x="834" y="643" on="1"/>
        <pt x="1460" y="643" on="1"/>
        <pt x="1460" y="498" on="1"/>
        <pt x="979" y="498" on="1"/>
        <pt x="979" y="-492" on="1"/>
        <pt x="834" y="-492" on="1"/>
      </contour>
      <contour>
        <pt x="834" y="1993" on="1"/>
        <pt x="979" y="1993" on="1"/>
        <pt x="979" y="1004" on="1"/>
        <pt x="1460" y="1004" on="1"/>
        <pt x="1460" y="858" on="1"/>
        <pt x="834" y="858" on="1"/>
      </contour>
    </TTGlyph>
    <TTGlyph name="SF430000" xMin="-10" yMin="498" xMax="1460" yMax="1004">
      <contour>
        <pt x="-10" y="858" on="1"/>
        <pt x="-10" y="1004" on="1"/>
        <pt x="1460" y="1004" on="1"/>
        <pt x="1460" y="858" on="1"/>
      </contour>
      <contour>
        <pt x="-10" y="498" on="1"/>
        <pt x="-10" y="643" on="1"/>
        <pt x="1460" y="643" on="1"/>
        <pt x="1460" y="498" on="1"/>
      </contour>
    </TTGlyph>
    <TTGlyph name="SF440000" xMin="-10" yMin="-492" xMax="1460" yMax="1993">
      <contour>
        <pt x="834" y="1993" on="1"/>
        <pt x="979" y="1993" on="1"/>
        <pt x="979" y="1004" on="1"/>
        <pt x="1460" y="1004" on="1"/>
        <pt x="1460" y="858" on="1"/>
        <pt x="834" y="858" on="1"/>
      </contour>
      <contour>
        <pt x="618" y="-492" on="1"/>
        <pt x="473" y="-492" on="1"/>
        <pt x="473" y="498" on="1"/>
        <pt x="-10" y="498" on="1"/>
        <pt x="-10" y="643" on="1"/>
        <pt x="618" y="643" on="1"/>
      </contour>
      <contour>
        <pt x="834" y="643" on="1"/>
        <pt x="1460" y="643" on="1"/>
        <pt x="1460" y="498" on="1"/>
        <pt x="979" y="498" on="1"/>
        <pt x="979" y="-492" on="1"/>
        <pt x="834" y="-492" on="1"/>
      </contour>
      <contour>
        <pt x="473" y="1993" on="1"/>
        <pt x="618" y="1993" on="1"/>
        <pt x="618" y="858" on="1"/>
        <pt x="-10" y="858" on="1"/>
        <pt x="-10" y="1004" on="1"/>
        <pt x="473" y="1004" on="1"/>
      </contour>
    </TTGlyph>
    <TTGlyph name="SF450000" xMin="-10" yMin="498" xMax="1460" yMax="1993">
      <contour>
        <pt x="-10" y="858" on="1"/>
        <pt x="-10" y="1004" on="1"/>
        <pt x="653" y="1004" on="1"/>
        <pt x="653" y="1993" on="1"/>
        <pt x="799" y="1993" on="1"/>
        <pt x="799" y="1004" on="1"/>
        <pt x="1460" y="1004" on="1"/>
        <pt x="1460" y="858" on="1"/>
      </contour>
      <contour>
        <pt x="-10" y="498" on="1"/>
        <pt x="-10" y="643" on="1"/>
        <pt x="1460" y="643" on="1"/>
        <pt x="1460" y="498" on="1"/>
      </contour>
    </TTGlyph>
    <TTGlyph name="SF460000" xMin="-10" yMin="678" xMax="1460" yMax="1993">
      <contour>
        <pt x="-10" y="678" on="1"/>
        <pt x="-10" y="823" on="1"/>
        <pt x="473" y="823" on="1"/>
        <pt x="473" y="1993" on="1"/>
        <pt x="618" y="1993" on="1"/>
        <pt x="618" y="823" on="1"/>
        <pt x="834" y="823" on="1"/>
        <pt x="834" y="1993" on="1"/>
        <pt x="979" y="1993" on="1"/>
        <pt x="979" y="823" on="1"/>
        <pt x="1460" y="823" on="1"/>
        <pt x="1460" y="678" on="1"/>
      </contour>
    </TTGlyph>
    <TTGlyph name="SF470000" xMin="-10" yMin="-492" xMax="1460" yMax="1004">
      <contour>
        <pt x="-10" y="498" on="1"/>
        <pt x="-10" y="643" on="1"/>
        <pt x="1460" y="643" on="1"/>
        <pt x="1460" y="498" on="1"/>
        <pt x="799" y="498" on="1"/>
        <pt x="799" y="-492" on="1"/>
        <pt x="653" y="-492" on="1"/>
        <pt x="653" y="498" on="1"/>
      </contour>
      <contour>
        <pt x="-10" y="858" on="1"/>
        <pt x="-10" y="1004" on="1"/>
        <pt x="1460" y="1004" on="1"/>
        <pt x="1460" y="858" on="1"/>
      </contour>
    </TTGlyph>
    <TTGlyph name="SF480000" xMin="-10" yMin="-492" xMax="1460" yMax="823">
      <contour>
        <pt x="-10" y="678" on="1"/>
        <pt x="-10" y="823" on="1"/>
        <pt x="1460" y="823" on="1"/>
        <pt x="1460" y="678" on="1"/>
        <pt x="979" y="678" on="1"/>
        <pt x="979" y="-492" on="1"/>
        <pt x="834" y="-492" on="1"/>
        <pt x="834" y="678" on="1"/>
        <pt x="618" y="678" on="1"/>
        <pt x="618" y="-492" on="1"/>
        <pt x="473" y="-492" on="1"/>
        <pt x="473" y="678" on="1"/>
      </contour>
    </TTGlyph>
    <TTGlyph name="SF490000" xMin="473" yMin="678" xMax="1460" yMax="1993">
      <contour>
        <pt x="834" y="1993" on="1"/>
        <pt x="979" y="1993" on="1"/>
        <pt x="979" y="823" on="1"/>
        <pt x="1460" y="823" on="1"/>
        <pt x="1460" y="678" on="1"/>
        <pt x="473" y="678" on="1"/>
        <pt x="473" y="1993" on="1"/>
        <pt x="618" y="1993" on="1"/>
        <pt x="618" y="823" on="1"/>
        <pt x="834" y="823" on="1"/>
      </contour>
    </TTGlyph>
    <TTGlyph name="SF500000" xMin="653" yMin="498" xMax="1460" yMax="1993">
      <contour>
        <pt x="653" y="1993" on="1"/>
        <pt x="799" y="1993" on="1"/>
        <pt x="799" y="1004" on="1"/>
        <pt x="1460" y="1004" on="1"/>
        <pt x="1460" y="858" on="1"/>
        <pt x="799" y="858" on="1"/>
        <pt x="799" y="643" on="1"/>
        <pt x="1460" y="643" on="1"/>
        <pt x="1460" y="498" on="1"/>
        <pt x="653" y="498" on="1"/>
      </contour>
    </TTGlyph>
    <TTGlyph name="SF510000" xMin="653" yMin="-492" xMax="1460" yMax="1004">
      <contour>
        <pt x="653" y="1004" on="1"/>
        <pt x="1460" y="1004" on="1"/>
        <pt x="1460" y="858" on="1"/>
        <pt x="799" y="858" on="1"/>
        <pt x="799" y="643" on="1"/>
        <pt x="1460" y="643" on="1"/>
        <pt x="1460" y="498" on="1"/>
        <pt x="799" y="498" on="1"/>
        <pt x="799" y="-492" on="1"/>
        <pt x="653" y="-492" on="1"/>
      </contour>
    </TTGlyph>
    <TTGlyph name="SF520000" xMin="473" yMin="-492" xMax="1460" yMax="823">
      <contour>
        <pt x="1460" y="823" on="1"/>
        <pt x="1460" y="678" on="1"/>
        <pt x="979" y="678" on="1"/>
        <pt x="979" y="-492" on="1"/>
        <pt x="834" y="-492" on="1"/>
        <pt x="834" y="678" on="1"/>
        <pt x="618" y="678" on="1"/>
        <pt x="618" y="-492" on="1"/>
        <pt x="473" y="-492" on="1"/>
        <pt x="473" y="823" on="1"/>
      </contour>
    </TTGlyph>
    <TTGlyph name="SF530000" xMin="-10" yMin="-492" xMax="1460" yMax="1993">
      <contour>
        <pt x="834" y="1993" on="1"/>
        <pt x="979" y="1993" on="1"/>
        <pt x="979" y="823" on="1"/>
        <pt x="1460" y="823" on="1"/>
        <pt x="1460" y="678" on="1"/>
        <pt x="979" y="678" on="1"/>
        <pt x="979" y="-492" on="1"/>
        <pt x="834" y="-492" on="1"/>
        <pt x="834" y="678" on="1"/>
        <pt x="618" y="678" on="1"/>
        <pt x="618" y="-492" on="1"/>
        <pt x="473" y="-492" on="1"/>
        <pt x="473" y="678" on="1"/>
        <pt x="-10" y="678" on="1"/>
        <pt x="-10" y="823" on="1"/>
        <pt x="473" y="823" on="1"/>
        <pt x="473" y="1993" on="1"/>
        <pt x="618" y="1993" on="1"/>
        <pt x="618" y="823" on="1"/>
        <pt x="834" y="823" on="1"/>
      </contour>
    </TTGlyph>
    <TTGlyph name="SF540000" xMin="-10" yMin="-492" xMax="1460" yMax="1993">
      <contour>
        <pt x="-10" y="498" on="1"/>
        <pt x="-10" y="643" on="1"/>
        <pt x="653" y="643" on="1"/>
        <pt x="653" y="858" on="1"/>
        <pt x="-10" y="858" on="1"/>
        <pt x="-10" y="1004" on="1"/>
        <pt x="653" y="1004" on="1"/>
        <pt x="653" y="1993" on="1"/>
        <pt x="799" y="1993" on="1"/>
        <pt x="799" y="1004" on="1"/>
        <pt x="1460" y="1004" on="1"/>
        <pt x="1460" y="858" on="1"/>
        <pt x="799" y="858" on="1"/>
        <pt x="799" y="643" on="1"/>
        <pt x="1460" y="643" on="1"/>
        <pt x="1460" y="498" on="1"/>
        <pt x="799" y="498" on="1"/>
        <pt x="799" y="-492" on="1"/>
        <pt x="653" y="-492" on="1"/>
        <pt x="653" y="498" on="1"/>
      </contour>
    </TTGlyph>
    <TTGlyph name="Sacute" xMin="41" yMin="-20" xMax="1144" yMax="1907">
      <component glyphName="S" x="0" y="0" flags="0x204"/>
      <component glyphName="acute" x="104" y="338" flags="0x4"/>
    </TTGlyph>
    <TTGlyph name="Scaron" xMin="41" yMin="-20" xMax="1171" yMax="1907">
      <component glyphName="S" x="0" y="0" flags="0x204"/>
      <component glyphName="caron" x="-15" y="338" flags="0x4"/>
    </TTGlyph>
    <TTGlyph name="Scedilla" xMin="41" yMin="-492" xMax="1110" yMax="1483">
      <component glyphName="S" x="0" y="0" flags="0x204"/>
      <component glyphName="cedilla" x="356" y="0" flags="0x4"/>
    </TTGlyph>
    <TTGlyph name="Scircumflex" xMin="41" yMin="-20" xMax="1124" yMax="1907">
      <component glyphName="S" x="0" y="0" flags="0x204"/>
      <component glyphName="circumflex" x="4" y="338" flags="0x4"/>
    </TTGlyph>
    <TTGlyph name="Scommaaccent" xMin="41" yMin="-453" xMax="1110" yMax="1483">
      <component glyphName="S" x="0" y="0" flags="0x204"/>
      <component glyphName="glyph00569" x="27" y="0" flags="0x4"/>
    </TTGlyph>
    <TTGlyph name="Sigma" xMin="-43" yMin="0" xMax="1182" yMax="1462">
      <contour>
        <pt x="-43" y="0" on="1"/>
        <pt x="6" y="242" on="1"/>
        <pt x="549" y="748" on="1"/>
        <pt x="227" y="1229" on="1"/>
        <pt x="276" y="1462" on="1"/>
        <pt x="1182" y="1462" on="1"/>
        <pt x="1128" y="1208" on="1"/>
        <pt x="569" y="1208" on="1"/>
        <pt x="887" y="727" on="1"/>
        <pt x="387" y="256" on="1"/>
        <pt x="983" y="256" on="1"/>
        <pt x="930" y="0" on="1"/>
      </contour>
    </TTGlyph>
    <TTGlyph name="T" xMin="168" yMin="0" xMax="1233" yMax="1462">
      <contour>
        <pt x="571" y="0" on="1"/>
        <pt x="266" y="0" on="1"/>
        <pt x="520" y="1204" on="1"/>
        <pt x="168" y="1204" on="1"/>
        <pt x="223" y="1462" on="1"/>
        <pt x="1233" y="1462" on="1"/>
        <pt x="1178" y="1204" on="1"/>
        <pt x="825" y="1204" on="1"/>
      </contour>
    </TTGlyph>
    <TTGlyph name="Tau" xMin="168" yMin="0" xMax="1233" yMax="1462">
      <component glyphName="T" x="0" y="0" flags="0x204"/>
    </TTGlyph>
    <TTGlyph name="Tbar" xMin="166" yMin="0" xMax="1233" yMax="1462">
      <contour>
        <pt x="750" y="850" on="1"/>
        <pt x="985" y="850" on="1"/>
        <pt x="930" y="596" on="1"/>
        <pt x="696" y="596" on="1"/>
        <pt x="571" y="0" on="1"/>
        <pt x="266" y="0" on="1"/>
        <pt x="391" y="596" on="1"/>
        <pt x="166" y="596" on="1"/>
        <pt x="221" y="850" on="1"/>
        <pt x="444" y="850" on="1"/>
        <pt x="520" y="1204" on="1"/>
        <pt x="168" y="1204" on="1"/>
        <pt x="223" y="1462" on="1"/>
        <pt x="1233" y="1462" on="1"/>
        <pt x="1178" y="1204" on="1"/>
        <pt x="825" y="1204" on="1"/>
      </contour>
    </TTGlyph>
    <TTGlyph name="Tcaron" xMin="168" yMin="0" xMax="1233" yMax="1907">
      <component glyphName="T" x="0" y="0" flags="0x204"/>
      <component glyphName="caron" x="20" y="338" flags="0x4"/>
    </TTGlyph>
    <TTGlyph name="Tcommaaccent" xMin="141" yMin="-492" xMax="1233" yMax="1462">
      <component glyphName="T" x="0" y="0" flags="0x204"/>
      <component glyphName="cedilla" x="348" y="0" flags="0x4"/>
    </TTGlyph>
    <TTGlyph name="Theta" xMin="123" yMin="-20" xMax="1456" yMax="1485">
      <contour>
        <pt x="1040" y="870" on="1"/>
        <pt x="987" y="616" on="1"/>
        <pt x="543" y="616" on="1"/>
        <pt x="596" y="870" on="1"/>
      </contour>
      <contour>
        <pt x="1456" y="903" on="1"/>
        <pt x="1456" y="633" on="0"/>
        <pt x="1270" y="207" on="0"/>
        <pt x="923" y="-20" on="0"/>
        <pt x="692" y="-20" on="1"/>
        <pt x="424" y="-20" on="0"/>
        <pt x="123" y="287" on="0"/>
        <pt x="123" y="555" on="1"/>
        <pt x="123" y="826" on="0"/>
        <pt x="324" y="1260" on="0"/>
        <pt x="675" y="1485" on="0"/>
        <pt x="903" y="1485" on="1"/>
        <pt x="1166" y="1485" on="0"/>
        <pt x="1456" y="1178" on="0"/>
      </contour>
      <contour>
        <pt x="885" y="1227" on="1"/>
        <pt x="753" y="1227" on="0"/>
        <pt x="549" y="1059" on="0"/>
        <pt x="434" y="737" on="0"/>
        <pt x="434" y="547" on="1"/>
        <pt x="434" y="405" on="0"/>
        <pt x="580" y="240" on="0"/>
        <pt x="705" y="240" on="1"/>
        <pt x="841" y="240" on="0"/>
        <pt x="1039" y="409" on="0"/>
        <pt x="1145" y="721" on="0"/>
        <pt x="1145" y="918" on="1"/>
        <pt x="1145" y="1060" on="0"/>
        <pt x="1006" y="1227" on="0"/>
      </contour>
    </TTGlyph>
    <TTGlyph name="Thorn" xMin="53" yMin="0" xMax="1192" yMax="1462">
      <contour>
        <pt x="1192" y="807" on="1"/>
        <pt x="1192" y="564" on="0"/>
        <pt x="851" y="293" on="0"/>
        <pt x="555" y="293" on="1"/>
        <pt x="420" y="293" on="1"/>
        <pt x="358" y="0" on="1"/>
        <pt x="53" y="0" on="1"/>
        <pt x="362" y="1462" on="1"/>
        <pt x="668" y="1462" on="1"/>
        <pt x="618" y="1233" on="1"/>
        <pt x="702" y="1233" on="1"/>
        <pt x="944" y="1233" on="0"/>
        <pt x="1192" y="1020" on="0"/>
      </contour>
      <contour>
        <pt x="475" y="547" on="1"/>
        <pt x="580" y="547" on="1"/>
        <pt x="720" y="547" on="0"/>
        <pt x="885" y="682" on="0"/>
        <pt x="885" y="799" on="1"/>
        <pt x="885" y="979" on="0"/>
        <pt x="690" y="979" on="1"/>
        <pt x="567" y="979" on="1"/>
      </contour>
    </TTGlyph>
    <TTGlyph name="U" xMin="141" yMin="-20" xMax="1434" yMax="1462">
      <contour>
        <pt x="1434" y="1462" on="1"/>
        <pt x="1233" y="516" on="1"/>
        <pt x="1176" y="250" on="0"/>
        <pt x="854" y="-20" on="0"/>
        <pt x="596" y="-20" on="1"/>
        <pt x="384" y="-20" on="0"/>
        <pt x="141" y="207" on="0"/>
        <pt x="141" y="401" on="1"/>
        <pt x="141" y="473" on="0"/>
        <pt x="156" y="539" on="1"/>
        <pt x="352" y="1462" on="1"/>
        <pt x="657" y="1462" on="1"/>
        <pt x="463" y="543" on="1"/>
        <pt x="446" y="469" on="0"/>
        <pt x="446" y="418" on="1"/>
        <pt x="446" y="240" on="0"/>
        <pt x="635" y="240" on="1"/>
        <pt x="758" y="240" on="0"/>
        <pt x="902" y="393" on="0"/>
        <pt x="934" y="545" on="1"/>
        <pt x="1128" y="1462" on="1"/>
      </contour>
    </TTGlyph>
    <TTGlyph name="Uacute" xMin="141" yMin="-20" xMax="1434" yMax="1907">
      <component glyphName="U" x="0" y="0" flags="0x204"/>
      <component glyphName="acute" x="274" y="338" flags="0x4"/>
    </TTGlyph>
    <TTGlyph name="Ubreve" xMin="141" yMin="-20" xMax="1434" yMax="1917">
      <component glyphName="U" x="0" y="0" flags="0x204"/>
      <component glyphName="breve" x="162" y="338" flags="0x4"/>
    </TTGlyph>
    <TTGlyph name="Ucircumflex" xMin="141" yMin="-20" xMax="1434" yMax="1907">
      <component glyphName="U" x="0" y="0" flags="0x204"/>
      <component glyphName="circumflex" x="164" y="338" flags="0x4"/>
    </TTGlyph>
    <TTGlyph name="Udieresis" xMin="141" yMin="-20" xMax="1434" yMax="1878">
      <component glyphName="U" x="0" y="0" flags="0x204"/>
      <component glyphName="dieresis" x="168" y="338" flags="0x4"/>
    </TTGlyph>
    <TTGlyph name="Ugrave" xMin="141" yMin="-20" xMax="1434" yMax="1907">
      <component glyphName="U" x="0" y="0" flags="0x204"/>
      <component glyphName="grave" x="68" y="338" flags="0x4"/>
    </TTGlyph>
    <TTGlyph name="Uhorn" xMin="141" yMin="-20" xMax="1888" yMax="1556">
      <contour>
        <pt x="1434" y="1462" on="1"/>
        <pt x="1395" y="1278" on="1"/>
        <pt x="1471" y="1302" on="0"/>
        <pt x="1555" y="1427" on="0"/>
        <pt x="1575" y="1556" on="1"/>
        <pt x="1878" y="1556" on="1"/>
        <pt x="1888" y="1532" on="1"/>
        <pt x="1828" y="1328" on="0"/>
        <pt x="1554" y="1103" on="0"/>
        <pt x="1354" y="1090" on="1"/>
        <pt x="1233" y="516" on="1"/>
        <pt x="1176" y="250" on="0"/>
        <pt x="854" y="-20" on="0"/>
        <pt x="596" y="-20" on="1"/>
        <pt x="384" y="-20" on="0"/>
        <pt x="141" y="207" on="0"/>
        <pt x="141" y="401" on="1"/>
        <pt x="141" y="473" on="0"/>
        <pt x="156" y="539" on="1"/>
        <pt x="352" y="1462" on="1"/>
        <pt x="657" y="1462" on="1"/>
        <pt x="463" y="543" on="1"/>
        <pt x="446" y="469" on="0"/>
        <pt x="446" y="418" on="1"/>
        <pt x="446" y="240" on="0"/>
        <pt x="635" y="240" on="1"/>
        <pt x="758" y="240" on="0"/>
        <pt x="902" y="393" on="0"/>
        <pt x="934" y="545" on="1"/>
        <pt x="1128" y="1462" on="1"/>
      </contour>
    </TTGlyph>
    <TTGlyph name="Uhungarumlaut" xMin="141" yMin="-20" xMax="1531" yMax="1907">
      <component glyphName="U" x="0" y="0" flags="0x204"/>
      <component glyphName="hungarumlaut" x="319" y="338" flags="0x4"/>
    </TTGlyph>
    <TTGlyph name="Umacron" xMin="141" yMin="-20" xMax="1434" yMax="1790">
      <component glyphName="U" x="0" y="0" flags="0x204"/>
      <component glyphName="uni02C9" x="217" y="338" flags="0x4"/>
    </TTGlyph>
    <TTGlyph name="Uogonek" xMin="141" yMin="-492" xMax="1434" yMax="1462">
      <component glyphName="U" x="0" y="0" flags="0x204"/>
      <component glyphName="ogonek" x="535" y="0" flags="0x4"/>
    </TTGlyph>
    <TTGlyph name="Upsilon" xMin="186" yMin="0" xMax="1343" yMax="1462">
      <component glyphName="Y" x="0" y="0" flags="0x204"/>
    </TTGlyph>
    <TTGlyph name="Upsilon1" xMin="184" yMin="0" xMax="1352" yMax="1475">
      <contour>
        <pt x="625" y="870" on="1"/>
        <pt x="692" y="993" on="1"/>
        <pt x="849" y="1280" on="0"/>
        <pt x="1058" y="1475" on="0"/>
        <pt x="1190" y="1475" on="1"/>
        <pt x="1273" y="1475" on="0"/>
        <pt x="1352" y="1448" on="1"/>
        <pt x="1296" y="1217" on="1"/>
        <pt x="1265" y="1231" on="0"/>
        <pt x="1227" y="1231" on="1"/>
        <pt x="1168" y="1231" on="0"/>
        <pt x="1104" y="1151" on="1"/>
        <pt x="968" y="983" on="0"/>
        <pt x="721" y="549" on="1"/>
        <pt x="604" y="0" on="1"/>
        <pt x="301" y="0" on="1"/>
        <pt x="420" y="559" on="1"/>
        <pt x="184" y="1462" on="1"/>
        <pt x="496" y="1462" on="1"/>
      </contour>
    </TTGlyph>
    <TTGlyph name="Upsilondieresis" xMin="186" yMin="0" xMax="1343" yMax="1878">
      <component glyphName="Y" x="0" y="0" flags="0x204"/>
      <component glyphName="dieresis" x="35" y="338" flags="0x4"/>
    </TTGlyph>
    <TTGlyph name="Upsilontonos" xMin="34" yMin="0" xMax="1654" yMax="1525">
      <component glyphName="Y" x="311" y="0" flags="0x4"/>
      <component glyphName="tonos" x="-531" y="-105" flags="0x4"/>
    </TTGlyph>
    <TTGlyph name="Uring" xMin="141" yMin="-20" xMax="1434" yMax="2052">
      <component glyphName="U" x="0" y="0" flags="0x204"/>
      <component glyphName="ring" x="160" y="338" flags="0x4"/>
    </TTGlyph>
    <TTGlyph name="Utilde" xMin="141" yMin="-20" xMax="1434" yMax="1888">
      <component glyphName="U" x="0" y="0" flags="0x204"/>
      <component glyphName="tilde" x="205" y="338" flags="0x4"/>
    </TTGlyph>
    <TTGlyph name="V" xMin="184" yMin="0" xMax="1393" yMax="1462">
      <contour>
        <pt x="537" y="299" on="1"/>
        <pt x="564" y="377" on="1"/>
        <pt x="615" y="525" on="0"/>
        <pt x="645" y="582" on="1"/>
        <pt x="1077" y="1462" on="1"/>
        <pt x="1393" y="1462" on="1"/>
        <pt x="645" y="0" on="1"/>
        <pt x="311" y="0" on="1"/>
        <pt x="184" y="1462" on="1"/>
        <pt x="479" y="1462" on="1"/>
        <pt x="530" y="582" on="1"/>
        <pt x="532" y="529" on="1"/>
        <pt x="532" y="465" on="1"/>
        <pt x="532" y="350" on="0"/>
        <pt x="528" y="299" on="1"/>
      </contour>
    </TTGlyph>
    <TTGlyph name="W" xMin="184" yMin="0" xMax="2023" yMax="1462">
      <contour>
        <pt x="1004" y="1018" on="1"/>
        <pt x="952" y="855" on="0"/>
        <pt x="891" y="719" on="1"/>
        <pt x="567" y="0" on="1"/>
        <pt x="229" y="0" on="1"/>
        <pt x="184" y="1462" on="1"/>
        <pt x="471" y="1462" on="1"/>
        <pt x="477" y="664" on="1"/>
        <pt x="477" y="612" on="0"/>
        <pt x="469" y="370" on="0"/>
        <pt x="463" y="317" on="1"/>
        <pt x="471" y="317" on="1"/>
        <pt x="504" y="410" on="0"/>
        <pt x="585" y="620" on="0"/>
        <pt x="596" y="643" on="1"/>
        <pt x="965" y="1462" on="1"/>
        <pt x="1235" y="1462" on="1"/>
        <pt x="1256" y="589" on="1"/>
        <pt x="1256" y="443" on="0"/>
        <pt x="1247" y="317" on="1"/>
        <pt x="1255" y="317" on="1"/>
        <pt x="1308" y="476" on="0"/>
        <pt x="1384" y="666" on="1"/>
        <pt x="1714" y="1462" on="1"/>
        <pt x="2023" y="1462" on="1"/>
        <pt x="1376" y="0" on="1"/>
        <pt x="1030" y="0" on="1"/>
        <pt x="1008" y="721" on="1"/>
        <pt x="1006" y="834" on="1"/>
        <pt x="1006" y="928" on="0"/>
        <pt x="1012" y="1018" on="1"/>
      </contour>
    </TTGlyph>
    <TTGlyph name="Wacute" xMin="184" yMin="0" xMax="2023" yMax="1907">
      <component glyphName="W" x="0" y="0" flags="0x204"/>
      <component glyphName="acute" x="471" y="338" flags="0x4"/>
    </TTGlyph>
    <TTGlyph name="Wcircumflex" xMin="184" yMin="0" xMax="2023" yMax="1907">
      <component glyphName="W" x="0" y="0" flags="0x204"/>
      <component glyphName="circumflex" x="399" y="338" flags="0x4"/>
    </TTGlyph>
    <TTGlyph name="Wdieresis" xMin="184" yMin="0" xMax="2023" yMax="1878">
      <component glyphName="W" x="0" y="0" flags="0x204"/>
      <component glyphName="dieresis" x="381" y="338" flags="0x4"/>
    </TTGlyph>
    <TTGlyph name="Wgrave" xMin="184" yMin="0" xMax="2023" yMax="1907">
      <component glyphName="W" x="0" y="0" flags="0x204"/>
      <component glyphName="grave" x="293" y="338" flags="0x4"/>
    </TTGlyph>
    <TTGlyph name="X" xMin="-117" yMin="0" xMax="1401" yMax="1462">
      <contour>
        <pt x="1124" y="0" on="1"/>
        <pt x="793" y="0" on="1"/>
        <pt x="621" y="543" on="1"/>
        <pt x="225" y="0" on="1"/>
        <pt x="-117" y="0" on="1"/>
        <pt x="459" y="764" on="1"/>
        <pt x="221" y="1462" on="1"/>
        <pt x="541" y="1462" on="1"/>
        <pt x="694" y="944" on="1"/>
        <pt x="1057" y="1462" on="1"/>
        <pt x="1401" y="1462" on="1"/>
        <pt x="856" y="737" on="1"/>
      </contour>
    </TTGlyph>
    <TTGlyph name="Xi" xMin="-43" yMin="0" xMax="1128" yMax="1462">
      <contour>
        <pt x="262" y="887" on="1"/>
        <pt x="930" y="887" on="1"/>
        <pt x="874" y="633" on="1"/>
        <pt x="207" y="633" on="1"/>
      </contour>
      <contour>
        <pt x="305" y="1462" on="1"/>
        <pt x="1128" y="1462" on="1"/>
        <pt x="1075" y="1208" on="1"/>
        <pt x="252" y="1208" on="1"/>
      </contour>
      <contour>
        <pt x="911" y="256" on="1"/>
        <pt x="858" y="0" on="1"/>
        <pt x="-43" y="0" on="1"/>
        <pt x="8" y="256" on="1"/>
      </contour>
    </TTGlyph>
    <TTGlyph name="Y" xMin="186" yMin="0" xMax="1343" yMax="1462">
      <contour>
        <pt x="627" y="870" on="1"/>
        <pt x="1001" y="1462" on="1"/>
        <pt x="1343" y="1462" on="1"/>
        <pt x="725" y="559" on="1"/>
        <pt x="606" y="0" on="1"/>
        <pt x="303" y="0" on="1"/>
        <pt x="422" y="559" on="1"/>
        <pt x="186" y="1462" on="1"/>
        <pt x="498" y="1462" on="1"/>
      </contour>
    </TTGlyph>
    <TTGlyph name="Yacute" xMin="186" yMin="0" xMax="1343" yMax="1907">
      <component glyphName="Y" x="0" y="0" flags="0x204"/>
      <component glyphName="acute" x="123" y="338" flags="0x4"/>
    </TTGlyph>
    <TTGlyph name="Ycircumflex" xMin="186" yMin="0" xMax="1343" yMax="1907">
      <component glyphName="Y" x="0" y="0" flags="0x204"/>
      <component glyphName="circumflex" x="31" y="338" flags="0x4"/>
    </TTGlyph>
    <TTGlyph name="Ydieresis" xMin="186" yMin="0" xMax="1343" yMax="1878">
      <component glyphName="Y" x="0" y="0" flags="0x204"/>
      <component glyphName="dieresis" x="35" y="338" flags="0x4"/>
    </TTGlyph>
    <TTGlyph name="Ygrave" xMin="186" yMin="0" xMax="1343" yMax="1907">
      <component glyphName="Y" x="0" y="0" flags="0x204"/>
      <component glyphName="grave" x="-69" y="338" flags="0x4"/>
    </TTGlyph>
    <TTGlyph name="Z" xMin="-61" yMin="0" xMax="1200" yMax="1462">
      <contour>
        <pt x="920" y="0" on="1"/>
        <pt x="-61" y="0" on="1"/>
        <pt x="-23" y="201" on="1"/>
        <pt x="754" y="1206" on="1"/>
        <pt x="211" y="1206" on="1"/>
        <pt x="264" y="1462" on="1"/>
        <pt x="1200" y="1462" on="1"/>
        <pt x="1159" y="1260" on="1"/>
        <pt x="377" y="256" on="1"/>
        <pt x="973" y="256" on="1"/>
      </contour>
    </TTGlyph>
    <TTGlyph name="Zacute" xMin="-61" yMin="0" xMax="1200" yMax="1907">
      <component glyphName="Z" x="0" y="0" flags="0x204"/>
      <component glyphName="acute" x="106" y="338" flags="0x4"/>
    </TTGlyph>
    <TTGlyph name="Zcaron" xMin="-61" yMin="0" xMax="1200" yMax="1907">
      <component glyphName="Z" x="0" y="0" flags="0x204"/>
      <component glyphName="caron" x="10" y="338" flags="0x4"/>
    </TTGlyph>
    <TTGlyph name="Zdotaccent" xMin="-61" yMin="0" xMax="1200" yMax="1894">
      <component glyphName="Z" x="0" y="0" flags="0x204"/>
      <component glyphName="dotaccent" x="272" y="338" flags="0x4"/>
    </TTGlyph>
    <TTGlyph name="Zeta" xMin="-61" yMin="0" xMax="1200" yMax="1462">
      <component glyphName="Z" x="0" y="0" flags="0x204"/>
    </TTGlyph>
    <TTGlyph name="a" xMin="90" yMin="-20" xMax="1182" yMax="1139">
      <contour>
        <pt x="406" y="-20" on="1"/>
        <pt x="259" y="-20" on="0"/>
        <pt x="90" y="193" on="0"/>
        <pt x="90" y="385" on="1"/>
        <pt x="90" y="583" on="0"/>
        <pt x="234" y="942" on="0"/>
        <pt x="468" y="1139" on="0"/>
        <pt x="608" y="1139" on="1"/>
        <pt x="705" y="1139" on="0"/>
        <pt x="846" y="1055" on="0"/>
        <pt x="885" y="975" on="1"/>
        <pt x="893" y="975" on="1"/>
        <pt x="950" y="1118" on="1"/>
        <pt x="1182" y="1118" on="1"/>
        <pt x="944" y="0" on="1"/>
        <pt x="719" y="0" on="1"/>
        <pt x="733" y="145" on="1"/>
        <pt x="725" y="145" on="1"/>
        <pt x="591" y="-20" on="0"/>
      </contour>
      <contour>
        <pt x="524" y="223" on="1"/>
        <pt x="593" y="223" on="0"/>
        <pt x="721" y="357" on="0"/>
        <pt x="799" y="586" on="0"/>
        <pt x="799" y="731" on="1"/>
        <pt x="799" y="802" on="0"/>
        <pt x="722" y="895" on="0"/>
        <pt x="659" y="895" on="1"/>
        <pt x="591" y="895" on="0"/>
        <pt x="468" y="751" on="0"/>
        <pt x="395" y="515" on="0"/>
        <pt x="395" y="399" on="1"/>
        <pt x="395" y="311" on="0"/>
        <pt x="462" y="223" on="0"/>
      </contour>
    </TTGlyph>
    <TTGlyph name="aacute" xMin="90" yMin="-20" xMax="1182" yMax="1569">
      <component glyphName="a" x="0" y="0" flags="0x204"/>
      <component glyphName="acute" x="115" y="0" flags="0x4"/>
    </TTGlyph>
    <TTGlyph name="abreve" xMin="90" yMin="-20" xMax="1182" yMax="1579">
      <component glyphName="a" x="0" y="0" flags="0x204"/>
      <component glyphName="breve" x="-17" y="0" flags="0x4"/>
    </TTGlyph>
    <TTGlyph name="acircumflex" xMin="90" yMin="-20" xMax="1182" yMax="1569">
      <component glyphName="a" x="0" y="0" flags="0x204"/>
      <component glyphName="circumflex" x="0" y="0" flags="0x4"/>
    </TTGlyph>
    <TTGlyph name="acute" xMin="483" yMin="1241" xMax="1040" yMax="1569">
      <contour>
        <pt x="483" y="1266" on="1"/>
        <pt x="562" y="1354" on="0"/>
        <pt x="705" y="1569" on="1"/>
        <pt x="1040" y="1569" on="1"/>
        <pt x="1040" y="1552" on="1"/>
        <pt x="994" y="1496" on="0"/>
        <pt x="778" y="1303" on="0"/>
        <pt x="692" y="1241" on="1"/>
        <pt x="483" y="1241" on="1"/>
      </contour>
    </TTGlyph>
    <TTGlyph name="acutecomb" xMin="-593" yMin="1241" xMax="-36" yMax="1569">
      <component glyphName="acute" x="-1076" y="0" flags="0x4"/>
    </TTGlyph>
    <TTGlyph name="adieresis" xMin="90" yMin="-20" xMax="1182" yMax="1540">
      <component glyphName="a" x="0" y="0" flags="0x204"/>
      <component glyphName="dieresis" x="0" y="0" flags="0x4"/>
    </TTGlyph>
    <TTGlyph name="ae" xMin="90" yMin="-20" xMax="1735" yMax="1139">
      <contour>
        <pt x="1206" y="-20" on="1"/>
        <pt x="1097" y="-20" on="0"/>
        <pt x="956" y="34" on="0"/>
        <pt x="909" y="94" on="1"/>
        <pt x="893" y="0" on="1"/>
        <pt x="705" y="0" on="1"/>
        <pt x="719" y="145" on="1"/>
        <pt x="709" y="145" on="1"/>
        <pt x="635" y="53" on="0"/>
        <pt x="487" y="-20" on="0"/>
        <pt x="399" y="-20" on="1"/>
        <pt x="253" y="-20" on="0"/>
        <pt x="90" y="198" on="0"/>
        <pt x="90" y="385" on="1"/>
        <pt x="90" y="585" on="0"/>
        <pt x="227" y="936" on="0"/>
        <pt x="460" y="1139" on="0"/>
        <pt x="602" y="1139" on="1"/>
        <pt x="695" y="1139" on="0"/>
        <pt x="821" y="1064" on="0"/>
        <pt x="872" y="975" on="1"/>
        <pt x="883" y="975" on="1"/>
        <pt x="940" y="1118" on="1"/>
        <pt x="1128" y="1118" on="1"/>
        <pt x="1110" y="1028" on="1"/>
        <pt x="1154" y="1077" on="0"/>
        <pt x="1307" y="1139" on="0"/>
        <pt x="1399" y="1139" on="1"/>
        <pt x="1556" y="1139" on="0"/>
        <pt x="1735" y="972" on="0"/>
        <pt x="1735" y="834" on="1"/>
        <pt x="1735" y="647" on="0"/>
        <pt x="1401" y="444" on="0"/>
        <pt x="1092" y="444" on="1"/>
        <pt x="1040" y="444" on="1"/>
        <pt x="1038" y="425" on="1"/>
        <pt x="1038" y="406" on="1"/>
        <pt x="1038" y="310" on="0"/>
        <pt x="1149" y="207" on="0"/>
        <pt x="1253" y="207" on="1"/>
        <pt x="1319" y="207" on="0"/>
        <pt x="1491" y="253" on="0"/>
        <pt x="1567" y="293" on="1"/>
        <pt x="1567" y="66" on="1"/>
        <pt x="1388" y="-20" on="0"/>
      </contour>
      <contour>
        <pt x="518" y="223" on="1"/>
        <pt x="590" y="223" on="0"/>
        <pt x="715" y="362" on="0"/>
        <pt x="788" y="596" on="0"/>
        <pt x="788" y="719" on="1"/>
        <pt x="788" y="799" on="0"/>
        <pt x="722" y="895" on="0"/>
        <pt x="653" y="895" on="1"/>
        <pt x="585" y="895" on="0"/>
        <pt x="465" y="757" on="0"/>
        <pt x="395" y="524" on="0"/>
        <pt x="395" y="399" on="1"/>
        <pt x="395" y="315" on="0"/>
        <pt x="460" y="223" on="0"/>
      </contour>
      <contour>
        <pt x="1341" y="922" on="1"/>
        <pt x="1253" y="922" on="0"/>
        <pt x="1097" y="762" on="0"/>
        <pt x="1073" y="647" on="1"/>
        <pt x="1118" y="647" on="1"/>
        <pt x="1273" y="647" on="0"/>
        <pt x="1446" y="744" on="0"/>
        <pt x="1446" y="827" on="1"/>
        <pt x="1446" y="922" on="0"/>
      </contour>
    </TTGlyph>
    <TTGlyph name="aeacute" xMin="90" yMin="-20" xMax="1735" yMax="1569">
      <component glyphName="ae" x="0" y="0" flags="0x204"/>
      <component glyphName="acute" x="465" y="0" flags="0x4"/>
    </TTGlyph>
    <TTGlyph name="afii00208" xMin="41" yMin="436" xMax="1925" yMax="666">
      <component glyphName="emdash" x="0" y="0" flags="0x204"/>
    </TTGlyph>
    <TTGlyph name="afii10017" xMin="-123" yMin="0" xMax="1163" yMax="1468">
      <component glyphName="A" x="0" y="0" flags="0x204"/>
    </TTGlyph>
    <TTGlyph name="afii10018" xMin="53" yMin="0" xMax="1184" yMax="1462">
      <contour>
        <pt x="612" y="901" on="1"/>
        <pt x="850" y="901" on="0"/>
        <pt x="1102" y="692" on="0"/>
        <pt x="1102" y="492" on="1"/>
        <pt x="1102" y="255" on="0"/>
        <pt x="786" y="0" on="0"/>
        <pt x="487" y="0" on="1"/>
        <pt x="53" y="0" on="1"/>
        <pt x="362" y="1462" on="1"/>
        <pt x="1184" y="1462" on="1"/>
        <pt x="1130" y="1208" on="1"/>
        <pt x="610" y="1208" on="1"/>
        <pt x="545" y="901" on="1"/>
      </contour>
      <contour>
        <pt x="508" y="254" on="1"/>
        <pt x="647" y="254" on="0"/>
        <pt x="793" y="371" on="0"/>
        <pt x="793" y="477" on="1"/>
        <pt x="793" y="647" on="0"/>
        <pt x="600" y="647" on="1"/>
        <pt x="492" y="647" on="1"/>
        <pt x="408" y="254" on="1"/>
      </contour>
    </TTGlyph>
    <TTGlyph name="afii10019" xMin="53" yMin="0" xMax="1251" yMax="1462">
      <component glyphName="B" x="0" y="0" flags="0x204"/>
    </TTGlyph>
    <TTGlyph name="afii10020" xMin="53" yMin="0" xMax="1176" yMax="1462">
      <component glyphName="Gamma" x="0" y="0" flags="0x204"/>
    </TTGlyph>
    <TTGlyph name="afii10021" xMin="-197" yMin="-426" xMax="1407" yMax="1462">
      <contour>
        <pt x="-53" y="258" on="1"/>
        <pt x="76" y="258" on="1"/>
        <pt x="247" y="505" on="0"/>
        <pt x="520" y="1095" on="0"/>
        <pt x="641" y="1462" on="1"/>
        <pt x="1407" y="1462" on="1"/>
        <pt x="1151" y="258" on="1"/>
        <pt x="1337" y="258" on="1"/>
        <pt x="1192" y="-426" on="1"/>
        <pt x="889" y="-426" on="1"/>
        <pt x="981" y="0" on="1"/>
        <pt x="197" y="0" on="1"/>
        <pt x="104" y="-426" on="1"/>
        <pt x="-197" y="-426" on="1"/>
      </contour>
      <contour>
        <pt x="840" y="1204" on="1"/>
        <pt x="625" y="588" on="0"/>
        <pt x="414" y="258" on="1"/>
        <pt x="838" y="258" on="1"/>
        <pt x="1040" y="1204" on="1"/>
      </contour>
    </TTGlyph>
    <TTGlyph name="afii10022" xMin="53" yMin="0" xMax="1180" yMax="1462">
      <component glyphName="E" x="0" y="0" flags="0x204"/>
    </TTGlyph>
    <TTGlyph name="afii10023" xMin="53" yMin="0" xMax="1180" yMax="1878">
      <component glyphName="E" x="0" y="0" flags="0x204"/>
      <component glyphName="dieresis" x="59" y="338" flags="0x4"/>
    </TTGlyph>
    <TTGlyph name="afii10024" xMin="-125" yMin="0" xMax="1942" yMax="1462">
      <contour>
        <pt x="494" y="780" on="1"/>
        <pt x="215" y="1462" on="1"/>
        <pt x="518" y="1462" on="1"/>
        <pt x="784" y="778" on="1"/>
        <pt x="930" y="1462" on="1"/>
        <pt x="1223" y="1462" on="1"/>
        <pt x="1077" y="778" on="1"/>
        <pt x="1614" y="1462" on="1"/>
        <pt x="1942" y="1462" on="1"/>
        <pt x="1360" y="739" on="1"/>
        <pt x="1655" y="0" on="1"/>
        <pt x="1339" y="0" on="1"/>
        <pt x="1065" y="719" on="1"/>
        <pt x="913" y="0" on="1"/>
        <pt x="621" y="0" on="1"/>
        <pt x="772" y="717" on="1"/>
        <pt x="217" y="0" on="1"/>
        <pt x="-125" y="0" on="1"/>
      </contour>
    </TTGlyph>
    <TTGlyph name="afii10025" xMin="41" yMin="-20" xMax="1200" yMax="1483">
      <contour>
        <pt x="1200" y="1143" on="1"/>
        <pt x="1200" y="974" on="0"/>
        <pt x="981" y="783" on="0"/>
        <pt x="784" y="770" on="1"/>
        <pt x="784" y="762" on="1"/>
        <pt x="927" y="745" on="0"/>
        <pt x="1094" y="577" on="0"/>
        <pt x="1094" y="446" on="1"/>
        <pt x="1094" y="222" on="0"/>
        <pt x="772" y="-20" on="0"/>
        <pt x="465" y="-20" on="1"/>
        <pt x="326" y="-20" on="0"/>
        <pt x="119" y="16" on="0"/>
        <pt x="41" y="59" on="1"/>
        <pt x="41" y="322" on="1"/>
        <pt x="223" y="223" on="0"/>
        <pt x="440" y="223" on="1"/>
        <pt x="610" y="223" on="0"/>
        <pt x="782" y="344" on="0"/>
        <pt x="782" y="459" on="1"/>
        <pt x="782" y="552" on="0"/>
        <pt x="628" y="639" on="0"/>
        <pt x="463" y="639" on="1"/>
        <pt x="322" y="639" on="1"/>
        <pt x="373" y="881" on="1"/>
        <pt x="500" y="881" on="1"/>
        <pt x="883" y="881" on="0"/>
        <pt x="883" y="1081" on="1"/>
        <pt x="883" y="1153" on="0"/>
        <pt x="788" y="1235" on="0"/>
        <pt x="694" y="1235" on="1"/>
        <pt x="524" y="1235" on="0"/>
        <pt x="334" y="1112" on="1"/>
        <pt x="225" y="1321" on="1"/>
        <pt x="368" y="1412" on="0"/>
        <pt x="619" y="1483" on="0"/>
        <pt x="770" y="1483" on="1"/>
        <pt x="893" y="1483" on="0"/>
        <pt x="1091" y="1395" on="0"/>
        <pt x="1200" y="1239" on="0"/>
      </contour>
    </TTGlyph>
    <TTGlyph name="afii10026" xMin="53" yMin="0" xMax="1556" yMax="1462">
      <contour>
        <pt x="422" y="418" on="1"/>
        <pt x="1186" y="1462" on="1"/>
        <pt x="1556" y="1462" on="1"/>
        <pt x="1247" y="0" on="1"/>
        <pt x="971" y="0" on="1"/>
        <pt x="1065" y="446" on="0"/>
        <pt x="1165" y="918" on="0"/>
        <pt x="1200" y="1061" on="1"/>
        <pt x="1192" y="1063" on="1"/>
        <pt x="428" y="0" on="1"/>
        <pt x="53" y="0" on="1"/>
        <pt x="362" y="1462" on="1"/>
        <pt x="643" y="1462" on="1"/>
        <pt x="496" y="770" on="1"/>
        <pt x="431" y="488" on="0"/>
        <pt x="412" y="418" on="1"/>
      </contour>
    </TTGlyph>
    <TTGlyph name="afii10027" xMin="53" yMin="0" xMax="1556" yMax="1937">
      <component glyphName="afii10026" x="0" y="0" flags="0x204"/>
      <component glyphName="glyph00566" x="225" y="338" flags="0x4"/>
    </TTGlyph>
    <TTGlyph name="afii10028" xMin="53" yMin="0" xMax="1407" yMax="1462">
      <contour>
        <pt x="1120" y="0" on="1"/>
        <pt x="782" y="0" on="1"/>
        <pt x="510" y="719" on="1"/>
        <pt x="358" y="0" on="1"/>
        <pt x="53" y="0" on="1"/>
        <pt x="362" y="1462" on="1"/>
        <pt x="668" y="1462" on="1"/>
        <pt x="522" y="778" on="1"/>
        <pt x="1063" y="1462" on="1"/>
        <pt x="1407" y="1462" on="1"/>
        <pt x="825" y="739" on="1"/>
      </contour>
    </TTGlyph>
    <TTGlyph name="afii10029" xMin="-61" yMin="-20" xMax="1434" yMax="1462">
      <contour>
        <pt x="803" y="1204" on="1"/>
        <pt x="724" y="884" on="0"/>
        <pt x="560" y="370" on="0"/>
        <pt x="413" y="97" on="0"/>
        <pt x="232" y="-20" on="0"/>
        <pt x="82" y="-20" on="1"/>
        <pt x="2" y="-20" on="0"/>
        <pt x="-61" y="4" on="1"/>
        <pt x="-61" y="258" on="1"/>
        <pt x="-8" y="238" on="0"/>
        <pt x="39" y="238" on="1"/>
        <pt x="104" y="238" on="0"/>
        <pt x="188" y="301" on="0"/>
        <pt x="268" y="441" on="0"/>
        <pt x="373" y="736" on="0"/>
        <pt x="502" y="1184" on="0"/>
        <pt x="573" y="1462" on="1"/>
        <pt x="1434" y="1462" on="1"/>
        <pt x="1122" y="0" on="1"/>
        <pt x="819" y="0" on="1"/>
        <pt x="1075" y="1204" on="1"/>
      </contour>
    </TTGlyph>
    <TTGlyph name="afii10030" xMin="53" yMin="0" xMax="1812" yMax="1462">
      <component glyphName="M" x="0" y="0" flags="0x204"/>
    </TTGlyph>
    <TTGlyph name="afii10031" xMin="53" yMin="0" xMax="1444" yMax="1462">
      <component glyphName="H" x="0" y="0" flags="0x204"/>
    </TTGlyph>
    <TTGlyph name="afii10032" xMin="123" yMin="-20" xMax="1432" yMax="1485">
      <component glyphName="O" x="0" y="0" flags="0x204"/>
    </TTGlyph>
    <TTGlyph name="afii10033" xMin="53" yMin="0" xMax="1434" yMax="1462">
      <component glyphName="Pi" x="0" y="0" flags="0x204"/>
    </TTGlyph>
    <TTGlyph name="afii10034" xMin="53" yMin="0" xMax="1260" yMax="1462">
      <component glyphName="P" x="0" y="0" flags="0x204"/>
    </TTGlyph>
    <TTGlyph name="afii10035" xMin="123" yMin="-20" xMax="1335" yMax="1485">
      <component glyphName="C" x="0" y="0" flags="0x204"/>
    </TTGlyph>
    <TTGlyph name="afii10036" xMin="168" yMin="0" xMax="1233" yMax="1462">
      <component glyphName="T" x="0" y="0" flags="0x204"/>
    </TTGlyph>
    <TTGlyph name="afii10037" xMin="31" yMin="-20" xMax="1413" yMax="1462">
      <contour>
        <pt x="242" y="-20" on="1"/>
        <pt x="118" y="-20" on="0"/>
        <pt x="31" y="12" on="1"/>
        <pt x="31" y="279" on="1"/>
        <pt x="112" y="240" on="0"/>
        <pt x="229" y="240" on="1"/>
        <pt x="277" y="240" on="0"/>
        <pt x="351" y="274" on="0"/>
        <pt x="414" y="339" on="0"/>
        <pt x="463" y="420" on="1"/>
        <pt x="178" y="1462" on="1"/>
        <pt x="485" y="1462" on="1"/>
        <pt x="639" y="831" on="1"/>
        <pt x="662" y="738" on="0"/>
        <pt x="668" y="680" on="1"/>
        <pt x="714" y="790" on="0"/>
        <pt x="735" y="829" on="1"/>
        <pt x="1079" y="1462" on="1"/>
        <pt x="1413" y="1462" on="1"/>
        <pt x="811" y="432" on="1"/>
        <pt x="679" y="207" on="0"/>
        <pt x="533" y="53" on="0"/>
        <pt x="361" y="-20" on="0"/>
      </contour>
    </TTGlyph>
    <TTGlyph name="afii10038" xMin="123" yMin="-20" xMax="1608" yMax="1483">
      <component glyphName="Phi" x="0" y="0" flags="0x204"/>
    </TTGlyph>
    <TTGlyph name="afii10039" xMin="-117" yMin="0" xMax="1401" yMax="1462">
      <component glyphName="X" x="0" y="0" flags="0x204"/>
    </TTGlyph>
    <TTGlyph name="afii10040" xMin="53" yMin="-426" xMax="1434" yMax="1462">
      <contour>
        <pt x="1384" y="246" on="1"/>
        <pt x="1241" y="-426" on="1"/>
        <pt x="938" y="-426" on="1"/>
        <pt x="1030" y="0" on="1"/>
        <pt x="53" y="0" on="1"/>
        <pt x="362" y="1462" on="1"/>
        <pt x="670" y="1462" on="1"/>
        <pt x="414" y="258" on="1"/>
        <pt x="874" y="258" on="1"/>
        <pt x="1130" y="1462" on="1"/>
        <pt x="1434" y="1462" on="1"/>
        <pt x="1176" y="246" on="1"/>
      </contour>
    </TTGlyph>
    <TTGlyph name="afii10041" xMin="184" yMin="0" xMax="1389" yMax="1462">
      <contour>
        <pt x="774" y="0" on="1"/>
        <pt x="893" y="561" on="1"/>
        <pt x="706" y="475" on="0"/>
        <pt x="545" y="475" on="1"/>
        <pt x="378" y="475" on="0"/>
        <pt x="184" y="645" on="0"/>
        <pt x="184" y="797" on="1"/>
        <pt x="184" y="854" on="0"/>
        <pt x="197" y="913" on="1"/>
        <pt x="309" y="1462" on="1"/>
        <pt x="614" y="1462" on="1"/>
        <pt x="506" y="946" on="1"/>
        <pt x="496" y="900" on="0"/>
        <pt x="496" y="864" on="1"/>
        <pt x="496" y="733" on="0"/>
        <pt x="649" y="733" on="1"/>
        <pt x="780" y="733" on="0"/>
        <pt x="944" y="807" on="1"/>
        <pt x="1083" y="1462" on="1"/>
        <pt x="1389" y="1462" on="1"/>
        <pt x="1079" y="0" on="1"/>
      </contour>
    </TTGlyph>
    <TTGlyph name="afii10042" xMin="53" yMin="0" xMax="2066" yMax="1462">
      <contour>
        <pt x="53" y="0" on="1"/>
        <pt x="362" y="1462" on="1"/>
        <pt x="676" y="1462" on="1"/>
        <pt x="420" y="258" on="1"/>
        <pt x="801" y="258" on="1"/>
        <pt x="1057" y="1462" on="1"/>
        <pt x="1372" y="1462" on="1"/>
        <pt x="1116" y="258" on="1"/>
        <pt x="1497" y="258" on="1"/>
        <pt x="1753" y="1462" on="1"/>
        <pt x="2066" y="1462" on="1"/>
        <pt x="1757" y="0" on="1"/>
      </contour>
    </TTGlyph>
    <TTGlyph name="afii10043" xMin="53" yMin="-426" xMax="2066" yMax="1462">
      <contour>
        <pt x="2017" y="246" on="1"/>
        <pt x="1874" y="-426" on="1"/>
        <pt x="1571" y="-426" on="1"/>
        <pt x="1663" y="0" on="1"/>
        <pt x="53" y="0" on="1"/>
        <pt x="362" y="1462" on="1"/>
        <pt x="676" y="1462" on="1"/>
        <pt x="420" y="258" on="1"/>
        <pt x="801" y="258" on="1"/>
        <pt x="1057" y="1462" on="1"/>
        <pt x="1372" y="1462" on="1"/>
        <pt x="1116" y="258" on="1"/>
        <pt x="1497" y="258" on="1"/>
        <pt x="1753" y="1462" on="1"/>
        <pt x="2066" y="1462" on="1"/>
        <pt x="1808" y="246" on="1"/>
      </contour>
    </TTGlyph>
    <TTGlyph name="afii10044" xMin="168" yMin="0" xMax="1319" yMax="1462">
      <contour>
        <pt x="762" y="901" on="1"/>
        <pt x="829" y="901" on="1"/>
        <pt x="1069" y="901" on="0"/>
        <pt x="1319" y="691" on="0"/>
        <pt x="1319" y="492" on="1"/>
        <pt x="1319" y="255" on="0"/>
        <pt x="1003" y="0" on="0"/>
        <pt x="705" y="0" on="1"/>
        <pt x="266" y="0" on="1"/>
        <pt x="520" y="1204" on="1"/>
        <pt x="168" y="1204" on="1"/>
        <pt x="223" y="1462" on="1"/>
        <pt x="881" y="1462" on="1"/>
      </contour>
      <contour>
        <pt x="625" y="254" on="1"/>
        <pt x="725" y="254" on="1"/>
        <pt x="864" y="254" on="0"/>
        <pt x="1010" y="371" on="0"/>
        <pt x="1010" y="477" on="1"/>
        <pt x="1010" y="647" on="0"/>
        <pt x="817" y="647" on="1"/>
        <pt x="709" y="647" on="1"/>
      </contour>
    </TTGlyph>
    <TTGlyph name="afii10045" xMin="53" yMin="0" xMax="1823" yMax="1462">
      <contour>
        <pt x="1513" y="0" on="1"/>
        <pt x="1200" y="0" on="1"/>
        <pt x="1509" y="1462" on="1"/>
        <pt x="1823" y="1462" on="1"/>
      </contour>
      <contour>
        <pt x="1075" y="492" on="1"/>
        <pt x="1075" y="255" on="0"/>
        <pt x="759" y="0" on="0"/>
        <pt x="461" y="0" on="1"/>
        <pt x="53" y="0" on="1"/>
        <pt x="362" y="1462" on="1"/>
        <pt x="668" y="1462" on="1"/>
        <pt x="549" y="901" on="1"/>
        <pt x="586" y="901" on="1"/>
        <pt x="826" y="901" on="0"/>
        <pt x="1075" y="691" on="0"/>
      </contour>
      <contour>
        <pt x="412" y="254" on="1"/>
        <pt x="481" y="254" on="1"/>
        <pt x="620" y="254" on="0"/>
        <pt x="766" y="371" on="0"/>
        <pt x="766" y="477" on="1"/>
        <pt x="766" y="647" on="0"/>
        <pt x="573" y="647" on="1"/>
        <pt x="496" y="647" on="1"/>
      </contour>
    </TTGlyph>
    <TTGlyph name="afii10046" xMin="53" yMin="0" xMax="1106" yMax="1462">
      <contour>
        <pt x="1106" y="492" on="1"/>
        <pt x="1106" y="255" on="0"/>
        <pt x="790" y="0" on="0"/>
        <pt x="492" y="0" on="1"/>
        <pt x="53" y="0" on="1"/>
        <pt x="362" y="1462" on="1"/>
        <pt x="668" y="1462" on="1"/>
        <pt x="549" y="901" on="1"/>
        <pt x="616" y="901" on="1"/>
        <pt x="856" y="901" on="0"/>
        <pt x="1106" y="691" on="0"/>
      </contour>
      <contour>
        <pt x="412" y="254" on="1"/>
        <pt x="512" y="254" on="1"/>
        <pt x="651" y="254" on="0"/>
        <pt x="797" y="371" on="0"/>
        <pt x="797" y="477" on="1"/>
        <pt x="797" y="647" on="0"/>
        <pt x="604" y="647" on="1"/>
        <pt x="496" y="647" on="1"/>
      </contour>
    </TTGlyph>
    <TTGlyph name="afii10047" xMin="27" yMin="-20" xMax="1190" yMax="1485">
      <contour>
        <pt x="389" y="238" on="1"/>
        <pt x="558" y="238" on="0"/>
        <pt x="776" y="421" on="0"/>
        <pt x="836" y="610" on="1"/>
        <pt x="297" y="610" on="1"/>
        <pt x="350" y="864" on="1"/>
        <pt x="877" y="864" on="1"/>
        <pt x="879" y="889" on="1"/>
        <pt x="879" y="915" on="1"/>
        <pt x="879" y="1227" on="0"/>
        <pt x="621" y="1227" on="1"/>
        <pt x="556" y="1227" on="0"/>
        <pt x="431" y="1200" on="0"/>
        <pt x="299" y="1149" on="1"/>
        <pt x="219" y="1395" on="1"/>
        <pt x="427" y="1485" on="0"/>
        <pt x="659" y="1485" on="1"/>
        <pt x="917" y="1485" on="0"/>
        <pt x="1190" y="1192" on="0"/>
        <pt x="1190" y="920" on="1"/>
        <pt x="1190" y="652" on="0"/>
        <pt x="992" y="209" on="0"/>
        <pt x="651" y="-20" on="0"/>
        <pt x="424" y="-20" on="1"/>
        <pt x="303" y="-20" on="0"/>
        <pt x="110" y="17" on="0"/>
        <pt x="27" y="63" on="1"/>
        <pt x="27" y="334" on="1"/>
        <pt x="200" y="238" on="0"/>
      </contour>
    </TTGlyph>
    <TTGlyph name="afii10048" xMin="53" yMin="-20" xMax="1997" yMax="1485">
      <contour>
        <pt x="1997" y="938" on="1"/>
        <pt x="1997" y="659" on="0"/>
        <pt x="1821" y="215" on="0"/>
        <pt x="1498" y="-20" on="0"/>
        <pt x="1278" y="-20" on="1"/>
        <pt x="1037" y="-20" on="0"/>
        <pt x="764" y="275" on="0"/>
        <pt x="764" y="537" on="1"/>
        <pt x="764" y="587" on="0"/>
        <pt x="768" y="631" on="1"/>
        <pt x="492" y="631" on="1"/>
        <pt x="358" y="0" on="1"/>
        <pt x="53" y="0" on="1"/>
        <pt x="362" y="1462" on="1"/>
        <pt x="668" y="1462" on="1"/>
        <pt x="547" y="889" on="1"/>
        <pt x="809" y="889" on="1"/>
        <pt x="889" y="1177" on="0"/>
        <pt x="1246" y="1485" on="0"/>
        <pt x="1491" y="1485" on="1"/>
        <pt x="1732" y="1485" on="0"/>
        <pt x="1997" y="1197" on="0"/>
      </contour>
      <contour>
        <pt x="1464" y="1227" on="1"/>
        <pt x="1357" y="1227" on="0"/>
        <pt x="1177" y="1044" on="0"/>
        <pt x="1075" y="724" on="0"/>
        <pt x="1075" y="537" on="1"/>
        <pt x="1075" y="390" on="0"/>
        <pt x="1194" y="240" on="0"/>
        <pt x="1300" y="240" on="1"/>
        <pt x="1407" y="240" on="0"/>
        <pt x="1585" y="414" on="0"/>
        <pt x="1686" y="729" on="0"/>
        <pt x="1686" y="930" on="1"/>
        <pt x="1686" y="1069" on="0"/>
        <pt x="1572" y="1227" on="0"/>
      </contour>
    </TTGlyph>
    <TTGlyph name="afii10049" xMin="-125" yMin="0" xMax="1266" yMax="1462">
      <contour>
        <pt x="653" y="561" on="1"/>
        <pt x="238" y="0" on="1"/>
        <pt x="-125" y="0" on="1"/>
        <pt x="389" y="657" on="1"/>
        <pt x="282" y="725" on="0"/>
        <pt x="193" y="882" on="0"/>
        <pt x="193" y="989" on="1"/>
        <pt x="193" y="1212" on="0"/>
        <pt x="500" y="1462" on="0"/>
        <pt x="780" y="1462" on="1"/>
        <pt x="1266" y="1462" on="1"/>
        <pt x="956" y="0" on="1"/>
        <pt x="651" y="0" on="1"/>
        <pt x="770" y="561" on="1"/>
      </contour>
      <contour>
        <pt x="907" y="1208" on="1"/>
        <pt x="772" y="1208" on="1"/>
        <pt x="645" y="1208" on="0"/>
        <pt x="512" y="1094" on="0"/>
        <pt x="512" y="983" on="1"/>
        <pt x="512" y="904" on="0"/>
        <pt x="621" y="813" on="0"/>
        <pt x="715" y="813" on="1"/>
        <pt x="823" y="813" on="1"/>
      </contour>
    </TTGlyph>
    <TTGlyph name="afii10050" xMin="53" yMin="0" xMax="1239" yMax="1772">
      <contour>
        <pt x="901" y="1462" on="1"/>
        <pt x="967" y="1772" on="1"/>
        <pt x="1239" y="1772" on="1"/>
        <pt x="1122" y="1208" on="1"/>
        <pt x="610" y="1208" on="1"/>
        <pt x="354" y="0" on="1"/>
        <pt x="53" y="0" on="1"/>
        <pt x="362" y="1462" on="1"/>
      </contour>
    </TTGlyph>
    <TTGlyph name="afii10051" xMin="168" yMin="-20" xMax="1386" yMax="1462">
      <contour>
        <pt x="932" y="-20" on="1"/>
        <pt x="815" y="-20" on="0"/>
        <pt x="737" y="18" on="1"/>
        <pt x="737" y="272" on="1"/>
        <pt x="817" y="233" on="0"/>
        <pt x="885" y="233" on="1"/>
        <pt x="958" y="233" on="0"/>
        <pt x="1034" y="309" on="0"/>
        <pt x="1071" y="478" on="0"/>
        <pt x="1081" y="548" on="0"/>
        <pt x="1079" y="559" on="1"/>
        <pt x="1079" y="620" on="0"/>
        <pt x="1016" y="674" on="0"/>
        <pt x="946" y="674" on="1"/>
        <pt x="713" y="674" on="1"/>
        <pt x="569" y="0" on="1"/>
        <pt x="264" y="0" on="1"/>
        <pt x="520" y="1204" on="1"/>
        <pt x="168" y="1204" on="1"/>
        <pt x="223" y="1462" on="1"/>
        <pt x="1284" y="1462" on="1"/>
        <pt x="1229" y="1204" on="1"/>
        <pt x="825" y="1204" on="1"/>
        <pt x="768" y="932" on="1"/>
        <pt x="1010" y="932" on="1"/>
        <pt x="1188" y="932" on="0"/>
        <pt x="1386" y="758" on="0"/>
        <pt x="1386" y="602" on="1"/>
        <pt x="1386" y="563" on="0"/>
        <pt x="1380" y="497" on="0"/>
        <pt x="1328" y="218" on="0"/>
        <pt x="1230" y="58" on="0"/>
        <pt x="1070" y="-18" on="0"/>
      </contour>
    </TTGlyph>
    <TTGlyph name="afii10052" xMin="53" yMin="0" xMax="1176" yMax="1907">
      <component glyphName="Gamma" x="0" y="0" flags="0x204"/>
      <component glyphName="acute" x="125" y="338" flags="0x4"/>
    </TTGlyph>
    <TTGlyph name="afii10053" xMin="123" yMin="-20" xMax="1335" yMax="1485">
      <contour>
        <pt x="905" y="1227" on="1"/>
        <pt x="759" y="1227" on="0"/>
        <pt x="540" y="1036" on="0"/>
        <pt x="483" y="864" on="1"/>
        <pt x="1016" y="864" on="1"/>
        <pt x="963" y="610" on="1"/>
        <pt x="436" y="610" on="1"/>
        <pt x="434" y="580" on="1"/>
        <pt x="434" y="549" on="1"/>
        <pt x="434" y="240" on="0"/>
        <pt x="721" y="240" on="1"/>
        <pt x="867" y="240" on="0"/>
        <pt x="1059" y="317" on="1"/>
        <pt x="1059" y="57" on="1"/>
        <pt x="872" y="-20" on="0"/>
        <pt x="659" y="-20" on="1"/>
        <pt x="405" y="-20" on="0"/>
        <pt x="123" y="279" on="0"/>
        <pt x="123" y="553" on="1"/>
        <pt x="123" y="815" on="0"/>
        <pt x="331" y="1256" on="0"/>
        <pt x="679" y="1485" on="0"/>
        <pt x="905" y="1485" on="1"/>
        <pt x="1027" y="1485" on="0"/>
        <pt x="1231" y="1436" on="0"/>
        <pt x="1335" y="1380" on="1"/>
        <pt x="1217" y="1130" on="1"/>
        <pt x="1145" y="1171" on="0"/>
        <pt x="992" y="1227" on="0"/>
      </contour>
    </TTGlyph>
    <TTGlyph name="afii10054" xMin="41" yMin="-20" xMax="1110" yMax="1483">
      <component glyphName="S" x="0" y="0" flags="0x204"/>
    </TTGlyph>
    <TTGlyph name="afii10055" xMin="-59" yMin="0" xMax="897" yMax="1462">
      <component glyphName="I" x="0" y="0" flags="0x204"/>
    </TTGlyph>
    <TTGlyph name="afii10056" xMin="-59" yMin="0" xMax="941" yMax="1878">
      <component glyphName="I" x="0" y="0" flags="0x204"/>
      <component glyphName="dieresis" x="-134" y="338" flags="0x4"/>
    </TTGlyph>
    <TTGlyph name="afii10057" xMin="-322" yMin="-430" xMax="690" yMax="1462">
      <component glyphName="J" x="0" y="0" flags="0x204"/>
    </TTGlyph>
    <TTGlyph name="afii10058" xMin="-61" yMin="-20" xMax="1855" yMax="1462">
      <contour>
        <pt x="1298" y="901" on="1"/>
        <pt x="1366" y="901" on="1"/>
        <pt x="1603" y="901" on="0"/>
        <pt x="1855" y="695" on="0"/>
        <pt x="1855" y="502" on="1"/>
        <pt x="1855" y="259" on="0"/>
        <pt x="1539" y="0" on="0"/>
        <pt x="1241" y="0" on="1"/>
        <pt x="803" y="0" on="1"/>
        <pt x="1057" y="1204" on="1"/>
        <pt x="803" y="1204" on="1"/>
        <pt x="724" y="884" on="0"/>
        <pt x="560" y="370" on="0"/>
        <pt x="413" y="97" on="0"/>
        <pt x="232" y="-20" on="0"/>
        <pt x="82" y="-20" on="1"/>
        <pt x="2" y="-20" on="0"/>
        <pt x="-61" y="4" on="1"/>
        <pt x="-61" y="258" on="1"/>
        <pt x="-8" y="238" on="0"/>
        <pt x="39" y="238" on="1"/>
        <pt x="104" y="238" on="0"/>
        <pt x="188" y="301" on="0"/>
        <pt x="268" y="441" on="0"/>
        <pt x="373" y="736" on="0"/>
        <pt x="502" y="1184" on="0"/>
        <pt x="573" y="1462" on="1"/>
        <pt x="1417" y="1462" on="1"/>
      </contour>
      <contour>
        <pt x="1161" y="254" on="1"/>
        <pt x="1280" y="254" on="1"/>
        <pt x="1409" y="254" on="0"/>
        <pt x="1546" y="375" on="0"/>
        <pt x="1546" y="492" on="1"/>
        <pt x="1546" y="566" on="0"/>
        <pt x="1451" y="647" on="0"/>
        <pt x="1354" y="647" on="1"/>
        <pt x="1245" y="647" on="1"/>
      </contour>
    </TTGlyph>
    <TTGlyph name="afii10059" xMin="53" yMin="0" xMax="1815" yMax="1462">
      <contour>
        <pt x="1815" y="506" on="1"/>
        <pt x="1815" y="262" on="0"/>
        <pt x="1502" y="0" on="0"/>
        <pt x="1210" y="0" on="1"/>
        <pt x="762" y="0" on="1"/>
        <pt x="899" y="647" on="1"/>
        <pt x="496" y="647" on="1"/>
        <pt x="358" y="0" on="1"/>
        <pt x="53" y="0" on="1"/>
        <pt x="362" y="1462" on="1"/>
        <pt x="668" y="1462" on="1"/>
        <pt x="549" y="901" on="1"/>
        <pt x="950" y="901" on="1"/>
        <pt x="1071" y="1462" on="1"/>
        <pt x="1376" y="1462" on="1"/>
        <pt x="1257" y="901" on="1"/>
        <pt x="1343" y="901" on="1"/>
        <pt x="1573" y="901" on="0"/>
        <pt x="1815" y="697" on="0"/>
      </contour>
      <contour>
        <pt x="1120" y="254" on="1"/>
        <pt x="1247" y="254" on="1"/>
        <pt x="1372" y="254" on="0"/>
        <pt x="1505" y="375" on="0"/>
        <pt x="1505" y="485" on="1"/>
        <pt x="1505" y="647" on="0"/>
        <pt x="1313" y="647" on="1"/>
        <pt x="1204" y="647" on="1"/>
      </contour>
    </TTGlyph>
    <TTGlyph name="afii10060" xMin="168" yMin="0" xMax="1384" yMax="1462">
      <contour>
        <pt x="1079" y="551" on="1"/>
        <pt x="1079" y="619" on="0"/>
        <pt x="1005" y="674" on="0"/>
        <pt x="930" y="674" on="1"/>
        <pt x="713" y="674" on="1"/>
        <pt x="569" y="0" on="1"/>
        <pt x="264" y="0" on="1"/>
        <pt x="520" y="1204" on="1"/>
        <pt x="168" y="1204" on="1"/>
        <pt x="223" y="1462" on="1"/>
        <pt x="1284" y="1462" on="1"/>
        <pt x="1229" y="1204" on="1"/>
        <pt x="825" y="1204" on="1"/>
        <pt x="768" y="932" on="1"/>
        <pt x="993" y="932" on="1"/>
        <pt x="1188" y="932" on="0"/>
        <pt x="1384" y="752" on="0"/>
        <pt x="1384" y="592" on="1"/>
        <pt x="1384" y="530" on="0"/>
        <pt x="1362" y="418" on="1"/>
        <pt x="1278" y="0" on="1"/>
        <pt x="969" y="0" on="1"/>
        <pt x="1069" y="471" on="1"/>
        <pt x="1079" y="521" on="0"/>
      </contour>
    </TTGlyph>
    <TTGlyph name="afii10061" xMin="53" yMin="0" xMax="1407" yMax="1907">
      <component glyphName="afii10028" x="0" y="0" flags="0x204"/>
      <component glyphName="acute" x="219" y="338" flags="0x4"/>
    </TTGlyph>
    <TTGlyph name="afii10062" xMin="31" yMin="-20" xMax="1413" yMax="1937">
      <component glyphName="afii10037" x="0" y="0" flags="0x204"/>
      <component glyphName="glyph00566" x="47" y="338" flags="0x4"/>
    </TTGlyph>
    <TTGlyph name="afii10065" xMin="90" yMin="-20" xMax="1182" yMax="1139">
      <component glyphName="a" x="0" y="0" flags="0x204"/>
    </TTGlyph>
    <TTGlyph name="afii10066" xMin="109" yMin="-20" xMax="1268" yMax="1567">
      <contour>
        <pt x="109" y="461" on="1"/>
        <pt x="109" y="698" on="0"/>
        <pt x="250" y="1130" on="0"/>
        <pt x="496" y="1412" on="0"/>
        <pt x="821" y="1517" on="0"/>
        <pt x="1237" y="1567" on="1"/>
        <pt x="1268" y="1309" on="1"/>
        <pt x="1163" y="1294" on="1"/>
        <pt x="921" y="1260" on="0"/>
        <pt x="838" y="1243" on="1"/>
        <pt x="682" y="1212" on="0"/>
        <pt x="514" y="1040" on="0"/>
        <pt x="471" y="872" on="1"/>
        <pt x="477" y="870" on="1"/>
        <pt x="543" y="953" on="0"/>
        <pt x="714" y="1042" on="0"/>
        <pt x="809" y="1042" on="1"/>
        <pt x="951" y="1042" on="0"/>
        <pt x="1106" y="853" on="0"/>
        <pt x="1106" y="674" on="1"/>
        <pt x="1106" y="477" on="0"/>
        <pt x="958" y="152" on="0"/>
        <pt x="693" y="-20" on="0"/>
        <pt x="522" y="-20" on="1"/>
        <pt x="321" y="-20" on="0"/>
        <pt x="109" y="226" on="0"/>
      </contour>
      <contour>
        <pt x="551" y="227" on="1"/>
        <pt x="617" y="227" on="0"/>
        <pt x="732" y="348" on="0"/>
        <pt x="803" y="557" on="0"/>
        <pt x="803" y="664" on="1"/>
        <pt x="803" y="817" on="0"/>
        <pt x="688" y="817" on="1"/>
        <pt x="632" y="817" on="0"/>
        <pt x="498" y="727" on="0"/>
        <pt x="438" y="645" on="1"/>
        <pt x="414" y="530" on="0"/>
        <pt x="414" y="451" on="1"/>
        <pt x="414" y="227" on="0"/>
      </contour>
    </TTGlyph>
    <TTGlyph name="afii10067" xMin="90" yMin="-20" xMax="1114" yMax="1139">
      <contour>
        <pt x="711" y="1139" on="1"/>
        <pt x="898" y="1139" on="0"/>
        <pt x="1114" y="976" on="0"/>
        <pt x="1114" y="838" on="1"/>
        <pt x="1114" y="728" on="0"/>
        <pt x="997" y="597" on="0"/>
        <pt x="872" y="569" on="1"/>
        <pt x="872" y="561" on="1"/>
        <pt x="961" y="536" on="0"/>
        <pt x="1051" y="422" on="0"/>
        <pt x="1051" y="338" on="1"/>
        <pt x="1051" y="232" on="0"/>
        <pt x="934" y="69" on="0"/>
        <pt x="715" y="-20" on="0"/>
        <pt x="567" y="-20" on="1"/>
        <pt x="340" y="-20" on="0"/>
        <pt x="90" y="213" on="0"/>
        <pt x="90" y="432" on="1"/>
        <pt x="90" y="634" on="0"/>
        <pt x="243" y="957" on="0"/>
        <pt x="526" y="1139" on="0"/>
      </contour>
      <contour>
        <pt x="393" y="475" on="1"/>
        <pt x="391" y="444" on="1"/>
        <pt x="391" y="412" on="1"/>
        <pt x="391" y="307" on="0"/>
        <pt x="482" y="190" on="0"/>
        <pt x="571" y="190" on="1"/>
        <pt x="656" y="190" on="0"/>
        <pt x="748" y="276" on="0"/>
        <pt x="748" y="344" on="1"/>
        <pt x="748" y="410" on="0"/>
        <pt x="651" y="475" on="0"/>
        <pt x="539" y="475" on="1"/>
      </contour>
      <contour>
        <pt x="698" y="922" on="1"/>
        <pt x="613" y="922" on="0"/>
        <pt x="473" y="792" on="0"/>
        <pt x="434" y="682" on="1"/>
        <pt x="635" y="682" on="1"/>
        <pt x="722" y="682" on="0"/>
        <pt x="817" y="752" on="0"/>
        <pt x="817" y="821" on="1"/>
        <pt x="817" y="869" on="0"/>
        <pt x="751" y="922" on="0"/>
      </contour>
    </TTGlyph>
    <TTGlyph name="afii10068" xMin="20" yMin="-20" xMax="930" yMax="1139">
      <contour>
        <pt x="166" y="1051" on="1"/>
        <pt x="349" y="1139" on="0"/>
        <pt x="557" y="1139" on="1"/>
        <pt x="736" y="1139" on="0"/>
        <pt x="930" y="982" on="0"/>
        <pt x="930" y="836" on="1"/>
        <pt x="930" y="741" on="0"/>
        <pt x="864" y="618" on="0"/>
        <pt x="752" y="534" on="0"/>
        <pt x="604" y="475" on="0"/>
        <pt x="522" y="446" on="1"/>
        <pt x="422" y="411" on="0"/>
        <pt x="357" y="375" on="0"/>
        <pt x="326" y="333" on="0"/>
        <pt x="326" y="303" on="1"/>
        <pt x="326" y="203" on="0"/>
        <pt x="469" y="203" on="1"/>
        <pt x="604" y="203" on="0"/>
        <pt x="795" y="293" on="1"/>
        <pt x="795" y="66" on="1"/>
        <pt x="701" y="19" on="0"/>
        <pt x="520" y="-20" on="0"/>
        <pt x="406" y="-20" on="1"/>
        <pt x="222" y="-20" on="0"/>
        <pt x="20" y="147" on="0"/>
        <pt x="20" y="297" on="1"/>
        <pt x="20" y="390" on="0"/>
        <pt x="90" y="514" on="0"/>
        <pt x="201" y="597" on="0"/>
        <pt x="341" y="651" on="0"/>
        <pt x="410" y="674" on="1"/>
        <pt x="502" y="704" on="0"/>
        <pt x="591" y="745" on="0"/>
        <pt x="627" y="785" on="0"/>
        <pt x="627" y="827" on="1"/>
        <pt x="627" y="913" on="0"/>
        <pt x="506" y="913" on="1"/>
        <pt x="392" y="913" on="0"/>
        <pt x="240" y="838" on="1"/>
      </contour>
    </TTGlyph>
    <TTGlyph name="afii10069" xMin="90" yMin="-20" xMax="1165" yMax="1567">
      <contour>
        <pt x="1165" y="928" on="1"/>
        <pt x="1165" y="644" on="0"/>
        <pt x="1005" y="206" on="0"/>
        <pt x="718" y="-20" on="0"/>
        <pt x="522" y="-20" on="1"/>
        <pt x="315" y="-20" on="0"/>
        <pt x="90" y="213" on="0"/>
        <pt x="90" y="422" on="1"/>
        <pt x="90" y="608" on="0"/>
        <pt x="211" y="894" on="0"/>
        <pt x="432" y="1051" on="0"/>
        <pt x="573" y="1051" on="1"/>
        <pt x="756" y="1051" on="0"/>
        <pt x="852" y="868" on="1"/>
        <pt x="860" y="868" on="1"/>
        <pt x="862" y="904" on="1"/>
        <pt x="862" y="934" on="1"/>
        <pt x="862" y="1140" on="0"/>
        <pt x="734" y="1321" on="0"/>
        <pt x="598" y="1321" on="1"/>
        <pt x="492" y="1321" on="0"/>
        <pt x="395" y="1280" on="1"/>
        <pt x="332" y="1518" on="1"/>
        <pt x="465" y="1567" on="0"/>
        <pt x="645" y="1567" on="1"/>
        <pt x="902" y="1567" on="0"/>
        <pt x="1165" y="1245" on="0"/>
      </contour>
      <contour>
        <pt x="539" y="225" on="1"/>
        <pt x="645" y="225" on="0"/>
        <pt x="792" y="449" on="0"/>
        <pt x="825" y="666" on="1"/>
        <pt x="805" y="732" on="0"/>
        <pt x="716" y="819" on="0"/>
        <pt x="645" y="819" on="1"/>
        <pt x="530" y="819" on="0"/>
        <pt x="393" y="598" on="0"/>
        <pt x="393" y="412" on="1"/>
        <pt x="393" y="324" on="0"/>
        <pt x="469" y="225" on="0"/>
      </contour>
    </TTGlyph>
    <TTGlyph name="afii10070" xMin="90" yMin="-20" xMax="1090" yMax="1139">
      <component glyphName="e" x="0" y="0" flags="0x204"/>
    </TTGlyph>
    <TTGlyph name="afii10071" xMin="90" yMin="-20" xMax="1090" yMax="1540">
      <component glyphName="e" x="0" y="0" flags="0x204"/>
      <component glyphName="dieresis" x="-42" y="0" flags="0x4"/>
    </TTGlyph>
    <TTGlyph name="afii10072" xMin="-20" yMin="-20" xMax="1987" yMax="1139">
      <contour>
        <pt x="811" y="451" on="1"/>
        <pt x="659" y="451" on="1"/>
        <pt x="602" y="228" on="0"/>
        <pt x="317" y="-20" on="0"/>
        <pt x="115" y="-20" on="1"/>
        <pt x="38" y="-20" on="0"/>
        <pt x="-20" y="-8" on="1"/>
        <pt x="27" y="231" on="1"/>
        <pt x="80" y="223" on="0"/>
        <pt x="106" y="223" on="1"/>
        <pt x="190" y="223" on="0"/>
        <pt x="321" y="351" on="0"/>
        <pt x="393" y="573" on="0"/>
        <pt x="393" y="702" on="1"/>
        <pt x="393" y="798" on="0"/>
        <pt x="321" y="895" on="0"/>
        <pt x="256" y="895" on="1"/>
        <pt x="211" y="895" on="0"/>
        <pt x="135" y="868" on="1"/>
        <pt x="135" y="1112" on="1"/>
        <pt x="211" y="1139" on="0"/>
        <pt x="313" y="1139" on="1"/>
        <pt x="488" y="1139" on="0"/>
        <pt x="690" y="911" on="0"/>
        <pt x="690" y="707" on="1"/>
        <pt x="690" y="680" on="1"/>
        <pt x="688" y="653" on="1"/>
        <pt x="854" y="653" on="1"/>
        <pt x="954" y="1118" on="1"/>
        <pt x="1243" y="1118" on="1"/>
        <pt x="1143" y="653" on="1"/>
        <pt x="1300" y="653" on="1"/>
        <pt x="1357" y="880" on="0"/>
        <pt x="1649" y="1139" on="0"/>
        <pt x="1851" y="1139" on="1"/>
        <pt x="1922" y="1139" on="0"/>
        <pt x="1987" y="1126" on="1"/>
        <pt x="1935" y="887" on="1"/>
        <pt x="1882" y="895" on="0"/>
        <pt x="1855" y="895" on="1"/>
        <pt x="1730" y="895" on="0"/>
        <pt x="1569" y="623" on="0"/>
        <pt x="1569" y="416" on="1"/>
        <pt x="1569" y="320" on="0"/>
        <pt x="1641" y="223" on="0"/>
        <pt x="1706" y="223" on="1"/>
        <pt x="1751" y="223" on="0"/>
        <pt x="1827" y="250" on="1"/>
        <pt x="1827" y="6" on="1"/>
        <pt x="1754" y="-20" on="0"/>
        <pt x="1649" y="-20" on="1"/>
        <pt x="1472" y="-20" on="0"/>
        <pt x="1272" y="203" on="0"/>
        <pt x="1272" y="406" on="1"/>
        <pt x="1274" y="451" on="1"/>
        <pt x="1100" y="451" on="1"/>
        <pt x="1004" y="0" on="1"/>
        <pt x="715" y="0" on="1"/>
      </contour>
    </TTGlyph>
    <TTGlyph name="afii10073" xMin="25" yMin="-20" xMax="1020" yMax="1139">
      <contour>
        <pt x="463" y="688" on="1"/>
        <pt x="603" y="688" on="0"/>
        <pt x="719" y="747" on="0"/>
        <pt x="719" y="815" on="1"/>
        <pt x="719" y="861" on="0"/>
        <pt x="651" y="913" on="0"/>
        <pt x="565" y="913" on="1"/>
        <pt x="496" y="913" on="0"/>
        <pt x="327" y="868" on="0"/>
        <pt x="250" y="834" on="1"/>
        <pt x="178" y="1053" on="1"/>
        <pt x="402" y="1139" on="0"/>
        <pt x="618" y="1139" on="1"/>
        <pt x="811" y="1139" on="0"/>
        <pt x="1020" y="997" on="0"/>
        <pt x="1020" y="862" on="1"/>
        <pt x="1020" y="759" on="0"/>
        <pt x="896" y="623" on="0"/>
        <pt x="760" y="586" on="1"/>
        <pt x="760" y="578" on="1"/>
        <pt x="950" y="522" on="0"/>
        <pt x="950" y="352" on="1"/>
        <pt x="950" y="172" on="0"/>
        <pt x="663" y="-20" on="0"/>
        <pt x="397" y="-20" on="1"/>
        <pt x="296" y="-20" on="0"/>
        <pt x="94" y="20" on="0"/>
        <pt x="25" y="55" on="1"/>
        <pt x="25" y="303" on="1"/>
        <pt x="201" y="215" on="0"/>
        <pt x="387" y="215" on="1"/>
        <pt x="645" y="215" on="0"/>
        <pt x="645" y="360" on="1"/>
        <pt x="645" y="477" on="0"/>
        <pt x="469" y="477" on="1"/>
        <pt x="293" y="477" on="1"/>
        <pt x="338" y="688" on="1"/>
      </contour>
    </TTGlyph>
    <TTGlyph name="afii10074" xMin="111" yMin="-20" xMax="1202" yMax="1118">
      <component glyphName="u" x="0" y="0" flags="0x204"/>
    </TTGlyph>
    <TTGlyph name="afii10075" xMin="111" yMin="-20" xMax="1265" yMax="1599">
      <component glyphName="u" x="0" y="0" flags="0x204"/>
      <component glyphName="glyph00566" x="8" y="0" flags="0x4"/>
    </TTGlyph>
    <TTGlyph name="afii10076" xMin="37" yMin="0" xMax="1251" yMax="1118">
      <contour>
        <pt x="907" y="1118" on="1"/>
        <pt x="1251" y="1118" on="1"/>
        <pt x="772" y="557" on="1"/>
        <pt x="1049" y="0" on="1"/>
        <pt x="711" y="0" on="1"/>
        <pt x="455" y="545" on="1"/>
        <pt x="338" y="0" on="1"/>
        <pt x="37" y="0" on="1"/>
        <pt x="276" y="1118" on="1"/>
        <pt x="578" y="1118" on="1"/>
        <pt x="467" y="598" on="1"/>
      </contour>
    </TTGlyph>
    <TTGlyph name="afii10077" xMin="-59" yMin="-20" xMax="1214" yMax="1139">
      <contour>
        <pt x="987" y="0" on="1"/>
        <pt x="686" y="0" on="1"/>
        <pt x="874" y="885" on="1"/>
        <pt x="834" y="893" on="0"/>
        <pt x="811" y="893" on="1"/>
        <pt x="744" y="893" on="0"/>
        <pt x="654" y="830" on="0"/>
        <pt x="580" y="691" on="0"/>
        <pt x="508" y="477" on="1"/>
        <pt x="473" y="374" on="0"/>
        <pt x="406" y="193" on="0"/>
        <pt x="315" y="58" on="0"/>
        <pt x="186" y="-20" on="0"/>
        <pt x="90" y="-20" on="1"/>
        <pt x="1" y="-20" on="0"/>
        <pt x="-59" y="4" on="1"/>
        <pt x="-59" y="252" on="1"/>
        <pt x="-22" y="236" on="0"/>
        <pt x="25" y="236" on="1"/>
        <pt x="75" y="236" on="0"/>
        <pt x="154" y="341" on="0"/>
        <pt x="192" y="452" on="1"/>
        <pt x="294" y="755" on="0"/>
        <pt x="406" y="965" on="0"/>
        <pt x="539" y="1082" on="0"/>
        <pt x="731" y="1139" on="0"/>
        <pt x="868" y="1139" on="1"/>
        <pt x="955" y="1139" on="0"/>
        <pt x="1145" y="1108" on="0"/>
        <pt x="1214" y="1081" on="1"/>
      </contour>
    </TTGlyph>
    <TTGlyph name="afii10078" xMin="23" yMin="0" xMax="1587" yMax="1118">
      <contour>
        <pt x="1231" y="807" on="1"/>
        <pt x="1203" y="745" on="0"/>
        <pt x="1121" y="597" on="0"/>
        <pt x="1079" y="518" on="1"/>
        <pt x="803" y="0" on="1"/>
        <pt x="571" y="0" on="1"/>
        <pt x="508" y="504" on="1"/>
        <pt x="484" y="707" on="0"/>
        <pt x="477" y="811" on="1"/>
        <pt x="307" y="0" on="1"/>
        <pt x="23" y="0" on="1"/>
        <pt x="262" y="1118" on="1"/>
        <pt x="668" y="1118" on="1"/>
        <pt x="727" y="641" on="1"/>
        <pt x="738" y="557" on="0"/>
        <pt x="747" y="413" on="0"/>
        <pt x="752" y="342" on="1"/>
        <pt x="778" y="402" on="0"/>
        <pt x="844" y="554" on="0"/>
        <pt x="889" y="633" on="1"/>
        <pt x="1159" y="1118" on="1"/>
        <pt x="1587" y="1118" on="1"/>
        <pt x="1352" y="0" on="1"/>
        <pt x="1059" y="0" on="1"/>
      </contour>
    </TTGlyph>
    <TTGlyph name="afii10079" xMin="37" yMin="0" xMax="1227" yMax="1118">
      <contour>
        <pt x="580" y="1118" on="1"/>
        <pt x="487" y="688" on="1"/>
        <pt x="836" y="688" on="1"/>
        <pt x="926" y="1118" on="1"/>
        <pt x="1227" y="1118" on="1"/>
        <pt x="989" y="0" on="1"/>
        <pt x="688" y="0" on="1"/>
        <pt x="784" y="461" on="1"/>
        <pt x="438" y="461" on="1"/>
        <pt x="340" y="0" on="1"/>
        <pt x="37" y="0" on="1"/>
        <pt x="276" y="1118" on="1"/>
      </contour>
    </TTGlyph>
    <TTGlyph name="afii10080" xMin="90" yMin="-20" xMax="1108" yMax="1139">
      <component glyphName="o" x="0" y="0" flags="0x204"/>
    </TTGlyph>
    <TTGlyph name="afii10081" xMin="37" yMin="0" xMax="1133" yMax="1139">
      <component glyphName="n" x="0" y="0" flags="0x204"/>
    </TTGlyph>
    <TTGlyph name="afii10082" xMin="-68" yMin="-492" xMax="1128" yMax="1139">
      <component glyphName="p" x="0" y="0" flags="0x204"/>
    </TTGlyph>
    <TTGlyph name="afii10083" xMin="90" yMin="-20" xMax="1010" yMax="1139">
      <component glyphName="c" x="0" y="0" flags="0x204"/>
    </TTGlyph>
    <TTGlyph name="afii10084" xMin="37" yMin="0" xMax="1749" yMax="1139">
      <component glyphName="m" x="0" y="0" flags="0x204"/>
    </TTGlyph>
    <TTGlyph name="afii10085" xMin="-141" yMin="-492" xMax="1169" yMax="1118">
      <component glyphName="y" x="0" y="0" flags="0x204"/>
    </TTGlyph>
    <TTGlyph name="afii10086" xMin="90" yMin="-492" xMax="1473" yMax="1556">
      <contour>
        <pt x="1049" y="1124" on="1"/>
        <pt x="1253" y="1094" on="0"/>
        <pt x="1473" y="848" on="0"/>
        <pt x="1473" y="657" on="1"/>
        <pt x="1473" y="464" on="0"/>
        <pt x="1311" y="169" on="0"/>
        <pt x="1014" y="3" on="0"/>
        <pt x="805" y="-18" on="1"/>
        <pt x="709" y="-492" on="1"/>
        <pt x="418" y="-492" on="1"/>
        <pt x="522" y="-8" on="1"/>
        <pt x="320" y="15" on="0"/>
        <pt x="90" y="264" on="0"/>
        <pt x="90" y="453" on="1"/>
        <pt x="90" y="644" on="0"/>
        <pt x="259" y="947" on="0"/>
        <pt x="558" y="1113" on="0"/>
        <pt x="762" y="1126" on="1"/>
        <pt x="852" y="1556" on="1"/>
        <pt x="1139" y="1556" on="1"/>
      </contour>
      <contour>
        <pt x="397" y="477" on="1"/>
        <pt x="397" y="374" on="0"/>
        <pt x="483" y="238" on="0"/>
        <pt x="569" y="225" on="1"/>
        <pt x="713" y="893" on="1"/>
        <pt x="620" y="887" on="0"/>
        <pt x="479" y="782" on="0"/>
        <pt x="397" y="587" on="0"/>
      </contour>
      <contour>
        <pt x="856" y="225" on="1"/>
        <pt x="949" y="238" on="0"/>
        <pt x="1086" y="344" on="0"/>
        <pt x="1167" y="537" on="0"/>
        <pt x="1167" y="651" on="1"/>
        <pt x="1167" y="747" on="0"/>
        <pt x="1076" y="874" on="0"/>
        <pt x="997" y="889" on="1"/>
      </contour>
    </TTGlyph>
    <TTGlyph name="afii10087" xMin="-100" yMin="0" xMax="1188" yMax="1118">
      <component glyphName="x" x="0" y="0" flags="0x204"/>
    </TTGlyph>
    <TTGlyph name="afii10088" xMin="106" yMin="-401" xMax="1202" yMax="1118">
      <contour>
        <pt x="563" y="1118" on="1"/>
        <pt x="426" y="465" on="1"/>
        <pt x="410" y="397" on="0"/>
        <pt x="410" y="346" on="1"/>
        <pt x="410" y="223" on="0"/>
        <pt x="518" y="223" on="1"/>
        <pt x="610" y="223" on="0"/>
        <pt x="760" y="451" on="0"/>
        <pt x="803" y="655" on="1"/>
        <pt x="901" y="1118" on="1"/>
        <pt x="1202" y="1118" on="1"/>
        <pt x="1040" y="354" on="1"/>
        <pt x="1034" y="324" on="0"/>
        <pt x="1034" y="301" on="1"/>
        <pt x="1034" y="236" on="0"/>
        <pt x="1096" y="236" on="1"/>
        <pt x="1135" y="236" on="0"/>
        <pt x="1186" y="250" on="1"/>
        <pt x="1049" y="-401" on="1"/>
        <pt x="770" y="-401" on="1"/>
        <pt x="866" y="0" on="1"/>
        <pt x="810" y="26" on="0"/>
        <pt x="757" y="121" on="0"/>
        <pt x="743" y="180" on="1"/>
        <pt x="735" y="180" on="1"/>
        <pt x="593" y="-20" on="0"/>
        <pt x="395" y="-20" on="1"/>
        <pt x="258" y="-20" on="0"/>
        <pt x="106" y="145" on="0"/>
        <pt x="106" y="301" on="1"/>
        <pt x="106" y="369" on="0"/>
        <pt x="135" y="514" on="1"/>
        <pt x="262" y="1118" on="1"/>
      </contour>
    </TTGlyph>
    <TTGlyph name="afii10089" xMin="164" yMin="0" xMax="1184" yMax="1118">
      <contour>
        <pt x="545" y="1118" on="1"/>
        <pt x="483" y="827" on="1"/>
        <pt x="467" y="759" on="0"/>
        <pt x="467" y="709" on="1"/>
        <pt x="467" y="646" on="0"/>
        <pt x="529" y="582" on="0"/>
        <pt x="586" y="582" on="1"/>
        <pt x="684" y="582" on="0"/>
        <pt x="811" y="779" on="0"/>
        <pt x="856" y="991" on="1"/>
        <pt x="883" y="1118" on="1"/>
        <pt x="1184" y="1118" on="1"/>
        <pt x="946" y="0" on="1"/>
        <pt x="645" y="0" on="1"/>
        <pt x="709" y="303" on="1"/>
        <pt x="725" y="388" on="0"/>
        <pt x="754" y="483" on="1"/>
        <pt x="745" y="483" on="1"/>
        <pt x="617" y="342" on="0"/>
        <pt x="453" y="342" on="1"/>
        <pt x="318" y="342" on="0"/>
        <pt x="164" y="514" on="0"/>
        <pt x="164" y="664" on="1"/>
        <pt x="164" y="743" on="0"/>
        <pt x="193" y="877" on="1"/>
        <pt x="244" y="1118" on="1"/>
      </contour>
    </TTGlyph>
    <TTGlyph name="afii10090" xMin="106" yMin="-20" xMax="1819" yMax="1118">
      <contour>
        <pt x="1190" y="1118" on="1"/>
        <pt x="1053" y="465" on="1"/>
        <pt x="1036" y="395" on="0"/>
        <pt x="1036" y="346" on="1"/>
        <pt x="1036" y="223" on="0"/>
        <pt x="1135" y="223" on="1"/>
        <pt x="1228" y="223" on="0"/>
        <pt x="1376" y="453" on="0"/>
        <pt x="1419" y="655" on="1"/>
        <pt x="1518" y="1118" on="1"/>
        <pt x="1819" y="1118" on="1"/>
        <pt x="1581" y="0" on="1"/>
        <pt x="1354" y="0" on="1"/>
        <pt x="1374" y="207" on="1"/>
        <pt x="1366" y="207" on="1"/>
        <pt x="1221" y="-20" on="0"/>
        <pt x="1012" y="-20" on="1"/>
        <pt x="795" y="-20" on="0"/>
        <pt x="752" y="207" on="1"/>
        <pt x="743" y="207" on="1"/>
        <pt x="598" y="-20" on="0"/>
        <pt x="385" y="-20" on="1"/>
        <pt x="252" y="-20" on="0"/>
        <pt x="106" y="146" on="0"/>
        <pt x="106" y="301" on="1"/>
        <pt x="106" y="374" on="0"/>
        <pt x="129" y="481" on="1"/>
        <pt x="262" y="1118" on="1"/>
        <pt x="563" y="1118" on="1"/>
        <pt x="426" y="465" on="1"/>
        <pt x="410" y="397" on="0"/>
        <pt x="410" y="346" on="1"/>
        <pt x="410" y="223" on="0"/>
        <pt x="508" y="223" on="1"/>
        <pt x="600" y="223" on="0"/>
        <pt x="746" y="444" on="0"/>
        <pt x="793" y="653" on="1"/>
        <pt x="889" y="1118" on="1"/>
      </contour>
    </TTGlyph>
    <TTGlyph name="afii10091" xMin="106" yMin="-401" xMax="1819" yMax="1118">
      <contour>
        <pt x="1190" y="1118" on="1"/>
        <pt x="1053" y="465" on="1"/>
        <pt x="1036" y="395" on="0"/>
        <pt x="1036" y="346" on="1"/>
        <pt x="1036" y="223" on="0"/>
        <pt x="1135" y="223" on="1"/>
        <pt x="1228" y="223" on="0"/>
        <pt x="1376" y="453" on="0"/>
        <pt x="1419" y="655" on="1"/>
        <pt x="1518" y="1118" on="1"/>
        <pt x="1819" y="1118" on="1"/>
        <pt x="1657" y="354" on="1"/>
        <pt x="1651" y="324" on="0"/>
        <pt x="1651" y="301" on="1"/>
        <pt x="1651" y="236" on="0"/>
        <pt x="1712" y="236" on="1"/>
        <pt x="1753" y="236" on="0"/>
        <pt x="1802" y="250" on="1"/>
        <pt x="1665" y="-401" on="1"/>
        <pt x="1386" y="-401" on="1"/>
        <pt x="1483" y="0" on="1"/>
        <pt x="1386" y="44" on="0"/>
        <pt x="1360" y="184" on="1"/>
        <pt x="1352" y="184" on="1"/>
        <pt x="1207" y="-20" on="0"/>
        <pt x="1012" y="-20" on="1"/>
        <pt x="795" y="-20" on="0"/>
        <pt x="752" y="207" on="1"/>
        <pt x="743" y="207" on="1"/>
        <pt x="598" y="-20" on="0"/>
        <pt x="385" y="-20" on="1"/>
        <pt x="252" y="-20" on="0"/>
        <pt x="106" y="146" on="0"/>
        <pt x="106" y="301" on="1"/>
        <pt x="106" y="374" on="0"/>
        <pt x="129" y="481" on="1"/>
        <pt x="262" y="1118" on="1"/>
        <pt x="563" y="1118" on="1"/>
        <pt x="426" y="465" on="1"/>
        <pt x="410" y="397" on="0"/>
        <pt x="410" y="346" on="1"/>
        <pt x="410" y="223" on="0"/>
        <pt x="508" y="223" on="1"/>
        <pt x="600" y="223" on="0"/>
        <pt x="746" y="444" on="0"/>
        <pt x="793" y="653" on="1"/>
        <pt x="889" y="1118" on="1"/>
      </contour>
    </TTGlyph>
    <TTGlyph name="afii10092" xMin="92" yMin="-20" xMax="1266" yMax="1118">
      <contour>
        <pt x="793" y="1118" on="1"/>
        <pt x="694" y="664" on="1"/>
        <pt x="782" y="686" on="0"/>
        <pt x="911" y="686" on="1"/>
        <pt x="1077" y="686" on="0"/>
        <pt x="1266" y="521" on="0"/>
        <pt x="1266" y="383" on="1"/>
        <pt x="1266" y="263" on="0"/>
        <pt x="1141" y="81" on="0"/>
        <pt x="902" y="-20" on="0"/>
        <pt x="731" y="-20" on="1"/>
        <pt x="536" y="-20" on="0"/>
        <pt x="332" y="146" on="0"/>
        <pt x="332" y="307" on="1"/>
        <pt x="332" y="377" on="0"/>
        <pt x="356" y="487" on="1"/>
        <pt x="444" y="889" on="1"/>
        <pt x="92" y="889" on="1"/>
        <pt x="141" y="1118" on="1"/>
      </contour>
      <contour>
        <pt x="631" y="317" on="1"/>
        <pt x="631" y="256" on="0"/>
        <pt x="707" y="190" on="0"/>
        <pt x="774" y="190" on="1"/>
        <pt x="860" y="190" on="0"/>
        <pt x="963" y="279" on="0"/>
        <pt x="963" y="352" on="1"/>
        <pt x="963" y="475" on="0"/>
        <pt x="813" y="475" on="1"/>
        <pt x="743" y="475" on="0"/>
        <pt x="653" y="457" on="1"/>
        <pt x="646" y="425" on="0"/>
        <pt x="631" y="347" on="0"/>
      </contour>
    </TTGlyph>
    <TTGlyph name="afii10093" xMin="106" yMin="-20" xMax="1610" yMax="1118">
      <contour>
        <pt x="565" y="1118" on="1"/>
        <pt x="467" y="664" on="1"/>
        <pt x="565" y="686" on="0"/>
        <pt x="670" y="686" on="1"/>
        <pt x="809" y="686" on="0"/>
        <pt x="983" y="522" on="0"/>
        <pt x="983" y="389" on="1"/>
        <pt x="983" y="268" on="0"/>
        <pt x="868" y="84" on="0"/>
        <pt x="648" y="-20" on="0"/>
        <pt x="496" y="-20" on="1"/>
        <pt x="106" y="-20" on="0"/>
        <pt x="106" y="305" on="1"/>
        <pt x="106" y="392" on="0"/>
        <pt x="129" y="494" on="1"/>
        <pt x="264" y="1118" on="1"/>
      </contour>
      <contour>
        <pt x="557" y="475" on="1"/>
        <pt x="500" y="475" on="0"/>
        <pt x="426" y="457" on="1"/>
        <pt x="411" y="390" on="0"/>
        <pt x="406" y="337" on="0"/>
        <pt x="406" y="313" on="1"/>
        <pt x="406" y="252" on="0"/>
        <pt x="468" y="190" on="0"/>
        <pt x="520" y="190" on="1"/>
        <pt x="593" y="190" on="0"/>
        <pt x="682" y="283" on="0"/>
        <pt x="682" y="356" on="1"/>
        <pt x="682" y="475" on="0"/>
      </contour>
      <contour>
        <pt x="1372" y="0" on="1"/>
        <pt x="1071" y="0" on="1"/>
        <pt x="1309" y="1118" on="1"/>
        <pt x="1610" y="1118" on="1"/>
      </contour>
    </TTGlyph>
    <TTGlyph name="afii10094" xMin="104" yMin="-20" xMax="1038" yMax="1118">
      <contour>
        <pt x="467" y="664" on="1"/>
        <pt x="553" y="686" on="0"/>
        <pt x="684" y="686" on="1"/>
        <pt x="850" y="686" on="0"/>
        <pt x="1038" y="520" on="0"/>
        <pt x="1038" y="383" on="1"/>
        <pt x="1038" y="262" on="0"/>
        <pt x="914" y="81" on="0"/>
        <pt x="675" y="-20" on="0"/>
        <pt x="504" y="-20" on="1"/>
        <pt x="309" y="-20" on="0"/>
        <pt x="104" y="147" on="0"/>
        <pt x="104" y="307" on="1"/>
        <pt x="104" y="372" on="0"/>
        <pt x="129" y="487" on="1"/>
        <pt x="264" y="1118" on="1"/>
        <pt x="565" y="1118" on="1"/>
      </contour>
      <contour>
        <pt x="586" y="475" on="1"/>
        <pt x="516" y="475" on="0"/>
        <pt x="426" y="457" on="1"/>
        <pt x="403" y="354" on="0"/>
        <pt x="403" y="317" on="1"/>
        <pt x="403" y="255" on="0"/>
        <pt x="481" y="190" on="0"/>
        <pt x="547" y="190" on="1"/>
        <pt x="633" y="190" on="0"/>
        <pt x="735" y="280" on="0"/>
        <pt x="735" y="352" on="1"/>
        <pt x="735" y="475" on="0"/>
      </contour>
    </TTGlyph>
    <TTGlyph name="afii10095" xMin="31" yMin="-20" xMax="899" yMax="1139">
      <contour>
        <pt x="489" y="1139" on="1"/>
        <pt x="684" y="1139" on="0"/>
        <pt x="899" y="905" on="0"/>
        <pt x="899" y="690" on="1"/>
        <pt x="899" y="477" on="0"/>
        <pt x="754" y="155" on="0"/>
        <pt x="478" y="-20" on="0"/>
        <pt x="287" y="-20" on="1"/>
        <pt x="135" y="-20" on="0"/>
        <pt x="31" y="35" on="1"/>
        <pt x="31" y="287" on="1"/>
        <pt x="83" y="262" on="0"/>
        <pt x="203" y="223" on="0"/>
        <pt x="281" y="223" on="1"/>
        <pt x="394" y="223" on="0"/>
        <pt x="534" y="340" on="0"/>
        <pt x="567" y="463" on="1"/>
        <pt x="195" y="463" on="1"/>
        <pt x="238" y="666" on="1"/>
        <pt x="594" y="666" on="1"/>
        <pt x="596" y="685" on="1"/>
        <pt x="596" y="705" on="1"/>
        <pt x="596" y="796" on="0"/>
        <pt x="509" y="895" on="0"/>
        <pt x="428" y="895" on="1"/>
        <pt x="371" y="895" on="0"/>
        <pt x="278" y="863" on="0"/>
        <pt x="221" y="836" on="1"/>
        <pt x="141" y="1057" on="1"/>
        <pt x="305" y="1139" on="0"/>
      </contour>
    </TTGlyph>
    <TTGlyph name="afii10096" xMin="37" yMin="-20" xMax="1620" yMax="1139">
      <contour>
        <pt x="1620" y="696" on="1"/>
        <pt x="1620" y="485" on="0"/>
        <pt x="1485" y="159" on="0"/>
        <pt x="1230" y="-20" on="0"/>
        <pt x="1055" y="-20" on="1"/>
        <pt x="861" y="-20" on="0"/>
        <pt x="645" y="206" on="0"/>
        <pt x="645" y="408" on="1"/>
        <pt x="645" y="461" on="1"/>
        <pt x="438" y="461" on="1"/>
        <pt x="340" y="0" on="1"/>
        <pt x="37" y="0" on="1"/>
        <pt x="276" y="1118" on="1"/>
        <pt x="580" y="1118" on="1"/>
        <pt x="487" y="688" on="1"/>
        <pt x="680" y="688" on="1"/>
        <pt x="737" y="902" on="0"/>
        <pt x="1013" y="1139" on="0"/>
        <pt x="1212" y="1139" on="1"/>
        <pt x="1406" y="1139" on="0"/>
        <pt x="1620" y="905" on="0"/>
      </contour>
      <contour>
        <pt x="1186" y="893" on="1"/>
        <pt x="1118" y="893" on="0"/>
        <pt x="1008" y="763" on="0"/>
        <pt x="940" y="531" on="0"/>
        <pt x="940" y="410" on="1"/>
        <pt x="940" y="225" on="0"/>
        <pt x="1077" y="225" on="1"/>
        <pt x="1141" y="225" on="0"/>
        <pt x="1251" y="350" on="0"/>
        <pt x="1317" y="573" on="0"/>
        <pt x="1317" y="696" on="1"/>
        <pt x="1317" y="893" on="0"/>
      </contour>
    </TTGlyph>
    <TTGlyph name="afii10097" xMin="-20" yMin="-20" xMax="1155" yMax="1118">
      <contour>
        <pt x="647" y="416" on="1"/>
        <pt x="590" y="416" on="0"/>
        <pt x="508" y="337" on="0"/>
        <pt x="462" y="237" on="1"/>
        <pt x="396" y="96" on="0"/>
        <pt x="242" y="-20" on="0"/>
        <pt x="131" y="-20" on="1"/>
        <pt x="40" y="-20" on="0"/>
        <pt x="-20" y="4" on="1"/>
        <pt x="-20" y="252" on="1"/>
        <pt x="20" y="236" on="0"/>
        <pt x="57" y="236" on="1"/>
        <pt x="99" y="236" on="0"/>
        <pt x="152" y="281" on="0"/>
        <pt x="172" y="315" on="1"/>
        <pt x="230" y="411" on="0"/>
        <pt x="309" y="489" on="0"/>
        <pt x="362" y="504" on="1"/>
        <pt x="205" y="569" on="0"/>
        <pt x="205" y="739" on="1"/>
        <pt x="205" y="917" on="0"/>
        <pt x="460" y="1118" on="0"/>
        <pt x="688" y="1118" on="1"/>
        <pt x="1155" y="1118" on="1"/>
        <pt x="920" y="0" on="1"/>
        <pt x="618" y="0" on="1"/>
        <pt x="709" y="416" on="1"/>
      </contour>
      <contour>
        <pt x="684" y="903" on="1"/>
        <pt x="605" y="903" on="0"/>
        <pt x="512" y="816" on="0"/>
        <pt x="512" y="743" on="1"/>
        <pt x="512" y="688" on="0"/>
        <pt x="582" y="621" on="0"/>
        <pt x="659" y="621" on="1"/>
        <pt x="752" y="621" on="1"/>
        <pt x="811" y="903" on="1"/>
      </contour>
    </TTGlyph>
    <TTGlyph name="afii10098" xMin="37" yMin="0" xMax="1077" yMax="1423">
      <contour>
        <pt x="961" y="870" on="1"/>
        <pt x="522" y="870" on="1"/>
        <pt x="338" y="0" on="1"/>
        <pt x="37" y="0" on="1"/>
        <pt x="274" y="1118" on="1"/>
        <pt x="735" y="1118" on="1"/>
        <pt x="799" y="1423" on="1"/>
        <pt x="1077" y="1423" on="1"/>
      </contour>
    </TTGlyph>
    <TTGlyph name="afii10099" xMin="37" yMin="-492" xMax="1120" yMax="1556">
      <contour>
        <pt x="635" y="1395" on="1"/>
        <pt x="934" y="1395" on="1"/>
        <pt x="891" y="1196" on="1"/>
        <pt x="594" y="1196" on="1"/>
        <pt x="556" y="1009" on="0"/>
        <pt x="512" y="907" on="1"/>
        <pt x="520" y="907" on="1"/>
        <pt x="582" y="985" on="0"/>
        <pt x="731" y="1077" on="0"/>
        <pt x="831" y="1077" on="1"/>
        <pt x="971" y="1077" on="0"/>
        <pt x="1120" y="909" on="0"/>
        <pt x="1120" y="756" on="1"/>
        <pt x="1120" y="677" on="0"/>
        <pt x="1098" y="575" on="1"/>
        <pt x="952" y="-117" on="1"/>
        <pt x="911" y="-309" on="0"/>
        <pt x="710" y="-492" on="0"/>
        <pt x="547" y="-492" on="1"/>
        <pt x="443" y="-492" on="0"/>
        <pt x="373" y="-467" on="1"/>
        <pt x="373" y="-225" on="1"/>
        <pt x="434" y="-246" on="0"/>
        <pt x="487" y="-246" on="1"/>
        <pt x="548" y="-246" on="0"/>
        <pt x="641" y="-165" on="0"/>
        <pt x="659" y="-76" on="1"/>
        <pt x="801" y="592" on="1"/>
        <pt x="817" y="660" on="0"/>
        <pt x="817" y="711" on="1"/>
        <pt x="817" y="834" on="0"/>
        <pt x="711" y="834" on="1"/>
        <pt x="619" y="834" on="0"/>
        <pt x="470" y="607" on="0"/>
        <pt x="426" y="401" on="1"/>
        <pt x="338" y="0" on="1"/>
        <pt x="37" y="0" on="1"/>
        <pt x="289" y="1196" on="1"/>
        <pt x="129" y="1196" on="1"/>
        <pt x="172" y="1395" on="1"/>
        <pt x="332" y="1395" on="1"/>
        <pt x="367" y="1556" on="1"/>
        <pt x="668" y="1556" on="1"/>
      </contour>
      <contour>
        <pt x="1089" y="1118" on="1"/>
      </contour>
    </TTGlyph>
    <TTGlyph name="afii10100" xMin="20" yMin="-20" xMax="1042" yMax="1569">
      <component glyphName="afii10068" x="0" y="0" flags="0x204"/>
      <component glyphName="acute" x="2" y="0" flags="0x4"/>
    </TTGlyph>
    <TTGlyph name="afii10101" xMin="90" yMin="-20" xMax="1010" yMax="1139">
      <contour>
        <pt x="506" y="-20" on="1"/>
        <pt x="306" y="-20" on="0"/>
        <pt x="90" y="196" on="0"/>
        <pt x="90" y="393" on="1"/>
        <pt x="90" y="613" on="0"/>
        <pt x="241" y="959" on="0"/>
        <pt x="507" y="1139" on="0"/>
        <pt x="682" y="1139" on="1"/>
        <pt x="864" y="1139" on="0"/>
        <pt x="1010" y="1067" on="1"/>
        <pt x="918" y="838" on="1"/>
        <pt x="864" y="861" on="0"/>
        <pt x="760" y="895" on="0"/>
        <pt x="694" y="895" on="1"/>
        <pt x="603" y="895" on="0"/>
        <pt x="464" y="780" on="0"/>
        <pt x="430" y="666" on="1"/>
        <pt x="797" y="666" on="1"/>
        <pt x="754" y="463" on="1"/>
        <pt x="395" y="463" on="1"/>
        <pt x="393" y="439" on="1"/>
        <pt x="393" y="416" on="1"/>
        <pt x="393" y="223" on="0"/>
        <pt x="567" y="223" on="1"/>
        <pt x="643" y="223" on="0"/>
        <pt x="773" y="270" on="0"/>
        <pt x="842" y="305" on="1"/>
        <pt x="842" y="59" on="1"/>
        <pt x="690" y="-20" on="0"/>
      </contour>
    </TTGlyph>
    <TTGlyph name="afii10102" xMin="23" yMin="-20" xMax="928" yMax="1139">
      <component glyphName="s" x="0" y="0" flags="0x204"/>
    </TTGlyph>
    <TTGlyph name="afii10103" xMin="37" yMin="0" xMax="653" yMax="1556">
      <component glyphName="i" x="0" y="0" flags="0x204"/>
    </TTGlyph>
    <TTGlyph name="afii10104" xMin="37" yMin="0" xMax="804" yMax="1540">
      <component glyphName="dotlessi" x="0" y="0" flags="0x204"/>
      <component glyphName="dieresis" x="-271" y="0" flags="0x4"/>
    </TTGlyph>
    <TTGlyph name="afii10105" xMin="-264" yMin="-492" xMax="655" yMax="1556">
      <component glyphName="j" x="0" y="0" flags="0x204"/>
    </TTGlyph>
    <TTGlyph name="afii10106" xMin="-59" yMin="-20" xMax="1659" yMax="1139">
      <contour>
        <pt x="1087" y="664" on="1"/>
        <pt x="1195" y="686" on="0"/>
        <pt x="1305" y="686" on="1"/>
        <pt x="1470" y="686" on="0"/>
        <pt x="1659" y="521" on="0"/>
        <pt x="1659" y="383" on="1"/>
        <pt x="1659" y="262" on="0"/>
        <pt x="1535" y="81" on="0"/>
        <pt x="1296" y="-20" on="0"/>
        <pt x="1124" y="-20" on="1"/>
        <pt x="929" y="-20" on="0"/>
        <pt x="725" y="146" on="0"/>
        <pt x="725" y="307" on="1"/>
        <pt x="725" y="380" on="0"/>
        <pt x="750" y="487" on="1"/>
        <pt x="840" y="889" on="1"/>
        <pt x="795" y="893" on="1"/>
        <pt x="728" y="893" on="0"/>
        <pt x="639" y="829" on="0"/>
        <pt x="568" y="694" on="0"/>
        <pt x="500" y="477" on="1"/>
        <pt x="428" y="245" on="0"/>
        <pt x="325" y="71" on="0"/>
        <pt x="185" y="-20" on="0"/>
        <pt x="84" y="-20" on="1"/>
        <pt x="33" y="-20" on="0"/>
        <pt x="-26" y="-8" on="0"/>
        <pt x="-59" y="4" on="1"/>
        <pt x="-59" y="252" on="1"/>
        <pt x="-22" y="236" on="0"/>
        <pt x="25" y="236" on="1"/>
        <pt x="76" y="236" on="0"/>
        <pt x="153" y="339" on="0"/>
        <pt x="188" y="451" on="1"/>
        <pt x="231" y="586" on="1"/>
        <pt x="312" y="837" on="0"/>
        <pt x="454" y="1047" on="0"/>
        <pt x="658" y="1139" on="0"/>
        <pt x="815" y="1139" on="1"/>
        <pt x="1021" y="1139" on="0"/>
        <pt x="1178" y="1081" on="1"/>
      </contour>
      <contour>
        <pt x="1206" y="475" on="1"/>
        <pt x="1137" y="475" on="0"/>
        <pt x="1047" y="457" on="1"/>
        <pt x="1027" y="366" on="0"/>
        <pt x="1024" y="331" on="0"/>
        <pt x="1024" y="317" on="1"/>
        <pt x="1024" y="256" on="0"/>
        <pt x="1100" y="190" on="0"/>
        <pt x="1167" y="190" on="1"/>
        <pt x="1253" y="190" on="0"/>
        <pt x="1356" y="279" on="0"/>
        <pt x="1356" y="352" on="1"/>
        <pt x="1356" y="475" on="0"/>
      </contour>
    </TTGlyph>
    <TTGlyph name="afii10107" xMin="49" yMin="-20" xMax="1659" yMax="1118">
      <contour>
        <pt x="1087" y="664" on="1"/>
        <pt x="1203" y="686" on="0"/>
        <pt x="1305" y="686" on="1"/>
        <pt x="1470" y="686" on="0"/>
        <pt x="1659" y="521" on="0"/>
        <pt x="1659" y="383" on="1"/>
        <pt x="1659" y="262" on="0"/>
        <pt x="1535" y="81" on="0"/>
        <pt x="1296" y="-20" on="0"/>
        <pt x="1124" y="-20" on="1"/>
        <pt x="929" y="-20" on="0"/>
        <pt x="725" y="146" on="0"/>
        <pt x="725" y="307" on="1"/>
        <pt x="725" y="368" on="0"/>
        <pt x="745" y="461" on="1"/>
        <pt x="451" y="461" on="1"/>
        <pt x="352" y="0" on="1"/>
        <pt x="49" y="0" on="1"/>
        <pt x="289" y="1118" on="1"/>
        <pt x="592" y="1118" on="1"/>
        <pt x="500" y="688" on="1"/>
        <pt x="795" y="688" on="1"/>
        <pt x="885" y="1118" on="1"/>
        <pt x="1186" y="1118" on="1"/>
      </contour>
      <contour>
        <pt x="1206" y="475" on="1"/>
        <pt x="1137" y="475" on="0"/>
        <pt x="1047" y="457" on="1"/>
        <pt x="1027" y="366" on="0"/>
        <pt x="1024" y="331" on="0"/>
        <pt x="1024" y="317" on="1"/>
        <pt x="1024" y="256" on="0"/>
        <pt x="1100" y="190" on="0"/>
        <pt x="1167" y="190" on="1"/>
        <pt x="1253" y="190" on="0"/>
        <pt x="1356" y="279" on="0"/>
        <pt x="1356" y="352" on="1"/>
        <pt x="1356" y="475" on="0"/>
      </contour>
    </TTGlyph>
    <TTGlyph name="afii10108" xMin="37" yMin="0" xMax="1120" yMax="1556">
      <component glyphName="hbar" x="0" y="0" flags="0x204"/>
    </TTGlyph>
    <TTGlyph name="afii10109" xMin="37" yMin="0" xMax="1251" yMax="1569">
      <component glyphName="afii10076" x="0" y="0" flags="0x204"/>
      <component glyphName="acute" x="141" y="0" flags="0x4"/>
    </TTGlyph>
    <TTGlyph name="afii10110" xMin="-141" yMin="-492" xMax="1169" yMax="1599">
      <component glyphName="y" x="0" y="0" flags="0x204"/>
      <component glyphName="glyph00566" x="-101" y="0" flags="0x4"/>
    </TTGlyph>
    <TTGlyph name="afii10145" xMin="53" yMin="-426" xMax="1434" yMax="1462">
      <contour>
        <pt x="362" y="1462" on="1"/>
        <pt x="670" y="1462" on="1"/>
        <pt x="414" y="258" on="1"/>
        <pt x="874" y="258" on="1"/>
        <pt x="1130" y="1462" on="1"/>
        <pt x="1434" y="1462" on="1"/>
        <pt x="1124" y="0" on="1"/>
        <pt x="741" y="0" on="1"/>
        <pt x="649" y="-426" on="1"/>
        <pt x="346" y="-426" on="1"/>
        <pt x="438" y="0" on="1"/>
        <pt x="53" y="0" on="1"/>
      </contour>
    </TTGlyph>
    <TTGlyph name="afii10146" xMin="106" yMin="0" xMax="1180" yMax="1462">
      <contour>
        <pt x="1180" y="492" on="1"/>
        <pt x="1180" y="255" on="0"/>
        <pt x="864" y="0" on="0"/>
        <pt x="565" y="0" on="1"/>
        <pt x="127" y="0" on="1"/>
        <pt x="350" y="1040" on="1"/>
        <pt x="106" y="1040" on="1"/>
        <pt x="156" y="1270" on="1"/>
        <pt x="397" y="1270" on="1"/>
        <pt x="436" y="1462" on="1"/>
        <pt x="741" y="1462" on="1"/>
        <pt x="702" y="1270" on="1"/>
        <pt x="993" y="1270" on="1"/>
        <pt x="944" y="1040" on="1"/>
        <pt x="653" y="1040" on="1"/>
        <pt x="623" y="901" on="1"/>
        <pt x="690" y="901" on="1"/>
        <pt x="928" y="901" on="0"/>
        <pt x="1180" y="692" on="0"/>
      </contour>
      <contour>
        <pt x="485" y="254" on="1"/>
        <pt x="586" y="254" on="1"/>
        <pt x="726" y="254" on="0"/>
        <pt x="870" y="371" on="0"/>
        <pt x="870" y="477" on="1"/>
        <pt x="870" y="647" on="0"/>
        <pt x="678" y="647" on="1"/>
        <pt x="569" y="647" on="1"/>
      </contour>
    </TTGlyph>
    <TTGlyph name="afii10147" xMin="123" yMin="-20" xMax="1432" yMax="1485">
      <contour>
        <pt x="1432" y="938" on="1"/>
        <pt x="1432" y="655" on="0"/>
        <pt x="1234" y="208" on="0"/>
        <pt x="890" y="-20" on="0"/>
        <pt x="666" y="-20" on="1"/>
        <pt x="410" y="-20" on="0"/>
        <pt x="123" y="275" on="0"/>
        <pt x="123" y="537" on="1"/>
        <pt x="123" y="802" on="0"/>
        <pt x="321" y="1247" on="0"/>
        <pt x="669" y="1485" on="0"/>
        <pt x="897" y="1485" on="1"/>
        <pt x="1152" y="1485" on="0"/>
        <pt x="1432" y="1197" on="0"/>
      </contour>
      <contour>
        <pt x="688" y="240" on="1"/>
        <pt x="817" y="240" on="0"/>
        <pt x="1029" y="441" on="0"/>
        <pt x="1081" y="621" on="1"/>
        <pt x="436" y="621" on="1"/>
        <pt x="432" y="593" on="0"/>
        <pt x="432" y="537" on="1"/>
        <pt x="432" y="390" on="0"/>
        <pt x="567" y="240" on="0"/>
      </contour>
      <contour>
        <pt x="872" y="1227" on="1"/>
        <pt x="752" y="1227" on="0"/>
        <pt x="548" y="1044" on="0"/>
        <pt x="487" y="879" on="1"/>
        <pt x="1120" y="879" on="1"/>
        <pt x="1122" y="930" on="1"/>
        <pt x="1122" y="1069" on="0"/>
        <pt x="992" y="1227" on="0"/>
      </contour>
    </TTGlyph>
    <TTGlyph name="afii10148" xMin="184" yMin="0" xMax="1473" yMax="1475">
      <contour>
        <pt x="537" y="305" on="1"/>
        <pt x="556" y="363" on="0"/>
        <pt x="630" y="548" on="0"/>
        <pt x="647" y="582" on="1"/>
        <pt x="877" y="1063" on="1"/>
        <pt x="969" y="1254" on="0"/>
        <pt x="1087" y="1403" on="0"/>
        <pt x="1226" y="1475" on="0"/>
        <pt x="1321" y="1475" on="1"/>
        <pt x="1403" y="1475" on="0"/>
        <pt x="1473" y="1446" on="1"/>
        <pt x="1473" y="1198" on="1"/>
        <pt x="1421" y="1217" on="0"/>
        <pt x="1376" y="1217" on="1"/>
        <pt x="1312" y="1217" on="0"/>
        <pt x="1222" y="1127" on="0"/>
        <pt x="1171" y="1028" on="1"/>
        <pt x="645" y="0" on="1"/>
        <pt x="311" y="0" on="1"/>
        <pt x="184" y="1462" on="1"/>
        <pt x="479" y="1462" on="1"/>
        <pt x="530" y="614" on="1"/>
        <pt x="535" y="467" on="1"/>
        <pt x="535" y="394" on="0"/>
        <pt x="528" y="305" on="1"/>
      </contour>
    </TTGlyph>
    <TTGlyph name="afii10193" xMin="106" yMin="-492" xMax="1202" yMax="1118">
      <contour>
        <pt x="596" y="-41" on="1"/>
        <pt x="645" y="-41" on="1"/>
        <pt x="549" y="-492" on="1"/>
        <pt x="268" y="-492" on="1"/>
        <pt x="344" y="-147" on="1"/>
      </contour>
      <contour>
        <pt x="563" y="1118" on="1"/>
        <pt x="426" y="465" on="1"/>
        <pt x="410" y="397" on="0"/>
        <pt x="410" y="346" on="1"/>
        <pt x="410" y="223" on="0"/>
        <pt x="518" y="223" on="1"/>
        <pt x="610" y="223" on="0"/>
        <pt x="760" y="451" on="0"/>
        <pt x="803" y="655" on="1"/>
        <pt x="901" y="1118" on="1"/>
        <pt x="1202" y="1118" on="1"/>
        <pt x="965" y="0" on="1"/>
        <pt x="737" y="0" on="1"/>
        <pt x="758" y="207" on="1"/>
        <pt x="750" y="207" on="1"/>
        <pt x="605" y="-20" on="0"/>
        <pt x="395" y="-20" on="1"/>
        <pt x="258" y="-20" on="0"/>
        <pt x="106" y="145" on="0"/>
        <pt x="106" y="301" on="1"/>
        <pt x="106" y="369" on="0"/>
        <pt x="135" y="514" on="1"/>
        <pt x="262" y="1118" on="1"/>
      </contour>
    </TTGlyph>
    <TTGlyph name="afii10194" xMin="61" yMin="-20" xMax="1120" yMax="1319">
      <contour>
        <pt x="887" y="889" on="1"/>
        <pt x="598" y="889" on="1"/>
        <pt x="549" y="664" on="1"/>
        <pt x="635" y="686" on="0"/>
        <pt x="766" y="686" on="1"/>
        <pt x="931" y="686" on="0"/>
        <pt x="1120" y="521" on="0"/>
        <pt x="1120" y="383" on="1"/>
        <pt x="1120" y="262" on="0"/>
        <pt x="996" y="81" on="0"/>
        <pt x="757" y="-20" on="0"/>
        <pt x="586" y="-20" on="1"/>
        <pt x="391" y="-20" on="0"/>
        <pt x="186" y="147" on="0"/>
        <pt x="186" y="307" on="1"/>
        <pt x="186" y="375" on="0"/>
        <pt x="211" y="492" on="1"/>
        <pt x="297" y="889" on="1"/>
        <pt x="61" y="889" on="1"/>
        <pt x="109" y="1118" on="1"/>
        <pt x="348" y="1118" on="1"/>
        <pt x="391" y="1319" on="1"/>
        <pt x="692" y="1319" on="1"/>
        <pt x="647" y="1118" on="1"/>
        <pt x="934" y="1118" on="1"/>
      </contour>
      <contour>
        <pt x="668" y="475" on="1"/>
        <pt x="598" y="475" on="0"/>
        <pt x="508" y="457" on="1"/>
        <pt x="485" y="354" on="0"/>
        <pt x="485" y="317" on="1"/>
        <pt x="485" y="255" on="0"/>
        <pt x="563" y="190" on="0"/>
        <pt x="629" y="190" on="1"/>
        <pt x="715" y="190" on="0"/>
        <pt x="817" y="280" on="0"/>
        <pt x="817" y="352" on="1"/>
        <pt x="817" y="475" on="0"/>
      </contour>
    </TTGlyph>
    <TTGlyph name="afii10195" xMin="90" yMin="-20" xMax="1108" yMax="1139">
      <contour>
        <pt x="1108" y="696" on="1"/>
        <pt x="1108" y="485" on="0"/>
        <pt x="967" y="159" on="0"/>
        <pt x="701" y="-20" on="0"/>
        <pt x="518" y="-20" on="1"/>
        <pt x="323" y="-20" on="0"/>
        <pt x="90" y="215" on="0"/>
        <pt x="90" y="410" on="1"/>
        <pt x="90" y="623" on="0"/>
        <pt x="233" y="956" on="0"/>
        <pt x="503" y="1139" on="0"/>
        <pt x="684" y="1139" on="1"/>
        <pt x="880" y="1139" on="0"/>
        <pt x="1108" y="903" on="0"/>
      </contour>
      <contour>
        <pt x="543" y="219" on="1"/>
        <pt x="620" y="219" on="0"/>
        <pt x="744" y="343" on="0"/>
        <pt x="778" y="457" on="1"/>
        <pt x="389" y="457" on="1"/>
        <pt x="387" y="428" on="1"/>
        <pt x="387" y="408" on="1"/>
        <pt x="387" y="317" on="0"/>
        <pt x="467" y="219" on="0"/>
      </contour>
      <contour>
        <pt x="662" y="901" on="1"/>
        <pt x="587" y="901" on="0"/>
        <pt x="464" y="778" on="0"/>
        <pt x="428" y="668" on="1"/>
        <pt x="811" y="668" on="1"/>
        <pt x="811" y="696" on="1"/>
        <pt x="811" y="796" on="0"/>
        <pt x="735" y="901" on="0"/>
      </contour>
    </TTGlyph>
    <TTGlyph name="afii10196" xMin="102" yMin="0" xMax="1190" yMax="1126">
      <contour>
        <pt x="455" y="309" on="1"/>
        <pt x="487" y="398" on="0"/>
        <pt x="547" y="524" on="1"/>
        <pt x="684" y="805" on="1"/>
        <pt x="750" y="942" on="0"/>
        <pt x="852" y="1067" on="0"/>
        <pt x="975" y="1126" on="0"/>
        <pt x="1059" y="1126" on="1"/>
        <pt x="1134" y="1126" on="0"/>
        <pt x="1190" y="1100" on="1"/>
        <pt x="1190" y="862" on="1"/>
        <pt x="1148" y="881" on="0"/>
        <pt x="1110" y="881" on="1"/>
        <pt x="1075" y="881" on="0"/>
        <pt x="1014" y="833" on="0"/>
        <pt x="969" y="751" on="0"/>
        <pt x="563" y="0" on="1"/>
        <pt x="240" y="0" on="1"/>
        <pt x="102" y="1118" on="1"/>
        <pt x="397" y="1118" on="1"/>
        <pt x="442" y="532" on="1"/>
        <pt x="446" y="448" on="0"/>
        <pt x="446" y="368" on="1"/>
        <pt x="446" y="309" on="1"/>
      </contour>
    </TTGlyph>
    <TTGlyph name="afii10846" xMin="51" yMin="-20" xMax="1051" yMax="1139">
      <contour>
        <pt x="444" y="197" on="1"/>
        <pt x="532" y="197" on="0"/>
        <pt x="688" y="354" on="0"/>
        <pt x="713" y="471" on="1"/>
        <pt x="668" y="471" on="1"/>
        <pt x="513" y="471" on="0"/>
        <pt x="340" y="374" on="0"/>
        <pt x="340" y="291" on="1"/>
        <pt x="340" y="197" on="0"/>
      </contour>
      <contour>
        <pt x="608" y="1139" on="1"/>
        <pt x="818" y="1139" on="0"/>
        <pt x="1051" y="912" on="0"/>
        <pt x="1051" y="707" on="1"/>
        <pt x="1051" y="503" on="0"/>
        <pt x="890" y="163" on="0"/>
        <pt x="607" y="-20" on="0"/>
        <pt x="426" y="-20" on="1"/>
        <pt x="249" y="-20" on="0"/>
        <pt x="51" y="143" on="0"/>
        <pt x="51" y="285" on="1"/>
        <pt x="51" y="471" on="0"/>
        <pt x="384" y="674" on="0"/>
        <pt x="694" y="674" on="1"/>
        <pt x="745" y="674" on="1"/>
        <pt x="748" y="715" on="1"/>
        <pt x="748" y="806" on="0"/>
        <pt x="645" y="911" on="0"/>
        <pt x="549" y="911" on="1"/>
        <pt x="462" y="911" on="0"/>
        <pt x="320" y="873" on="0"/>
        <pt x="219" y="825" on="1"/>
        <pt x="219" y="1053" on="1"/>
        <pt x="322" y="1102" on="0"/>
        <pt x="503" y="1139" on="0"/>
      </contour>
    </TTGlyph>
    <TTGlyph name="afii299" xMin="-41" yMin="-272" xMax="434" yMax="1413">
      <contour>
        <pt x="434" y="1194" on="1"/>
        <pt x="213" y="975" on="1"/>
        <pt x="158" y="1028" on="1"/>
        <pt x="289" y="1153" on="1"/>
        <pt x="41" y="1153" on="1"/>
        <pt x="41" y="-272" on="1"/>
        <pt x="-41" y="-272" on="1"/>
        <pt x="-41" y="1233" on="1"/>
        <pt x="289" y="1233" on="1"/>
        <pt x="158" y="1358" on="1"/>
        <pt x="213" y="1413" on="1"/>
      </contour>
    </TTGlyph>
    <TTGlyph name="afii300" xMin="-436" yMin="-272" xMax="41" yMax="1413">
      <contour>
        <pt x="41" y="-272" on="1"/>
        <pt x="-43" y="-272" on="1"/>
        <pt x="-43" y="1153" on="1"/>
        <pt x="-291" y="1153" on="1"/>
        <pt x="-158" y="1028" on="1"/>
        <pt x="-213" y="975" on="1"/>
        <pt x="-436" y="1194" on="1"/>
        <pt x="-213" y="1413" on="1"/>
        <pt x="-158" y="1358" on="1"/>
        <pt x="-291" y="1233" on="1"/>
        <pt x="41" y="1233" on="1"/>
      </contour>
    </TTGlyph>
    <TTGlyph name="afii301" xMin="-223" yMin="-272" xMax="223" yMax="1413">
      <contour>
        <pt x="43" y="-272" on="1"/>
        <pt x="-43" y="-272" on="1"/>
        <pt x="-43" y="1096" on="1"/>
        <pt x="-170" y="969" on="1"/>
        <pt x="-223" y="1024" on="1"/>
        <pt x="-55" y="1192" on="1"/>
        <pt x="-223" y="1358" on="1"/>
        <pt x="-170" y="1413" on="1"/>
        <pt x="0" y="1243" on="1"/>
        <pt x="170" y="1413" on="1"/>
        <pt x="223" y="1358" on="1"/>
        <pt x="55" y="1192" on="1"/>
        <pt x="223" y="1024" on="1"/>
        <pt x="170" y="969" on="1"/>
        <pt x="43" y="1096" on="1"/>
      </contour>
    </TTGlyph>
    <TTGlyph name="afii57929" xMin="106" yMin="961" xMax="594" yMax="1462">
      <component glyphName="quoteright" x="0" y="0" flags="0x204"/>
    </TTGlyph>
    <TTGlyph name="afii61248" xMin="123" yMin="-20" xMax="1468" yMax="1479">
      <contour>
        <pt x="426" y="752" on="1"/>
        <pt x="298" y="752" on="0"/>
        <pt x="154" y="899" on="0"/>
        <pt x="154" y="1024" on="1"/>
        <pt x="154" y="1223" on="0"/>
        <pt x="356" y="1479" on="0"/>
        <pt x="524" y="1479" on="1"/>
        <pt x="633" y="1479" on="0"/>
        <pt x="731" y="1438" on="1"/>
        <pt x="676" y="1280" on="1"/>
        <pt x="591" y="1315" on="0"/>
        <pt x="532" y="1315" on="1"/>
        <pt x="482" y="1315" on="0"/>
        <pt x="405" y="1235" on="0"/>
        <pt x="362" y="1105" on="0"/>
        <pt x="362" y="1040" on="1"/>
        <pt x="362" y="980" on="0"/>
        <pt x="416" y="915" on="0"/>
        <pt x="467" y="915" on="1"/>
        <pt x="500" y="915" on="0"/>
        <pt x="561" y="931" on="0"/>
        <pt x="625" y="963" on="1"/>
        <pt x="625" y="801" on="1"/>
        <pt x="529" y="752" on="0"/>
      </contour>
      <contour>
        <pt x="1446" y="1462" on="1"/>
        <pt x="362" y="0" on="1"/>
        <pt x="123" y="0" on="1"/>
        <pt x="1210" y="1462" on="1"/>
      </contour>
      <contour>
        <pt x="1468" y="422" on="1"/>
        <pt x="1468" y="222" on="0"/>
        <pt x="1266" y="-20" on="0"/>
        <pt x="1092" y="-20" on="1"/>
        <pt x="967" y="-20" on="0"/>
        <pt x="821" y="127" on="0"/>
        <pt x="821" y="256" on="1"/>
        <pt x="821" y="459" on="0"/>
        <pt x="1025" y="707" on="0"/>
        <pt x="1198" y="707" on="1"/>
        <pt x="1325" y="707" on="0"/>
        <pt x="1468" y="556" on="0"/>
      </contour>
      <contour>
        <pt x="1182" y="543" on="1"/>
        <pt x="1139" y="543" on="0"/>
        <pt x="1070" y="462" on="0"/>
        <pt x="1030" y="321" on="0"/>
        <pt x="1030" y="254" on="1"/>
        <pt x="1030" y="200" on="0"/>
        <pt x="1072" y="143" on="0"/>
        <pt x="1110" y="143" on="1"/>
        <pt x="1173" y="143" on="0"/>
        <pt x="1257" y="314" on="0"/>
        <pt x="1257" y="436" on="1"/>
        <pt x="1257" y="543" on="0"/>
      </contour>
    </TTGlyph>
    <TTGlyph name="afii61289" xMin="41" yMin="-18" xMax="950" yMax="1481">
      <contour>
        <pt x="623" y="190" on="1"/>
        <pt x="674" y="190" on="0"/>
        <pt x="738" y="289" on="0"/>
        <pt x="743" y="391" on="1"/>
        <pt x="950" y="391" on="1"/>
        <pt x="939" y="171" on="0"/>
        <pt x="765" y="-18" on="0"/>
        <pt x="590" y="-18" on="1"/>
        <pt x="417" y="-18" on="0"/>
        <pt x="223" y="189" on="0"/>
        <pt x="223" y="385" on="1"/>
        <pt x="223" y="512" on="1"/>
        <pt x="109" y="479" on="0"/>
        <pt x="41" y="463" on="1"/>
        <pt x="41" y="659" on="1"/>
        <pt x="139" y="685" on="0"/>
        <pt x="223" y="713" on="1"/>
        <pt x="223" y="1124" on="1"/>
        <pt x="223" y="1305" on="0"/>
        <pt x="398" y="1481" on="0"/>
        <pt x="588" y="1481" on="1"/>
        <pt x="742" y="1481" on="0"/>
        <pt x="920" y="1308" on="0"/>
        <pt x="920" y="1157" on="1"/>
        <pt x="920" y="1040" on="0"/>
        <pt x="842" y="860" on="0"/>
        <pt x="682" y="716" on="0"/>
        <pt x="516" y="631" on="1"/>
        <pt x="516" y="375" on="1"/>
        <pt x="516" y="190" on="0"/>
      </contour>
      <contour>
        <pt x="657" y="1151" on="1"/>
        <pt x="657" y="1290" on="0"/>
        <pt x="588" y="1290" on="1"/>
        <pt x="546" y="1290" on="0"/>
        <pt x="516" y="1214" on="0"/>
        <pt x="516" y="1151" on="1"/>
        <pt x="516" y="846" on="1"/>
        <pt x="657" y="925" on="0"/>
      </contour>
    </TTGlyph>
    <TTGlyph name="afii61352" xMin="25" yMin="0" xMax="1944" yMax="1462">
      <contour>
        <pt x="1055" y="0" on="1"/>
        <pt x="754" y="0" on="1"/>
        <pt x="496" y="1053" on="1"/>
        <pt x="488" y="975" on="0"/>
        <pt x="441" y="697" on="0"/>
        <pt x="426" y="629" on="1"/>
        <pt x="293" y="0" on="1"/>
        <pt x="25" y="0" on="1"/>
        <pt x="334" y="1462" on="1"/>
        <pt x="635" y="1462" on="1"/>
        <pt x="893" y="408" on="1"/>
        <pt x="913" y="604" on="0"/>
        <pt x="961" y="825" on="1"/>
        <pt x="1096" y="1462" on="1"/>
        <pt x="1364" y="1462" on="1"/>
      </contour>
      <contour>
        <pt x="1204" y="0" on="1"/>
        <pt x="1243" y="188" on="1"/>
        <pt x="1833" y="188" on="1"/>
        <pt x="1794" y="0" on="1"/>
      </contour>
      <contour>
        <pt x="1944" y="715" on="1"/>
        <pt x="1944" y="594" on="0"/>
        <pt x="1851" y="389" on="0"/>
        <pt x="1682" y="274" on="0"/>
        <pt x="1567" y="274" on="1"/>
        <pt x="1439" y="274" on="0"/>
        <pt x="1296" y="418" on="0"/>
        <pt x="1296" y="545" on="1"/>
        <pt x="1296" y="676" on="0"/>
        <pt x="1395" y="892" on="0"/>
        <pt x="1564" y="1001" on="0"/>
        <pt x="1675" y="1001" on="1"/>
        <pt x="1797" y="1001" on="0"/>
        <pt x="1944" y="848" on="0"/>
      </contour>
      <contour>
        <pt x="1737" y="733" on="1"/>
        <pt x="1737" y="778" on="0"/>
        <pt x="1701" y="838" on="0"/>
        <pt x="1663" y="838" on="1"/>
        <pt x="1620" y="838" on="0"/>
        <pt x="1550" y="759" on="0"/>
        <pt x="1505" y="609" on="0"/>
        <pt x="1505" y="537" on="1"/>
        <pt x="1505" y="438" on="0"/>
        <pt x="1579" y="438" on="1"/>
        <pt x="1621" y="438" on="0"/>
        <pt x="1691" y="513" on="0"/>
        <pt x="1737" y="666" on="0"/>
      </contour>
    </TTGlyph>
    <TTGlyph name="afii61573" xMin="-238" yMin="-272" xMax="238" yMax="1411">
      <contour>
        <pt x="238" y="977" on="1"/>
        <pt x="43" y="977" on="1"/>
        <pt x="43" y="-272" on="1"/>
        <pt x="-43" y="-272" on="1"/>
        <pt x="-43" y="977" on="1"/>
        <pt x="-238" y="977" on="1"/>
        <pt x="-238" y="1411" on="1"/>
        <pt x="238" y="1411" on="1"/>
      </contour>
    </TTGlyph>
    <TTGlyph name="afii61574" xMin="-238" yMin="-272" xMax="238" yMax="1411">
      <contour>
        <pt x="238" y="977" on="1"/>
        <pt x="43" y="977" on="1"/>
        <pt x="43" y="-272" on="1"/>
        <pt x="-43" y="-272" on="1"/>
        <pt x="-43" y="977" on="1"/>
        <pt x="-238" y="977" on="1"/>
        <pt x="-238" y="1411" on="1"/>
        <pt x="238" y="1411" on="1"/>
        <pt x="238" y="1331" on="1"/>
        <pt x="-158" y="1331" on="1"/>
        <pt x="-158" y="1055" on="1"/>
        <pt x="238" y="1055" on="1"/>
      </contour>
    </TTGlyph>
    <TTGlyph name="afii61575" xMin="-238" yMin="-272" xMax="238" yMax="1411">
      <contour>
        <pt x="-238" y="1055" on="1"/>
        <pt x="158" y="1055" on="1"/>
        <pt x="158" y="1331" on="1"/>
        <pt x="-238" y="1331" on="1"/>
        <pt x="-238" y="1411" on="1"/>
        <pt x="238" y="1411" on="1"/>
        <pt x="238" y="977" on="1"/>
        <pt x="43" y="977" on="1"/>
        <pt x="43" y="-272" on="1"/>
        <pt x="-43" y="-272" on="1"/>
        <pt x="-43" y="977" on="1"/>
        <pt x="-238" y="977" on="1"/>
      </contour>
    </TTGlyph>
    <TTGlyph name="afii61664" xMin="-43" yMin="-272" xMax="43" yMax="1286">
      <contour>
        <pt x="43" y="1286" on="1"/>
        <pt x="43" y="-272" on="1"/>
        <pt x="-43" y="-272" on="1"/>
        <pt x="-43" y="1286" on="1"/>
      </contour>
    </TTGlyph>
    <TTGlyph name="afii64937" xMin="223" yMin="961" xMax="510" yMax="1462">
      <component glyphName="quotereversed" x="0" y="0" flags="0x204"/>
    </TTGlyph>
    <TTGlyph name="agrave" xMin="90" yMin="-20" xMax="1182" yMax="1569">
      <component glyphName="a" x="0" y="0" flags="0x204"/>
      <component glyphName="grave" x="-65" y="0" flags="0x4"/>
    </TTGlyph>
    <TTGlyph name="alpha" xMin="90" yMin="-20" xMax="1241" yMax="1139">
      <contour>
        <pt x="889" y="967" on="1"/>
        <pt x="904" y="998" on="0"/>
        <pt x="961" y="1092" on="0"/>
        <pt x="987" y="1118" on="1"/>
        <pt x="1241" y="1118" on="1"/>
        <pt x="1196" y="1035" on="0"/>
        <pt x="1103" y="794" on="0"/>
        <pt x="1077" y="674" on="1"/>
        <pt x="1010" y="354" on="1"/>
        <pt x="1004" y="324" on="0"/>
        <pt x="1004" y="301" on="1"/>
        <pt x="1004" y="236" on="0"/>
        <pt x="1065" y="236" on="1"/>
        <pt x="1101" y="236" on="0"/>
        <pt x="1130" y="248" on="1"/>
        <pt x="1130" y="10" on="1"/>
        <pt x="1067" y="-20" on="0"/>
        <pt x="965" y="-20" on="1"/>
        <pt x="766" y="-20" on="0"/>
        <pt x="721" y="145" on="1"/>
        <pt x="713" y="145" on="1"/>
        <pt x="632" y="50" on="0"/>
        <pt x="487" y="-20" on="0"/>
        <pt x="395" y="-20" on="1"/>
        <pt x="250" y="-20" on="0"/>
        <pt x="90" y="193" on="0"/>
        <pt x="90" y="385" on="1"/>
        <pt x="90" y="597" on="0"/>
        <pt x="224" y="944" on="0"/>
        <pt x="466" y="1139" on="0"/>
        <pt x="616" y="1139" on="1"/>
        <pt x="705" y="1139" on="0"/>
        <pt x="830" y="1061" on="0"/>
        <pt x="881" y="967" on="1"/>
      </contour>
      <contour>
        <pt x="528" y="223" on="1"/>
        <pt x="605" y="223" on="0"/>
        <pt x="721" y="364" on="0"/>
        <pt x="788" y="633" on="0"/>
        <pt x="788" y="719" on="1"/>
        <pt x="788" y="799" on="0"/>
        <pt x="724" y="895" on="0"/>
        <pt x="659" y="895" on="1"/>
        <pt x="588" y="895" on="0"/>
        <pt x="467" y="759" on="0"/>
        <pt x="395" y="534" on="0"/>
        <pt x="395" y="414" on="1"/>
        <pt x="395" y="315" on="0"/>
        <pt x="460" y="223" on="0"/>
      </contour>
    </TTGlyph>
    <TTGlyph name="alphatonos" xMin="90" yMin="-20" xMax="1241" yMax="1630">
      <component glyphName="alpha" x="0" y="0" flags="0x204"/>
      <component glyphName="tonos" x="68" y="0" flags="0x4"/>
    </TTGlyph>
    <TTGlyph name="amacron" xMin="90" yMin="-20" xMax="1182" yMax="1452">
      <component glyphName="a" x="0" y="0" flags="0x204"/>
      <component glyphName="uni02C9" x="35" y="0" flags="0x4"/>
    </TTGlyph>
    <TTGlyph name="ampersand" xMin="68" yMin="-20" xMax="1430" yMax="1485">
      <contour>
        <pt x="1325" y="0" on="1"/>
        <pt x="975" y="0" on="1"/>
        <pt x="903" y="98" on="1"/>
        <pt x="728" y="-20" on="0"/>
        <pt x="500" y="-20" on="1"/>
        <pt x="291" y="-20" on="0"/>
        <pt x="68" y="175" on="0"/>
        <pt x="68" y="358" on="1"/>
        <pt x="68" y="503" on="0"/>
        <pt x="225" y="710" on="0"/>
        <pt x="420" y="807" on="1"/>
        <pt x="344" y="937" on="0"/>
        <pt x="344" y="1065" on="1"/>
        <pt x="344" y="1260" on="0"/>
        <pt x="579" y="1485" on="0"/>
        <pt x="778" y="1485" on="1"/>
        <pt x="947" y="1485" on="0"/>
        <pt x="1141" y="1320" on="0"/>
        <pt x="1141" y="1178" on="1"/>
        <pt x="1141" y="898" on="0"/>
        <pt x="776" y="752" on="1"/>
        <pt x="971" y="489" on="1"/>
        <pt x="1015" y="546" on="0"/>
        <pt x="1088" y="675" on="0"/>
        <pt x="1130" y="784" on="1"/>
        <pt x="1430" y="784" on="1"/>
        <pt x="1297" y="471" on="0"/>
        <pt x="1120" y="287" on="1"/>
      </contour>
      <contour>
        <pt x="541" y="623" on="1"/>
        <pt x="453" y="572" on="0"/>
        <pt x="383" y="465" on="0"/>
        <pt x="383" y="387" on="1"/>
        <pt x="383" y="322" on="0"/>
        <pt x="474" y="236" on="0"/>
        <pt x="545" y="236" on="1"/>
        <pt x="660" y="236" on="0"/>
        <pt x="766" y="295" on="1"/>
      </contour>
      <contour>
        <pt x="662" y="920" on="1"/>
        <pt x="775" y="979" on="0"/>
        <pt x="860" y="1083" on="0"/>
        <pt x="860" y="1143" on="1"/>
        <pt x="860" y="1200" on="0"/>
        <pt x="800" y="1251" on="0"/>
        <pt x="760" y="1251" on="1"/>
        <pt x="694" y="1251" on="0"/>
        <pt x="621" y="1158" on="0"/>
        <pt x="621" y="1085" on="1"/>
        <pt x="621" y="1039" on="0"/>
        <pt x="645" y="947" on="0"/>
      </contour>
    </TTGlyph>
    <TTGlyph name="anoteleia" xMin="131" yMin="553" xMax="485" yMax="893">
      <component glyphName="period" x="106" y="580" flags="0x4"/>
    </TTGlyph>
    <TTGlyph name="aogonek" xMin="90" yMin="-492" xMax="1182" yMax="1139">
      <component glyphName="a" x="0" y="0" flags="0x204"/>
      <component glyphName="ogonek" x="672" y="0" flags="0x4"/>
    </TTGlyph>
    <TTGlyph name="approxequal" xMin="109" yMin="348" xMax="1061" yMax="1090">
      <contour>
        <pt x="342" y="469" on="1"/>
        <pt x="291" y="469" on="0"/>
        <pt x="170" y="409" on="0"/>
        <pt x="109" y="348" on="1"/>
        <pt x="109" y="580" on="1"/>
        <pt x="211" y="688" on="0"/>
        <pt x="365" y="688" on="1"/>
        <pt x="424" y="688" on="0"/>
        <pt x="524" y="665" on="0"/>
        <pt x="621" y="625" on="1"/>
        <pt x="694" y="594" on="0"/>
        <pt x="779" y="569" on="0"/>
        <pt x="827" y="569" on="1"/>
        <pt x="935" y="569" on="0"/>
        <pt x="1061" y="690" on="1"/>
        <pt x="1061" y="459" on="1"/>
        <pt x="958" y="350" on="0"/>
        <pt x="805" y="350" on="1"/>
        <pt x="741" y="350" on="0"/>
        <pt x="635" y="378" on="0"/>
        <pt x="549" y="414" on="1"/>
        <pt x="471" y="447" on="0"/>
        <pt x="389" y="469" on="0"/>
      </contour>
      <contour>
        <pt x="342" y="868" on="1"/>
        <pt x="291" y="868" on="0"/>
        <pt x="169" y="807" on="0"/>
        <pt x="109" y="748" on="1"/>
        <pt x="109" y="979" on="1"/>
        <pt x="209" y="1087" on="0"/>
        <pt x="365" y="1087" on="1"/>
        <pt x="424" y="1087" on="0"/>
        <pt x="524" y="1064" on="0"/>
        <pt x="621" y="1024" on="1"/>
        <pt x="685" y="997" on="0"/>
        <pt x="779" y="969" on="0"/>
        <pt x="827" y="969" on="1"/>
        <pt x="878" y="969" on="0"/>
        <pt x="1000" y="1030" on="0"/>
        <pt x="1061" y="1090" on="1"/>
        <pt x="1061" y="858" on="1"/>
        <pt x="959" y="750" on="0"/>
        <pt x="805" y="750" on="1"/>
        <pt x="746" y="750" on="0"/>
        <pt x="646" y="773" on="0"/>
        <pt x="549" y="813" on="1"/>
        <pt x="471" y="846" on="0"/>
        <pt x="389" y="868" on="0"/>
      </contour>
    </TTGlyph>
    <TTGlyph name="aring" xMin="90" yMin="-20" xMax="1182" yMax="1714">
      <component glyphName="a" x="0" y="0" flags="0x204"/>
      <component glyphName="ring" x="-11" y="0" flags="0x4"/>
    </TTGlyph>
    <TTGlyph name="aringacute" xMin="90" yMin="-20" xMax="1233" yMax="2189">
      <contour>
        <pt x="680" y="1767" on="1"/>
        <pt x="719" y="1798" on="0"/>
        <pt x="853" y="1920" on="0"/>
        <pt x="891" y="1962" on="1"/>
        <pt x="1233" y="1962" on="1"/>
        <pt x="1233" y="1952" on="1"/>
        <pt x="1175" y="1903" on="0"/>
        <pt x="979" y="1791" on="0"/>
        <pt x="895" y="1753" on="1"/>
        <pt x="680" y="1753" on="1"/>
      </contour>
      <contour>
        <pt x="995" y="1438" on="1"/>
        <pt x="995" y="1331" on="0"/>
        <pt x="855" y="1198" on="0"/>
        <pt x="741" y="1198" on="1"/>
        <pt x="629" y="1198" on="0"/>
        <pt x="494" y="1327" on="0"/>
        <pt x="494" y="1436" on="1"/>
        <pt x="494" y="1544" on="0"/>
        <pt x="629" y="1673" on="0"/>
        <pt x="741" y="1673" on="1"/>
        <pt x="851" y="1673" on="0"/>
        <pt x="995" y="1543" on="0"/>
      </contour>
      <contour>
        <pt x="838" y="1436" on="1"/>
        <pt x="838" y="1481" on="0"/>
        <pt x="783" y="1532" on="0"/>
        <pt x="741" y="1532" on="1"/>
        <pt x="699" y="1532" on="0"/>
        <pt x="645" y="1481" on="0"/>
        <pt x="645" y="1436" on="1"/>
        <pt x="645" y="1391" on="0"/>
        <pt x="693" y="1339" on="0"/>
        <pt x="741" y="1339" on="1"/>
        <pt x="783" y="1339" on="0"/>
        <pt x="838" y="1391" on="0"/>
      </contour>
      <contour>
        <pt x="406" y="-20" on="1"/>
        <pt x="259" y="-20" on="0"/>
        <pt x="90" y="193" on="0"/>
        <pt x="90" y="385" on="1"/>
        <pt x="90" y="583" on="0"/>
        <pt x="234" y="942" on="0"/>
        <pt x="468" y="1139" on="0"/>
        <pt x="608" y="1139" on="1"/>
        <pt x="705" y="1139" on="0"/>
        <pt x="846" y="1055" on="0"/>
        <pt x="885" y="975" on="1"/>
        <pt x="893" y="975" on="1"/>
        <pt x="950" y="1118" on="1"/>
        <pt x="1182" y="1118" on="1"/>
        <pt x="944" y="0" on="1"/>
        <pt x="719" y="0" on="1"/>
        <pt x="733" y="145" on="1"/>
        <pt x="725" y="145" on="1"/>
        <pt x="591" y="-20" on="0"/>
      </contour>
      <contour>
        <pt x="524" y="223" on="1"/>
        <pt x="593" y="223" on="0"/>
        <pt x="721" y="357" on="0"/>
        <pt x="799" y="586" on="0"/>
        <pt x="799" y="731" on="1"/>
        <pt x="799" y="802" on="0"/>
        <pt x="722" y="895" on="0"/>
        <pt x="659" y="895" on="1"/>
        <pt x="591" y="895" on="0"/>
        <pt x="468" y="751" on="0"/>
        <pt x="395" y="515" on="0"/>
        <pt x="395" y="399" on="1"/>
        <pt x="395" y="311" on="0"/>
        <pt x="462" y="223" on="0"/>
      </contour>
      <contour>
        <pt x="702" y="2189" on="1"/>
      </contour>
    </TTGlyph>
</ttFont>
